<svg width="417" height="396" viewBox="0 0 417 396" fill="none" xmlns="http://www.w3.org/2000/svg">
<path fill-rule="evenodd" clip-rule="evenodd" d="M208.695 56.8795C246.049 60.728 277.269 18.5183 314.424 23.9621C354.642 29.8546 408.577 47.3604 416.192 87.2809C424.908 132.97 360.48 161.896 349.352 207.058C341.951 237.093 381.496 271.149 364.515 297.005C347.174 323.408 301.532 304.668 274.503 321.021C246.572 337.919 239.721 381.12 208.695 391.275C177.115 401.61 138.399 394.591 112.218 374.132C86.287 353.869 90.6578 313.163 73.1101 285.325C54.5729 255.917 17.3165 240.223 6.90262 207.058C-4.58641 170.469 -1.19344 129.735 13.0769 94.138C28.3055 56.1507 49.3806 8.45663 89.5897 0.798173C133.446 -7.55488 164.285 52.3041 208.695 56.8795Z" fill="#F9EAEF" fill-opacity="0.2"/>
</svg>
