<svg width="158" height="158" viewBox="0 0 158 158" fill="none" xmlns="http://www.w3.org/2000/svg">
<g opacity="0.2">
<path d="M88.4121 0.432129C84.0609 1.45049 81.3453 2.90088 78.4137 5.83252C75.1426 9.07275 73.0133 12.8067 71.8715 17.2813C71.2852 19.6267 71.3469 25.7677 71.9641 28.6993C72.2418 29.9645 72.5813 31.8161 72.6738 32.7728L72.8898 34.5009L71.4086 34.7169C62.7988 35.9204 54.652 38.8829 48.1715 43.2032C45.0238 45.3017 40.4258 49.5294 38.6977 51.8747C37.9262 52.9239 37.4633 53.3251 37.2164 53.1091C36.3832 52.3993 31.816 50.8872 29.2238 50.3935C25.891 49.8071 24.7184 49.9614 22.7742 51.1958C21.1387 52.245 19.7191 54.7446 19.102 57.6454C18.5156 60.4845 18.9168 69.3102 19.8734 74.5563C20.5832 78.4446 22.6508 87.147 23.3605 89.1837C23.6074 89.8317 23.2988 90.6649 21.6016 93.9669L19.5957 97.9786L17.8984 97.7626C15.6457 97.5157 10.0602 97.454 9.41211 97.7009C8.64062 98.0095 7.96172 99.6142 8.17773 100.602C8.54805 102.299 9.22695 102.546 13.609 102.793C15.8309 102.916 17.7133 103.07 17.775 103.163C17.8676 103.225 17.775 103.688 17.5898 104.181C17.0344 105.57 16.0469 111.927 16.0469 113.933C16.0469 115.723 16.016 115.754 15.0594 116.093C14.5039 116.309 12.8375 117.05 11.3871 117.759C8.7332 119.117 8.02344 119.858 8.02344 121.308C8.02344 122.111 9.62813 123.746 10.4305 123.746C10.8008 123.746 12.2203 123.191 13.609 122.512C16.3246 121.216 16.6332 121.247 16.6641 122.82C16.6949 123.252 17.2195 125.104 17.8367 126.986L18.9785 130.35L16.3246 133.004C14.4422 134.886 13.4238 136.183 12.7141 137.664C8.94922 145.471 10.8316 151.674 18.0527 155.254C21.8793 157.167 25.4898 157.784 32.248 157.815C38.7285 157.815 40.7961 157.383 45.6102 155.038L48.5109 153.649L52.0906 154.575C61.3176 156.951 68.5078 157.815 79.1543 157.815C89.8008 157.815 96.991 156.951 106.218 154.575L109.798 153.649L112.698 155.038C117.513 157.383 119.58 157.815 126.061 157.815C132.788 157.784 136.275 157.167 140.194 155.284C147.446 151.736 149.359 145.502 145.595 137.664C144.885 136.183 143.866 134.886 141.953 132.973L139.268 130.288L139.886 128.807C140.194 127.974 140.811 125.999 141.213 124.394C141.614 122.79 142.015 121.432 142.077 121.37C142.138 121.277 143.311 121.802 144.7 122.481C146.057 123.191 147.477 123.746 147.847 123.746C148.65 123.746 150.285 122.142 150.285 121.308C150.285 119.858 149.575 119.117 146.921 117.759C145.471 117.05 143.805 116.309 143.28 116.093C142.293 115.754 142.262 115.723 142.262 113.933C142.262 111.927 141.274 105.57 140.719 104.181C140.534 103.688 140.441 103.225 140.534 103.163C140.595 103.07 142.478 102.916 144.7 102.793C149.082 102.546 149.761 102.299 150.131 100.602C150.347 99.6142 149.668 98.0095 148.896 97.7009C148.248 97.454 142.663 97.5157 140.41 97.7626L138.713 97.9786L136.738 93.9978L134.794 90.0169L135.905 85.9743C140.657 68.5696 140.935 56.3493 136.584 51.9981C134.794 50.2083 133.096 49.7763 129.887 50.27C127.295 50.6712 124.055 51.6587 121.987 52.7079L120.691 53.3868L119.611 51.8747C117.852 49.4985 113.192 45.2399 110.075 43.2032C104.798 39.6852 97.8242 36.7845 91.5906 35.5501L88.7207 34.9638L88.3812 31.6001C88.1652 29.7485 87.7949 27.0638 87.4863 25.6134C86.9 22.7126 87.0234 20.9845 87.9184 19.1946C88.7207 17.5899 90.4488 16.1395 91.8066 15.8618C93.7199 15.5224 97.0219 16.695 100.231 18.886C102.206 20.2439 103.626 20.7376 105.57 20.7376C111.433 20.7376 115.075 14.72 112.482 9.38135C111.834 8.0544 111.155 7.31377 109.582 6.14111C106.959 4.19698 102.021 1.72823 99.0586 0.925873C96.0652 0.0926666 90.9117 -0.154205 88.4121 0.432129ZM98.7191 6.35713C101.404 7.25204 105.662 9.59737 107.175 11.0169C108.193 12.0352 108.286 13.4548 107.36 14.6274C106.434 15.8001 104.86 15.7384 103.039 14.4114C100.941 12.9302 96.991 11.1712 94.8926 10.77C90.0477 9.87509 85.9434 11.881 83.5055 16.3247C81.6848 19.6884 81.4379 22.0954 82.3637 27.002C82.7031 28.6993 83.0734 31.0138 83.166 32.1556L83.382 34.254H80.759H78.1359L77.9508 32.4642C77.8273 31.5075 77.457 29.1622 77.0867 27.3106C75.9758 21.2931 76.809 16.6642 79.8023 12.2513C84.1227 5.92509 90.9734 3.79579 98.7191 6.35713ZM86.1902 39.963C98.0711 41.506 108.44 46.7212 114.828 54.3435L116.031 55.7938L113.779 57.1208C112.575 57.8306 109.921 59.5278 107.915 60.8548L104.274 63.2927L102.052 62.3978C94.2754 59.1884 86.3754 57.8306 77.1484 58.1083C69.6188 58.3243 63.2309 59.6204 56.7504 62.2126L54.0656 63.2618L51.1957 61.3177C49.591 60.2376 46.9371 58.5403 45.3016 57.5528L42.3082 55.763L43.2031 54.652C45.5793 51.6587 49.3133 48.5728 53.3867 46.1657C62.4285 40.7962 74.8031 38.4817 86.1902 39.963ZM29.5324 55.8556C30.952 56.195 32.9578 56.8431 34.007 57.3368C36.9695 58.6946 43.666 62.6138 48.5727 65.8849C51.2883 67.7056 53.2633 68.8165 53.757 68.8165C54.1891 68.8165 55.5777 68.3845 56.8121 67.8599C64.8047 64.4345 72.1184 63.0767 80.8516 63.3544C88.4738 63.6013 93.5348 64.6505 100.447 67.4587C102.33 68.1993 104.243 68.8165 104.737 68.8165C105.292 68.8165 106.712 68.045 108.872 66.5329C119.858 58.9724 130.165 54.1892 132.664 55.5161C134.238 56.3802 134.855 62.9224 133.961 69.7423C133.374 74.0626 131.893 80.9442 130.628 85.2645C128.992 90.8501 128.992 90.7884 130.813 93.9978C131.646 95.5099 132.572 97.238 132.819 97.8552L133.282 98.9353L129.702 99.9845C125.598 101.157 118.809 104.397 117.142 105.94C115.97 107.051 115.784 107.884 116.402 109.026C117.389 110.909 118.685 110.909 122.08 108.965C126.307 106.527 134.578 103.533 135.195 104.212C135.72 104.829 137.355 113.964 136.985 114.334C136.923 114.396 135.534 114.242 133.93 113.995C130.257 113.47 124.086 113.1 123.036 113.377C122.172 113.593 121.277 114.951 121.277 116.031C121.277 116.402 121.648 117.081 122.141 117.543C122.944 118.346 123.191 118.408 126.678 118.593C130.35 118.809 136.337 119.58 136.676 119.889C136.892 120.136 136.182 123.499 135.38 125.845C134.67 128.036 134.979 127.943 131.615 127.017C129.208 126.338 123.962 126.308 121.432 126.986C112.236 129.363 104.953 137.972 105.632 145.625C105.755 146.736 105.909 148.033 106.002 148.465C106.218 149.236 106.156 149.267 102.546 150.069C94.0902 152.013 88.7824 152.569 79.1543 152.569C69.5262 152.569 64.2184 152.013 55.7629 150.069C52.1523 149.267 52.0906 149.236 52.3066 148.465C52.3992 148.033 52.5535 146.736 52.677 145.625C53.3559 137.88 46.1965 129.455 36.877 126.986C34.3773 126.308 29.1313 126.338 26.6934 127.017C23.4223 127.912 23.6383 127.974 23.0828 126.308C22.4039 124.363 21.6016 121.185 21.6016 120.444C21.6016 119.92 21.941 119.765 23.7 119.488C26.7859 118.932 31.0754 118.5 33.2664 118.5C35.0254 118.5 35.334 118.408 36.1363 117.605C36.6301 117.111 37.0312 116.402 37.0312 116.031C37.0312 114.951 36.1363 113.593 35.2723 113.377C34.223 113.1 28.0512 113.47 24.3789 113.995C22.7742 114.242 21.3855 114.396 21.3238 114.334C20.9535 113.964 22.5891 104.829 23.1137 104.212C23.7309 103.533 32.0012 106.527 36.2289 108.965C39.6234 110.909 40.9195 110.909 41.907 109.026C42.9254 107.144 41.8453 105.879 37.1238 103.472C33.4824 101.589 29.6559 100.108 26.6316 99.3673L25.027 98.997L25.4898 97.886C25.7367 97.238 26.6316 95.5407 27.4648 94.0595C28.3289 92.5474 29.0078 90.9735 29.0078 90.5106C29.0078 90.0169 28.4523 87.7024 27.7426 85.3263C26.3539 80.4505 24.9035 73.538 24.348 69.0634C23.8543 64.8048 24.1012 58.17 24.8109 56.7813C25.7676 54.9915 25.8602 54.9606 29.5324 55.8556ZM36.1363 132.263C42.8637 134.238 48.3566 140.935 47.4 146.058C46.9988 148.187 43.6352 150.872 40.4258 151.612L39.6543 151.797V147.817C39.6543 144.052 39.6234 143.805 38.9137 143.064C37.8645 141.953 36.198 141.953 35.1488 143.064C34.5008 143.774 34.4082 144.144 34.3156 147.138C34.1922 151.489 34.1305 151.767 32.8652 152.353C31.9703 152.785 31.6926 152.785 30.8285 152.445C29.409 151.859 29.0078 150.594 29.0078 146.829C29.0078 144.021 28.9461 143.62 28.3289 142.972C27.3723 141.953 25.6441 142.015 24.6566 143.064C23.9469 143.805 23.916 144.052 23.916 147.817V151.797L23.1445 151.612C19.8734 150.872 16.6023 148.279 16.1703 146.119C15.6148 143.126 16.9727 139.762 19.8734 136.831C23.3297 133.374 27.0328 131.8 31.6617 131.77C33.3281 131.77 35.118 131.955 36.1363 132.263ZM130.875 132.263C136.522 133.93 141.675 139.114 142.169 143.65C142.416 145.811 142.046 147.138 140.688 148.588C139.577 149.792 137.046 151.18 135.164 151.612L134.393 151.797V147.817C134.393 144.052 134.362 143.805 133.652 143.064C132.695 142.046 131.029 141.984 130.011 142.941C129.363 143.558 129.301 143.867 129.301 146.798C129.301 150.594 128.9 151.859 127.48 152.445C126.616 152.785 126.338 152.785 125.443 152.353C124.178 151.767 124.116 151.489 123.993 147.138C123.9 144.144 123.808 143.774 123.16 143.064C122.111 141.953 120.444 141.953 119.395 143.064C118.685 143.805 118.654 144.052 118.654 147.817L118.685 151.797L117.883 151.612C116.062 151.211 113.223 149.606 112.205 148.372C110.446 146.335 110.353 143.774 111.896 140.626C113.562 137.139 117.451 133.868 121.493 132.51C124.086 131.615 128.313 131.523 130.875 132.263Z" fill="#F6A6BF"/>
<path d="M47.554 92.9179C44.5915 93.6894 43.172 94.3992 42.6165 95.3867C41.7833 96.8679 43.0486 99.0589 44.7458 99.0589C45.2087 99.0589 46.3814 98.7812 47.3997 98.4109C48.4181 98.0406 50.3931 97.7011 51.9052 97.6086C56.4107 97.3308 58.6325 98.5652 60.3915 102.361C60.947 103.595 61.6876 104.737 62.0271 104.922C63.0763 105.478 64.1872 105.262 65.1747 104.305C66.3165 103.163 66.2548 102.237 64.9278 99.5218C63.2614 96.1582 60.4841 93.7511 57.1204 92.7636C54.806 92.0847 50.4239 92.1465 47.554 92.9179Z" fill="#F6A6BF"/>
<path d="M98.5343 92.7326C94.3066 94.0287 90.2949 98.4724 89.8628 102.299C89.7394 103.441 89.832 103.749 90.5109 104.428C92.0539 105.971 94.2449 105.169 95.0472 102.762C95.6027 101.095 97.6394 98.8119 99.2132 98.1021C100.941 97.2998 104.459 97.3306 107.237 98.1638C110.755 99.213 111.557 99.2439 112.452 98.3181C113.254 97.5466 113.47 96.3123 113.069 95.2013C112.791 94.4915 110.94 93.6275 108.132 92.8869C105.323 92.1771 100.571 92.0845 98.5343 92.7326Z" fill="#F6A6BF"/>
<path d="M72.3652 108.44C69.6188 109.767 68.1992 112.421 68.8781 115.044C69.125 116.093 69.8039 117.05 71.6863 119.086C73.075 120.537 74.7105 122.08 75.3277 122.512L76.5004 123.283L76.5312 127.912C76.5312 132.14 76.4695 132.695 75.8523 133.93C75.4512 134.67 74.7723 135.535 74.3402 135.874C72.643 137.108 69.8965 137.108 68.2301 135.874C66.5945 134.64 66.2551 133.806 66.0391 130.659C65.8539 128.036 65.7613 127.604 65.1441 127.11C63.9715 126.153 62.4594 126.246 61.5027 127.326C60.8855 128.005 60.793 128.437 60.793 130.844C60.793 134.362 61.5645 136.553 63.5395 138.651C67.5203 142.91 73.8465 143.28 78.1668 139.485L79.216 138.59L79.8949 139.299C80.9133 140.379 83.2586 141.552 85.2336 141.953C88.5973 142.632 92.2387 141.367 94.7691 138.651C96.7441 136.553 97.5156 134.362 97.5156 130.844C97.5156 128.437 97.423 128.005 96.8367 127.326C95.8492 126.246 94.3371 126.153 93.1645 127.11C92.5473 127.604 92.4547 128.036 92.2695 130.659C92.0535 133.806 91.7141 134.64 90.0785 135.874C88.4121 137.108 85.6656 137.108 83.9684 135.874C83.5363 135.535 82.8574 134.67 82.4871 133.93C81.8391 132.695 81.7773 132.14 81.7773 127.912L81.8082 123.283L82.9809 122.512C83.598 122.08 85.2336 120.537 86.6223 119.086C88.5047 117.05 89.1836 116.093 89.4305 115.044C90.0168 112.791 89.0293 110.477 86.9 108.995C85.6965 108.162 85.6965 108.162 79.4937 108.101C74.6488 108.039 73.075 108.101 72.3652 108.44ZM84.1227 113.594C84.4004 114.056 79.8949 118.5 79.1543 118.5C78.4137 118.5 73.9082 114.056 74.1859 113.594C74.3402 113.377 75.9141 113.254 79.1543 113.254C82.3945 113.254 83.9684 113.377 84.1227 113.594Z" fill="#F6A6BF"/>
</g>
</svg>
