<svg width="541" height="405" viewBox="0 0 541 405" fill="none" xmlns="http://www.w3.org/2000/svg">
<g clip-path="url(#clip0_13_831)">
<path d="M359.253 72.242L136.723 91.4627C64.4649 97.7184 10.9779 161.345 17.2241 233.575C23.4793 305.826 87.1054 359.313 159.351 353.073L381.919 333.806C454.156 327.552 507.65 263.926 501.417 191.687C495.149 119.444 431.515 65.9506 359.253 72.242Z" fill="#FAF7F5"/>
<path d="M156.11 367.422C160.329 377.613 155.312 389.362 144.933 393.691C134.555 398.019 122.691 393.203 118.469 382.991C114.247 372.779 119.267 361.051 129.646 356.729C140.025 352.407 151.888 357.217 156.11 367.422Z" fill="#FFFEF1"/>
<path d="M135.173 380.561C130.774 380.988 126.353 379.996 122.558 377.73C118.762 375.465 115.791 372.045 114.079 367.97C113.039 365.451 112.514 362.75 112.537 360.026C112.559 357.301 113.128 354.609 114.21 352.108C115.817 348.329 118.498 345.104 121.919 342.832C125.34 340.561 129.353 339.342 133.46 339.327C137.567 339.313 141.588 340.502 145.025 342.749C148.463 344.996 151.167 348.202 152.801 351.97C154.862 357.08 154.813 362.799 152.665 367.874C150.516 372.948 146.443 376.964 141.339 379.04C139.372 379.855 137.294 380.368 135.173 380.561ZM132.49 348.024C131.242 348.14 130.02 348.443 128.862 348.923C125.852 350.149 123.449 352.516 122.176 355.507C121.548 356.953 121.217 358.511 121.205 360.088C121.193 361.664 121.499 363.227 122.106 364.683C122.926 366.809 124.322 368.664 126.137 370.041C127.952 371.418 130.115 372.262 132.384 372.478C134.652 372.694 136.935 372.274 138.978 371.265C141.021 370.256 142.742 368.698 143.949 366.766C145.156 364.833 145.801 362.603 145.811 360.324C145.821 358.046 145.196 355.81 144.007 353.867C142.817 351.923 141.11 350.35 139.076 349.323C137.042 348.296 134.762 347.856 132.492 348.052L132.49 348.024Z" fill="#28AFC9"/>
<path d="M460.59 87.3707C478.683 75.5306 502.038 79.2027 512.76 95.5795C523.483 111.956 517.51 134.839 499.416 146.679C481.323 158.519 457.967 154.833 447.246 138.47C436.525 122.107 442.497 99.2179 460.59 87.3707Z" fill="#FFFEF1"/>
<path d="M469.034 163.772C455.633 165.008 442.483 159.548 435.118 148.293C424.124 131.497 430.101 108.057 448.441 96.0528C457.012 90.3319 467.408 88.01 477.599 89.5402C487.741 91.137 496.287 96.5347 501.657 104.736C507.026 112.938 508.562 122.933 505.965 132.864C503.287 142.813 496.998 151.407 488.326 156.97C482.549 160.782 475.924 163.118 469.034 163.772ZM453.201 103.309C438.86 112.701 434.007 130.747 442.382 143.539C450.756 156.331 469.21 159.1 483.572 149.706C490.44 145.319 495.429 138.533 497.567 130.669C499.531 123.138 498.406 115.61 494.392 109.483C490.378 103.357 483.939 99.3171 476.252 98.1076C468.187 96.9192 459.968 98.7735 453.194 103.31L453.201 103.309Z" fill="#28AFC9"/>
<path d="M80.6006 94.7911L62.9921 98.8135C61.1396 99.2363 59.3885 100.02 57.8388 101.119C56.2892 102.219 54.9712 103.613 53.9603 105.222C52.9494 106.831 52.2653 108.623 51.947 110.496C51.6287 112.369 51.6826 114.287 52.1054 116.14L57.2618 138.701C57.6845 140.553 58.4681 142.304 59.5676 143.854C60.6671 145.404 62.0612 146.722 63.67 147.733C65.2789 148.744 67.0712 149.428 68.9445 149.746C70.8177 150.064 72.7354 150.01 74.5878 149.588L92.1963 145.565C96.396 144.609 100.739 144.462 104.994 145.132L167.807 155.012L144.623 53.4629L92.3268 89.6255C88.783 92.079 84.8028 93.8324 80.6006 94.7911Z" fill="#FFFEF1"/>
<path d="M173.472 160.294L104.325 149.419C100.608 148.832 96.8131 148.962 93.145 149.802L75.5365 153.824C70.6747 154.926 65.5743 154.056 61.3528 151.404C57.1313 148.753 54.1329 144.536 53.0146 139.678L47.8646 117.109C46.7626 112.247 47.6327 107.147 50.2842 102.925C52.9356 98.7039 57.1524 95.7055 62.0105 94.5872L79.6266 90.5712C83.2934 89.7476 86.7687 88.2299 89.8651 86.1001L147.435 46.2417L173.472 160.294ZM96.2335 140.537C99.3799 140.245 102.551 140.348 105.671 140.845L162.159 149.742L141.825 60.6757L94.797 93.2277C90.7987 96.002 86.3048 97.9825 81.5595 99.0618L63.9471 103.042C61.3308 103.645 59.06 105.26 57.6317 107.533C56.2034 109.807 55.7341 112.553 56.3265 115.172L61.4765 137.741C62.0776 140.358 63.6921 142.63 65.966 144.059C68.2398 145.487 70.9874 145.956 73.6062 145.361L91.2147 141.339C92.8681 140.962 94.5447 140.694 96.2335 140.537Z" fill="#EB4D86"/>
<path d="M51.7687 114.71L47.5406 115.672C46.4287 115.925 45.3776 116.396 44.4476 117.056C43.5175 117.716 42.7266 118.553 42.12 119.518C41.5134 120.484 41.1031 121.56 40.9125 122.684C40.7218 123.809 40.7546 124.96 41.0089 126.072L42.9425 134.569C43.4595 136.81 44.8449 138.755 46.7945 139.976C48.744 141.196 51.0983 141.593 53.3404 141.08L57.5685 140.118L51.7687 114.71Z" fill="#FAF7F5"/>
<path d="M52.5923 145.586C49.4525 145.869 46.3162 145.005 43.7644 143.154C41.2125 141.303 39.418 138.589 38.7133 135.516L36.783 127.054C36.4021 125.387 36.3532 123.662 36.6391 121.977C36.9251 120.291 37.5403 118.679 38.4495 117.231C39.3588 115.784 40.5443 114.529 41.9384 113.54C43.3325 112.551 44.9078 111.846 46.5744 111.465L55.0369 109.535L62.7651 143.385L54.3032 145.322C53.7394 145.448 53.1678 145.536 52.5923 145.586ZM48.5066 119.949C47.9512 120.076 47.4263 120.311 46.9618 120.64C46.4974 120.97 46.1025 121.388 45.7998 121.871C45.4971 122.354 45.2925 122.891 45.1977 123.453C45.103 124.015 45.1199 124.589 45.2475 125.145L47.1778 133.607C47.4373 134.727 48.1293 135.699 49.1028 136.311C50.0763 136.923 51.2523 137.125 52.3742 136.873L48.5066 119.949Z" fill="#28AFC9"/>
<path d="M73.1579 149.91L78.9558 175.297C79.3372 176.966 80.0439 178.544 81.0354 179.939C82.0269 181.335 83.2838 182.522 84.7342 183.432C86.1846 184.341 87.8001 184.956 89.4883 185.241C91.1765 185.527 92.9043 185.476 94.573 185.093C96.2403 184.712 97.8163 184.007 99.2108 183.017C100.605 182.027 101.791 180.772 102.7 179.324C103.61 177.876 104.225 176.262 104.51 174.576C104.795 172.89 104.746 171.164 104.364 169.497L98.5519 144.111L73.1579 149.91Z" fill="white"/>
<path d="M93.2343 189.688C89.0462 190.07 84.8618 188.92 81.4566 186.452C78.0514 183.984 75.6563 180.365 74.7151 176.267L67.9623 146.644L101.812 138.916L108.565 168.538C109.584 173.027 108.781 177.736 106.331 181.633C103.882 185.53 99.9867 188.296 95.5002 189.324C94.754 189.496 93.997 189.618 93.2343 189.688ZM78.3615 153.168L83.1904 174.321C83.7365 176.53 85.1278 178.436 87.065 179.629C89.0022 180.822 91.3304 181.207 93.5486 180.701C95.7668 180.195 97.6977 178.839 98.9258 176.923C100.154 175.008 100.581 172.687 100.116 170.46L95.2866 149.308L78.3615 153.168Z" fill="#F6A6BF"/>
<path d="M92.7546 118.724C90.5598 109.497 89.9192 99.968 90.8594 90.5298C87.6996 92.5083 84.2332 93.9483 80.6015 94.7911L62.993 98.8135C61.1405 99.2362 59.3895 100.02 57.8398 101.119C56.2901 102.219 54.9722 103.613 53.9613 105.222C52.9503 106.831 52.2662 108.623 51.9479 110.496C51.6297 112.369 51.6835 114.287 52.1064 116.14L57.2627 138.701C57.6855 140.553 58.469 142.304 59.5686 143.854C60.6681 145.404 62.0621 146.722 63.671 147.733C65.2799 148.744 67.0721 149.428 68.9454 149.746C70.8187 150.064 72.7363 150.01 74.5888 149.588L92.1973 145.565C95.8454 144.748 99.6031 144.537 103.32 144.941C98.3682 136.849 94.7977 127.989 92.7546 118.724Z" fill="#FAF7F5"/>
<path d="M73.0403 154.224C68.505 154.631 63.9757 153.382 60.291 150.706C56.6063 148.031 54.0158 144.111 52.9992 139.673L47.8492 117.104C46.7471 112.242 47.6172 107.141 50.2687 102.92C52.9202 98.6984 57.1369 95.7 61.995 94.5817L79.6111 90.5657C82.785 89.826 85.8148 88.5671 88.5781 86.8396L96.1646 82.1405L95.1773 91.0132C94.2833 99.9673 94.8788 109.008 96.9396 117.767C98.8738 126.554 102.252 134.959 106.936 142.64L111.676 150.208L102.8 149.264C99.5621 148.909 96.2877 149.092 93.1092 149.805L75.4937 153.828C74.6854 154.013 73.8658 154.145 73.0403 154.224ZM86.1003 97.6767C84.6153 98.2221 83.0973 98.6731 81.5554 99.027L63.9463 103.042C61.33 103.645 59.0591 105.26 57.6309 107.533C56.2026 109.807 55.7333 112.553 56.3257 115.172L61.4757 137.741C62.0751 140.359 63.6893 142.632 65.9636 144.061C68.2379 145.49 70.9865 145.958 73.6054 145.362L91.2139 141.339C92.7574 140.986 94.3221 140.734 95.8982 140.583C89.3697 127.227 86.0165 112.543 86.1003 97.6767Z" fill="#F6A6BF"/>
<path d="M188.811 96.7939C195.748 127.19 187.87 154.882 171.242 158.68C154.615 162.478 135.474 140.938 128.538 110.557C121.602 80.1747 129.472 52.469 146.106 48.6705C162.741 44.872 181.876 66.419 188.811 96.7939Z" fill="white"/>
<path d="M169.333 163.371C150.876 165.073 131.492 143.119 124.283 111.528C120.747 96.1386 120.745 80.8185 124.292 68.5002C128.068 55.2157 135.47 46.6824 145.142 44.4783C164.442 40.0601 185.455 62.626 193.042 95.8609C196.577 111.25 196.58 126.57 193.036 138.93C189.26 152.208 181.858 160.741 172.194 162.952C171.25 163.153 170.295 163.293 169.333 163.371ZM148.785 52.6277C148.207 52.682 147.634 52.775 147.069 52.9059C140.63 54.3744 135.504 60.744 132.64 70.8338C129.515 81.8364 129.55 95.6017 132.747 109.618C139.031 137.14 156.224 157.667 170.255 154.476C176.693 153.007 181.819 146.638 184.69 136.54C187.815 125.538 187.773 111.773 184.576 97.7562C178.55 71.3463 162.486 51.3639 148.785 52.6277Z" fill="#F6A6BF"/>
<path d="M174.815 99.9895C179.441 120.244 175.958 138.312 167.033 140.348C158.107 142.385 147.131 127.618 142.503 107.343C137.875 87.0677 141.367 69.0201 150.285 66.9843C159.203 64.9485 170.202 79.7339 174.815 99.9895Z" fill="#F6A6BF"/>
<path d="M166.432 144.833C160.837 145.349 154.913 141.847 149.679 134.804C144.694 128.104 140.647 118.708 138.28 108.346C135.914 97.9841 135.477 87.7473 137.034 79.5415C138.853 70.1265 143.205 64.1598 149.306 62.7859C155.408 61.4119 161.906 64.8684 167.623 72.5584C172.614 79.2574 176.655 88.6539 179.028 99.0153C184.354 122.337 179.6 141.919 167.981 144.577C167.471 144.696 166.953 144.782 166.432 144.833ZM151.653 71.1748C151.52 71.1796 151.387 71.1919 151.255 71.2115C148.83 71.7667 146.649 75.5723 145.576 81.1518C144.216 88.1968 144.633 97.1516 146.739 106.374C148.845 115.596 152.357 123.842 156.64 129.598C160.03 134.159 163.638 136.648 166.063 136.093C170.898 134.984 175.106 120.728 170.579 100.93C168.472 91.7081 164.953 83.4556 160.677 77.6993C157.475 73.4169 154.059 70.9529 151.653 71.1748Z" fill="#F6A6BF"/>
<path d="M169.647 99.8525C168.963 96.8413 167.58 94.0334 165.61 91.6559C163.64 89.2784 161.137 87.3983 158.305 86.1678C155.473 84.9372 152.392 84.3907 149.309 84.5726C146.227 84.7545 143.23 85.6597 140.563 87.2148C140.317 93.9882 140.98 100.764 142.534 107.361C143.802 113.022 145.693 118.526 148.174 123.77C151.305 124.143 154.48 123.759 157.431 122.648C160.382 121.538 163.023 119.734 165.131 117.389C167.239 115.044 168.752 112.226 169.543 109.174C170.333 106.121 170.379 102.924 169.675 99.85L169.647 99.8525Z" fill="white"/>
<path d="M152.725 128.153C151.032 128.307 149.327 128.282 147.639 128.079L145.272 127.804L144.235 125.657C141.61 120.122 139.612 114.311 138.278 108.332C136.635 101.35 135.935 94.1789 136.198 87.0107L136.312 84.6514L138.352 83.4475C141.612 81.5548 145.27 80.4547 149.033 80.236C152.796 80.0173 156.557 80.686 160.014 82.1883C163.471 83.6906 166.526 85.9843 168.934 88.8844C171.341 91.7846 173.033 95.21 173.873 98.8842C175.292 105.1 174.186 111.625 170.797 117.026C167.408 122.426 162.014 126.261 155.799 127.686C154.786 127.911 153.759 128.067 152.725 128.153ZM150.995 119.567C153.132 119.492 155.23 118.972 157.154 118.039C159.079 117.106 160.787 115.781 162.169 114.15C163.552 112.518 164.578 110.616 165.182 108.564C165.786 106.513 165.955 104.358 165.677 102.237C165.4 100.117 164.682 98.0778 163.57 96.2509C162.458 94.4241 160.977 92.8497 159.221 91.6288C157.466 90.408 155.474 89.5675 153.375 89.1614C151.275 88.7552 149.114 88.7924 147.029 89.2704C146.272 89.4398 145.529 89.6687 144.807 89.9551C144.832 95.4926 145.48 101.01 146.74 106.402C147.761 110.909 149.185 115.315 150.995 119.567Z" fill="#F6A6BF"/>
<path d="M338.84 365.119L252.362 372.602C251.216 372.708 250.074 372.354 249.189 371.618C248.303 370.882 247.747 369.825 247.641 368.678C247.535 367.532 247.889 366.391 248.625 365.505C249.361 364.62 250.418 364.063 251.565 363.957L338.042 356.475C339.189 356.369 340.33 356.723 341.215 357.459C342.101 358.194 342.657 359.252 342.763 360.398C342.869 361.545 342.515 362.686 341.779 363.571C341.043 364.457 339.986 365.013 338.84 365.119Z" fill="#EB4D86"/>
<path d="M93.1871 357.341C92.1941 357.434 91.1994 357.182 90.3704 356.628C61.9171 337.554 41.7319 308.424 33.8669 275.085C26.002 241.745 31.0396 206.664 47.9683 176.885C48.2464 176.382 48.6216 175.939 49.0722 175.582C49.5228 175.226 50.0398 174.962 50.5931 174.806C51.1465 174.651 51.7253 174.607 52.2958 174.677C52.8664 174.747 53.4173 174.929 53.9167 175.214C54.4161 175.498 54.854 175.879 55.205 176.335C55.556 176.79 55.813 177.31 55.9613 177.866C56.1095 178.421 56.1459 179 56.0685 179.57C55.991 180.139 55.8012 180.688 55.5101 181.184C39.6608 209.055 34.9428 241.89 42.3037 273.096C49.6645 304.302 68.5591 331.568 95.1931 349.419C95.9485 349.913 96.5306 350.631 96.8582 351.472C97.1857 352.314 97.2423 353.236 97.02 354.111C96.7978 354.986 96.3077 355.77 95.6184 356.353C94.9291 356.936 94.0748 357.29 93.175 357.364L93.1871 357.341Z" fill="#F6A6BF"/>
<path d="M417.057 100.767C416.611 100.809 416.161 100.782 415.724 100.686C403.183 97.9351 390.296 97.1069 377.506 98.2294C376.36 98.3351 375.219 97.9811 374.333 97.2453C373.448 96.5095 372.891 95.4521 372.785 94.3057C372.68 93.1594 373.034 92.018 373.769 91.1326C374.505 90.2472 375.563 89.6905 376.709 89.5847C390.373 88.3901 404.139 89.275 417.537 92.2093C418.545 92.4299 419.442 93.0023 420.066 93.8239C420.69 94.6456 421.001 95.6627 420.944 96.6929C420.886 97.7232 420.463 98.6991 419.751 99.4458C419.038 100.192 418.083 100.661 417.057 100.767Z" fill="#FFFEF1"/>
<path d="M400.915 359.746L400.146 359.817L372.855 362.179C371.735 362.237 370.637 361.86 369.789 361.126C368.941 360.393 368.411 359.359 368.308 358.243C368.205 357.127 368.538 356.014 369.237 355.138C369.936 354.261 370.947 353.689 372.058 353.542L399.348 351.173L400.048 351.108C469.429 344.709 520.872 283.246 514.857 213.752C513.437 197.007 508.69 180.714 500.893 165.827C500.38 164.809 500.288 163.631 500.636 162.545C500.985 161.46 501.747 160.555 502.757 160.027C503.767 159.498 504.944 159.388 506.034 159.721C507.125 160.053 508.041 160.801 508.584 161.803C516.932 177.692 522.028 195.087 523.574 212.969C530.029 287.24 475.031 352.91 400.915 359.746Z" fill="#F6A6BF"/>
<path fill-rule="evenodd" clip-rule="evenodd" d="M292.297 163.205V163.469C292.272 163.429 292.259 163.383 292.259 163.337C292.259 163.29 292.272 163.244 292.297 163.205Z" fill="#241D50"/>
<path fill-rule="evenodd" clip-rule="evenodd" d="M292.318 163.468C293.679 165.503 328.175 159.571 328.175 159.571C328.175 159.571 347.116 192.326 331.104 227.38C320.13 250.221 310.916 265.124 312.27 290.849C322.681 292.99 321.819 300.513 315.242 300.213C314.009 300.213 308.002 300.32 307.154 300.249C299.123 299.535 304.304 266.702 306.178 256.438C306.577 254.539 306.741 253.39 306.741 253.39C306.741 253.39 306.52 254.525 306.178 256.438C304.582 263.989 299.244 283.497 285.513 290.635C286.532 290.071 291.855 290.428 295.489 292.126C302.38 295.338 307.09 301.277 292.083 300.213C273.384 300.642 255.377 300.178 255.377 300.178C255.377 300.178 205.852 273.604 248.458 229.964C270.007 207.894 297.156 220.349 292.318 163.468Z" fill="#241D50"/>
<path fill-rule="evenodd" clip-rule="evenodd" d="M306.177 256.466C306.519 254.553 306.74 253.418 306.74 253.418C306.74 253.418 306.576 254.568 306.177 256.466Z" fill="#241D50"/>
<path d="M199.952 174.39C223.004 181.527 229.731 215.946 234.234 265.46C234.876 272.469 238.118 293.661 260.18 299.279C260.101 299.457 260.03 299.628 259.959 299.807C229.353 302.662 216.127 273.94 214.246 248.751C210.833 211.242 206.087 186.224 185.842 192.719C177.035 196.624 172.332 166.288 199.952 174.39Z" fill="#2A2460"/>
<path fill-rule="evenodd" clip-rule="evenodd" d="M269.109 135.96C275.052 136.638 285.349 137.987 286.446 139.329C295.303 128.907 313.033 128.015 318.128 127.987L339.997 109.614C340.342 109.322 340.757 109.125 341.201 109.043C341.644 108.961 342.101 108.997 342.527 109.146C342.954 109.295 343.333 109.553 343.63 109.894C343.926 110.235 344.127 110.648 344.216 111.092C345.712 118.643 348.634 133.54 348.391 133.982C373.567 170.713 324.299 187.772 304.874 185.988C282.178 181.641 276.869 174.097 274.232 166.716C271.189 158.151 272.429 156.638 272.429 156.638L266.337 139.507C266.183 139.084 266.139 138.628 266.21 138.183C266.281 137.738 266.464 137.318 266.741 136.963C267.018 136.608 267.381 136.33 267.795 136.154C268.209 135.979 268.661 135.912 269.109 135.96Z" fill="#2A2460"/>
<path d="M306.035 168.793C308.009 169.686 309.42 169.793 310.004 169.115C310.717 168.301 310.368 166.502 310.133 165.967L310.019 165.817C309.922 165.692 309.87 165.539 309.87 165.382C309.87 165.224 309.922 165.071 310.019 164.946C310.108 164.813 310.24 164.714 310.392 164.664C310.545 164.615 310.709 164.619 310.86 164.675C311.068 164.771 311.238 164.935 311.344 165.139C312.769 166.988 314.244 167.837 315.62 167.673C318.89 167.309 321.263 161.891 321.263 161.82C321.301 161.732 321.355 161.653 321.423 161.586C321.491 161.519 321.572 161.467 321.66 161.432C321.749 161.396 321.843 161.378 321.938 161.379C322.033 161.38 322.127 161.4 322.215 161.438C322.302 161.475 322.381 161.53 322.448 161.598C322.515 161.666 322.567 161.747 322.602 161.835C322.638 161.923 322.655 162.018 322.654 162.114C322.653 162.209 322.634 162.303 322.596 162.391C322.489 162.648 319.888 168.629 315.819 169.122C315.104 169.187 314.382 169.103 313.701 168.873C313.019 168.644 312.394 168.273 311.864 167.787C311.878 168.287 311.779 168.783 311.578 169.24C311.375 169.696 311.074 170.103 310.696 170.428C310.272 170.705 309.794 170.889 309.295 170.969C308.795 171.049 308.284 171.023 307.795 170.892C306.982 170.723 306.19 170.459 305.437 170.107C305.348 170.07 305.269 170.015 305.202 169.946C305.136 169.878 305.083 169.796 305.049 169.707C305.014 169.618 304.998 169.522 305.001 169.427C305.004 169.331 305.026 169.237 305.066 169.15C305.105 169.061 305.16 168.981 305.231 168.915C305.301 168.848 305.384 168.797 305.474 168.763C305.565 168.73 305.661 168.716 305.758 168.721C305.854 168.726 305.948 168.751 306.035 168.793Z" fill="white"/>
<path fill-rule="evenodd" clip-rule="evenodd" d="M308.936 160.314C308.793 160.314 316.967 153.64 310.304 165.217C310.304 165.217 298.781 159.557 308.936 160.314Z" fill="url(#paint0_linear_13_831)"/>
<path fill-rule="evenodd" clip-rule="evenodd" d="M365.357 147.894C364.445 147.716 350.564 146.524 334.716 157.43C334.716 157.43 351.091 143.062 365.357 147.894Z" fill="white"/>
<path fill-rule="evenodd" clip-rule="evenodd" d="M366.113 159.029C365.329 158.593 352.966 153.418 335.415 158.779C335.415 158.779 354.427 150.399 366.113 159.029Z" fill="white"/>
<path fill-rule="evenodd" clip-rule="evenodd" d="M293.771 169.629C279.684 170.835 272.579 178.272 272.686 178.265C278.33 169.122 293.771 169.629 293.771 169.629Z" fill="white"/>
<path fill-rule="evenodd" clip-rule="evenodd" d="M293.992 170.685C281.5 175.867 277.168 184.775 277.261 184.739C279.783 174.668 293.992 170.685 293.992 170.685Z" fill="white"/>
<path opacity="0.21" fill-rule="evenodd" clip-rule="evenodd" d="M340.737 115.667C344.365 116.345 342.12 131.513 342.12 131.513C337.844 128.647 332.82 127.108 327.676 127.087C327.676 127.087 337.118 114.996 340.737 115.667Z" fill="white"/>
<path opacity="0.21" fill-rule="evenodd" clip-rule="evenodd" d="M273.227 140.906C275.657 140.192 283.203 143.047 283.203 143.047C278.436 143.89 275.621 149.721 275.621 149.721C275.621 149.721 270.79 141.606 273.227 140.906Z" fill="white"/>
</g>
<defs>
<linearGradient id="paint0_linear_13_831" x1="312.919" y1="161.806" x2="304.753" y2="161.806" gradientUnits="userSpaceOnUse">
<stop stop-color="#EC6588"/>
<stop offset="1" stop-color="#E71A80"/>
</linearGradient>
<clipPath id="clip0_13_831">
<rect width="509.91" height="359.637" fill="white" transform="translate(0 46.834) rotate(-5.2699)"/>
</clipPath>
</defs>
</svg>
