<svg width="541" height="406" viewBox="0 0 541 406" fill="none" xmlns="http://www.w3.org/2000/svg">
<g clip-path="url(#clip0_11_764)">
<path d="M181.62 73.0535L404.226 92.2724C476.509 98.5276 530.01 162.2 523.756 234.488C517.493 306.797 453.841 360.331 381.571 354.091L158.926 334.826C86.664 328.573 33.1562 264.9 39.3968 192.603C45.673 120.303 109.333 66.7627 181.62 73.0535Z" fill="#FAF7F5"/>
<path d="M384.811 368.451C380.589 378.651 385.607 390.408 395.989 394.74C406.371 399.071 418.239 394.25 422.464 384.03C426.688 373.809 421.667 362.073 411.285 357.748C400.902 353.424 389.034 358.238 384.811 368.451Z" fill="#FFFEF1"/>
<path d="M405.752 381.599C410.154 382.026 414.576 381.033 418.373 378.765C422.17 376.498 425.142 373.075 426.856 368.996C427.896 366.476 428.421 363.772 428.399 361.046C428.376 358.319 427.807 355.625 426.726 353.122C425.118 349.34 422.437 346.113 419.014 343.84C415.592 341.567 411.578 340.347 407.47 340.333C403.362 340.318 399.339 341.509 395.9 343.758C392.461 346.007 389.756 349.216 388.121 352.986C386.059 358.101 386.107 363.825 388.256 368.903C390.405 373.982 394.479 378 399.585 380.078C401.552 380.893 403.632 381.406 405.752 381.599ZM408.44 349.036C409.687 349.153 410.91 349.456 412.068 349.935C415.079 351.163 417.483 353.531 418.756 356.524C419.385 357.971 419.715 359.531 419.727 361.109C419.739 362.687 419.433 364.251 418.826 365.707C418.006 367.835 416.609 369.692 414.793 371.07C412.977 372.448 410.813 373.293 408.544 373.509C406.275 373.726 403.991 373.306 401.947 372.297C399.904 371.287 398.182 369.728 396.975 367.794C395.767 365.86 395.123 363.628 395.113 361.347C395.103 359.067 395.728 356.829 396.918 354.884C398.108 352.94 399.817 351.365 401.851 350.337C403.886 349.309 406.166 348.868 408.437 349.064L408.44 349.036Z" fill="#28AFC9"/>
<path d="M80.2443 88.2019C62.1453 76.3538 38.7824 80.0306 28.0549 96.4212C17.3274 112.812 23.3005 135.712 41.3995 147.56C59.4985 159.408 82.8627 155.717 93.5889 139.341C104.315 122.964 98.3426 100.057 80.2443 88.2019Z" fill="#FFFEF1"/>
<path d="M71.7932 164.664C85.1984 165.9 98.354 160.435 105.723 149.17C116.722 132.36 110.744 108.902 92.3987 96.8898C83.8246 91.1651 73.4255 88.8422 63.2307 90.3744C53.0849 91.9731 44.5355 97.3758 39.1635 105.584C33.7915 113.793 32.2547 123.795 34.8515 133.734C37.5301 143.691 43.8204 152.291 52.4951 157.859C58.274 161.673 64.9005 164.01 71.7932 164.664ZM87.6361 104.152C101.982 113.551 106.835 131.611 98.4565 144.413C90.0781 157.215 71.6178 159.989 57.2513 150.588C50.3814 146.198 45.3913 139.407 43.2532 131.537C41.2886 124 42.4142 116.466 46.4303 110.335C50.4464 104.203 56.8877 100.159 64.5776 98.9484C72.6457 97.7584 80.8674 99.6136 87.6431 104.153L87.6361 104.152Z" fill="#28AFC9"/>
<path d="M460.366 95.5992L477.98 99.6234C479.833 100.046 481.585 100.83 483.135 101.931C484.685 103.031 486.003 104.426 487.014 106.036C488.026 107.646 488.71 109.44 489.028 111.314C489.346 113.189 489.292 115.108 488.869 116.962L483.709 139.542C483.286 141.396 482.502 143.148 481.402 144.699C480.302 146.25 478.908 147.569 477.298 148.581C475.689 149.593 473.896 150.278 472.022 150.597C470.148 150.915 468.229 150.861 466.376 150.438L448.762 146.414C444.561 145.458 440.216 145.311 435.96 145.982L373.124 155.874L396.324 54.2433L448.636 90.4304C452.181 92.8856 456.162 94.64 460.366 95.5992Z" fill="#FFFEF1"/>
<path d="M367.458 161.162L436.631 150.273C440.349 149.685 444.145 149.815 447.814 150.654L465.429 154.679C470.292 155.781 475.394 154.91 479.618 152.256C483.841 149.602 486.84 145.382 487.96 140.52L493.113 117.933C494.216 113.067 493.346 107.963 490.694 103.738C488.042 99.5134 483.824 96.513 478.964 95.3942L461.342 91.3763C457.674 90.5523 454.198 89.0337 451.1 86.9024L393.514 47.0169L367.458 161.162ZM444.726 141.383C441.578 141.091 438.406 141.195 435.284 141.692L378.777 150.6L399.124 61.462L446.166 94.0361C450.166 96.8122 454.661 98.794 459.408 99.8737L477.026 103.856C479.643 104.459 481.915 106.075 483.343 108.35C484.772 110.625 485.241 113.374 484.648 115.995L479.495 138.582C478.893 141.201 477.278 143.475 475.003 144.905C472.729 146.335 469.98 146.804 467.36 146.209L449.746 142.185C448.092 141.807 446.415 141.54 444.726 141.383Z" fill="#EA4385"/>
<path d="M489.206 115.532L493.435 116.494C494.548 116.748 495.599 117.218 496.529 117.879C497.46 118.539 498.251 119.376 498.857 120.343C499.464 121.31 499.875 122.386 500.065 123.511C500.256 124.637 500.223 125.789 499.968 126.901L498.034 135.406C497.516 137.649 496.13 139.595 494.18 140.817C492.23 142.039 489.874 142.436 487.632 141.922L483.402 140.961L489.206 115.532Z" fill="#FAF7F5"/>
<path d="M488.379 146.431C491.52 146.715 494.658 145.85 497.211 143.997C499.764 142.144 501.559 139.429 502.264 136.353L504.196 127.884C504.577 126.216 504.626 124.49 504.34 122.803C504.054 121.116 503.439 119.503 502.529 118.054C501.62 116.605 500.434 115.35 499.04 114.36C497.645 113.37 496.069 112.664 494.402 112.284L485.937 110.353L478.203 144.23L486.668 146.168C487.232 146.293 487.804 146.382 488.379 146.431ZM492.469 120.774C493.024 120.901 493.549 121.136 494.014 121.466C494.478 121.796 494.873 122.215 495.176 122.698C495.479 123.181 495.684 123.719 495.778 124.281C495.873 124.843 495.856 125.418 495.728 125.974L493.797 134.443C493.537 135.564 492.845 136.537 491.871 137.15C490.897 137.762 489.721 137.964 488.598 137.712L492.469 120.774Z" fill="#28AFC9"/>
<path d="M467.809 150.761L462.007 176.168C461.625 177.839 460.918 179.418 459.926 180.815C458.934 182.212 457.677 183.399 456.226 184.31C454.775 185.221 453.159 185.836 451.47 186.121C449.781 186.407 448.052 186.356 446.383 185.973C444.715 185.593 443.139 184.887 441.744 183.896C440.349 182.906 439.163 181.65 438.253 180.2C437.344 178.751 436.729 177.136 436.444 175.449C436.158 173.761 436.208 172.034 436.59 170.366L442.406 144.96L467.809 150.761Z" fill="white"/>
<path d="M447.722 190.572C451.911 190.954 456.097 189.803 459.504 187.333C462.91 184.862 465.307 181.241 466.249 177.139L473.006 147.492L439.145 139.76L432.388 169.407C431.368 173.899 432.171 178.612 434.621 182.512C437.071 186.412 440.967 189.18 445.455 190.208C446.202 190.38 446.959 190.502 447.722 190.572ZM462.603 154.022L457.77 175.192C457.224 177.403 455.832 179.31 453.894 180.505C451.956 181.699 449.627 182.084 447.408 181.578C445.189 181.072 443.258 179.715 442.029 177.798C440.801 175.881 440.374 173.559 440.84 171.33L445.672 150.16L462.603 154.022Z" fill="#F6A6BF"/>
<path d="M448.207 119.552C450.403 110.317 451.045 100.781 450.105 91.3353C453.266 93.3151 456.733 94.7561 460.366 95.5992L477.981 99.6234C479.834 100.046 481.585 100.83 483.135 101.931C484.686 103.031 486.004 104.426 487.015 106.036C488.026 107.646 488.71 109.44 489.029 111.315C489.347 113.189 489.293 115.108 488.87 116.962L483.71 139.542C483.287 141.396 482.503 143.148 481.403 144.699C480.303 146.25 478.908 147.569 477.299 148.581C475.689 149.593 473.896 150.278 472.022 150.597C470.148 150.915 468.23 150.862 466.377 150.438L448.763 146.414C445.113 145.597 441.354 145.386 437.636 145.791C442.59 137.692 446.163 128.824 448.207 119.552Z" fill="#FAF7F5"/>
<path d="M467.925 155.078C472.462 155.486 476.993 154.235 480.679 151.557C484.365 148.879 486.957 144.956 487.974 140.514L493.128 117.927C494.231 113.061 493.361 107.957 490.709 103.732C488.057 99.5074 483.839 96.507 478.979 95.3882L461.357 91.3703C458.182 90.6303 455.151 89.3706 452.387 87.642L444.798 82.9397L445.785 91.8194C446.679 100.78 446.083 109.828 444.02 118.594C442.085 127.388 438.705 135.8 434.018 143.488L429.276 151.063L438.155 150.116C441.394 149.761 444.67 149.944 447.85 150.657L465.471 154.682C466.28 154.867 467.099 155 467.925 155.078ZM454.865 98.4874C456.35 99.0331 457.869 99.4844 459.411 99.8384L477.026 103.856C479.643 104.459 481.915 106.075 483.344 108.35C484.772 110.625 485.241 113.374 484.649 115.994L479.495 138.581C478.895 141.202 477.28 143.477 475.005 144.907C472.73 146.337 469.98 146.805 467.361 146.209L449.746 142.185C448.202 141.832 446.637 141.579 445.06 141.428C451.592 128.061 454.948 113.365 454.865 98.4874Z" fill="#F6A6BF"/>
<path d="M352.118 97.6129C345.176 128.033 353.054 155.747 369.688 159.547C386.321 163.346 405.47 141.788 412.41 111.382C419.351 80.9755 411.481 53.2485 394.84 49.4483C378.2 45.648 359.057 67.2136 352.118 97.6129Z" fill="white"/>
<path d="M371.597 164.24C390.06 165.942 409.453 143.969 416.667 112.352C420.205 96.9507 420.209 81.6185 416.661 69.2908C412.885 55.9961 405.481 47.4566 395.806 45.2515C376.499 40.8313 355.477 63.4166 347.885 96.6783C344.347 112.08 344.344 127.412 347.888 139.782C351.664 153.069 359.068 161.609 368.735 163.82C369.679 164.022 370.635 164.162 371.597 164.24ZM392.16 53.4076C392.738 53.4619 393.312 53.5549 393.878 53.6859C400.318 55.1551 405.445 61.5293 408.31 71.6268C411.436 82.6379 411.399 96.4141 408.2 110.442C401.911 137.986 384.711 158.531 370.675 155.338C364.235 153.868 359.108 147.494 356.237 137.389C353.111 126.378 353.154 112.602 356.354 98.5744C362.384 72.1432 378.454 52.1439 392.16 53.4076Z" fill="#F6A6BF"/>
<path d="M366.119 100.809C361.49 121.079 364.973 139.161 373.901 141.199C382.829 143.236 393.81 128.457 398.441 108.166C403.073 87.874 399.581 69.8124 390.66 67.7756C381.739 65.7389 370.735 80.5369 366.119 100.809Z" fill="#F6A6BF"/>
<path d="M374.502 145.688C380.099 146.204 386.025 142.698 391.262 135.649C396.248 128.943 400.298 119.54 402.666 109.169C405.034 98.7991 405.471 88.5542 403.915 80.342C402.096 70.9197 397.743 64.9487 391.639 63.5741C385.536 62.1995 379.035 65.6592 373.315 73.3558C368.322 80.0604 364.279 89.4646 361.904 99.8344C356.575 123.175 361.329 142.772 372.952 145.432C373.462 145.551 373.98 145.636 374.502 145.688ZM389.291 71.9698C389.425 71.9746 389.558 71.9869 389.69 72.0066C392.115 72.562 394.297 76.3704 395.369 81.9542C396.73 89.0047 396.312 97.9666 394.204 107.196C392.097 116.426 388.583 124.679 384.298 130.439C380.906 135.005 377.297 137.495 374.871 136.94C370.035 135.831 365.826 121.564 370.357 101.75C372.464 92.5206 375.985 84.2613 380.264 78.5002C383.467 74.2142 386.884 71.7479 389.291 71.9698Z" fill="#F6A6BF"/>
<path d="M371.289 100.671C371.973 97.6577 373.357 94.8474 375.328 92.468C377.299 90.0885 379.802 88.2067 382.635 86.9749C385.468 85.7432 388.551 85.196 391.635 85.3778C394.718 85.5597 397.716 86.4653 400.384 88.0215C400.63 94.8002 399.966 101.581 398.411 108.184C397.142 113.85 395.25 119.357 392.768 124.606C389.636 124.98 386.459 124.595 383.507 123.484C380.555 122.373 377.914 120.568 375.805 118.221C373.697 115.874 372.183 113.055 371.392 110C370.602 106.945 370.557 103.745 371.261 100.669L371.289 100.671Z" fill="white"/>
<path d="M388.215 128.993C389.908 129.147 391.614 129.122 393.302 128.919L395.67 128.643L396.708 126.494C399.334 120.954 401.333 115.139 402.668 109.155C404.312 102.167 405.013 94.9907 404.75 87.8169L404.637 85.4557L402.596 84.251C399.335 82.3571 395.675 81.2564 391.911 81.0378C388.147 80.8192 384.384 81.4888 380.926 82.9925C377.468 84.4962 374.412 86.792 372.003 89.6946C369.595 92.5972 367.902 96.0254 367.061 99.7027C365.641 105.924 366.747 112.454 370.137 117.858C373.527 123.263 378.923 127.1 385.139 128.526C386.153 128.751 387.18 128.907 388.215 128.993ZM389.946 120.4C387.808 120.325 385.709 119.805 383.785 118.871C381.86 117.938 380.151 116.612 378.768 114.979C377.385 113.347 376.359 111.443 375.755 109.39C375.151 107.337 374.982 105.18 375.26 103.058C375.538 100.936 376.256 98.8949 377.368 97.0665C378.48 95.2381 379.962 93.6624 381.719 92.4404C383.475 91.2184 385.467 90.3772 387.568 89.9706C389.668 89.5639 391.83 89.601 393.915 90.0792C394.673 90.2487 395.416 90.4777 396.138 90.7642C396.113 96.3061 395.464 101.828 394.203 107.224C393.181 111.735 391.757 116.144 389.946 120.4Z" fill="#F6A6BF"/>
<path d="M202.017 366.16L288.524 373.642C289.671 373.748 290.813 373.394 291.699 372.657C292.584 371.921 293.141 370.863 293.247 369.715C293.353 368.568 292.999 367.426 292.263 366.54C291.527 365.654 290.469 365.097 289.323 364.991L202.815 357.509C201.669 357.403 200.527 357.758 199.641 358.494C198.755 359.231 198.198 360.289 198.092 361.436C197.987 362.583 198.341 363.726 199.077 364.612C199.813 365.498 200.87 366.055 202.017 366.16Z" fill="#EA4385"/>
<path d="M447.755 358.358C448.749 358.451 449.744 358.198 450.573 357.644C479.038 338.553 499.232 309.398 507.102 276.032C514.973 242.665 509.936 207.557 493.004 177.756C492.725 177.253 492.35 176.809 491.899 176.452C491.449 176.095 490.932 175.831 490.378 175.675C489.824 175.52 489.246 175.476 488.675 175.546C488.104 175.616 487.553 175.799 487.053 176.084C486.554 176.369 486.116 176.75 485.764 177.205C485.413 177.661 485.156 178.182 485.008 178.738C484.859 179.294 484.823 179.873 484.9 180.443C484.978 181.013 485.168 181.562 485.459 182.058C501.312 209.95 506.029 242.811 498.663 274.043C491.297 305.274 472.394 332.563 445.749 350.429C444.993 350.924 444.411 351.643 444.083 352.485C443.756 353.327 443.699 354.25 443.921 355.126C444.144 356.002 444.634 356.786 445.323 357.369C446.013 357.953 446.867 358.306 447.767 358.38L447.755 358.358Z" fill="#F6A6BF"/>
<path d="M123.792 101.606C124.238 101.647 124.688 101.62 125.126 101.524C137.671 98.7702 150.562 97.9403 163.356 99.0627C164.503 99.1684 165.645 98.8141 166.531 98.0776C167.416 97.3411 167.974 96.2828 168.079 95.1356C168.185 93.9883 167.831 92.846 167.095 91.96C166.359 91.074 165.301 90.5169 164.155 90.4111C150.486 89.2166 136.715 90.1033 123.312 93.041C122.304 93.2617 121.407 93.8347 120.782 94.657C120.158 95.4793 119.846 96.4973 119.904 97.5284C119.962 98.5594 120.385 99.5361 121.097 100.283C121.81 101.03 122.765 101.499 123.792 101.606Z" fill="#FFFEF1"/>
<path d="M139.919 360.788L140.688 360.859L167.989 363.221C169.109 363.279 170.208 362.901 171.056 362.167C171.903 361.432 172.434 360.398 172.538 359.281C172.641 358.164 172.308 357.05 171.609 356.173C170.909 355.296 169.898 354.724 168.786 354.576L141.487 352.207L140.787 352.143C71.3823 345.744 19.9256 284.236 25.9479 214.687C27.3698 197.929 32.1201 181.623 39.9203 166.723C40.4338 165.705 40.5262 164.525 40.1775 163.439C39.8288 162.353 39.0671 161.447 38.0568 160.919C37.0465 160.39 35.8688 160.28 34.778 160.612C33.6872 160.945 32.7709 161.693 32.2269 162.696C23.8748 178.599 18.7759 196.008 17.2284 213.904C10.7649 288.234 65.7775 353.952 139.919 360.788Z" fill="#F6A6BF"/>
<path fill-rule="evenodd" clip-rule="evenodd" d="M268.926 172.088L268.926 172.352C268.951 172.312 268.964 172.266 268.964 172.22C268.964 172.173 268.951 172.127 268.926 172.088Z" fill="#241D50"/>
<path fill-rule="evenodd" clip-rule="evenodd" d="M268.907 172.354C267.545 174.39 233.035 168.458 233.035 168.458C233.035 168.458 214.084 201.24 230.098 236.318C241.074 259.175 250.29 274.089 248.932 299.833C238.517 301.977 239.379 309.506 245.959 309.205C247.192 309.205 253.201 309.311 254.05 309.24C262.084 308.525 256.905 275.667 255.031 265.395C254.632 263.495 254.468 262.345 254.468 262.345C254.468 262.345 254.689 263.481 255.031 265.395C256.627 272.952 261.964 292.474 275.701 299.616C274.681 299.051 269.356 299.409 265.72 301.11C258.827 304.325 254.114 310.269 269.127 309.203C287.833 309.629 305.847 309.163 305.847 309.163C305.847 309.163 355.395 282.563 312.777 238.895C291.222 216.811 264.06 229.278 268.907 172.354Z" fill="#241D50"/>
<path fill-rule="evenodd" clip-rule="evenodd" d="M255.034 265.425C254.692 263.51 254.471 262.374 254.471 262.374C254.471 262.374 254.635 263.524 255.034 265.425Z" fill="#241D50"/>
<path d="M361.305 183.276C338.243 190.421 331.509 224.866 326.999 274.419C326.356 281.434 323.11 302.642 301.039 308.266C301.117 308.445 301.189 308.616 301.26 308.795C331.878 311.649 345.112 282.903 346.997 257.695C350.416 220.157 355.166 195.12 375.418 201.618C384.229 205.524 388.937 175.165 361.305 183.276Z" fill="#2A2460"/>
<path fill-rule="evenodd" clip-rule="evenodd" d="M292.127 144.818C286.181 145.498 275.88 146.849 274.782 148.192C265.923 137.764 248.187 136.873 243.09 136.845L221.214 118.461C220.869 118.169 220.454 117.972 220.01 117.89C219.567 117.808 219.109 117.844 218.683 117.993C218.256 118.142 217.876 118.4 217.58 118.742C217.284 119.083 217.082 119.497 216.994 119.94C215.496 127.498 212.571 142.406 212.814 142.849C187.624 179.609 236.91 196.676 256.343 194.888C279.048 190.535 284.359 182.985 286.998 175.598C290.043 167.026 288.803 165.512 288.803 165.512L294.899 148.368C295.053 147.945 295.097 147.488 295.026 147.043C294.955 146.597 294.773 146.177 294.496 145.822C294.218 145.467 293.855 145.189 293.441 145.013C293.026 144.838 292.574 144.77 292.127 144.818Z" fill="#2A2460"/>
<path d="M255.183 177.681C253.208 178.575 251.797 178.682 251.212 178.003C250.5 177.189 250.849 175.389 251.084 174.853L251.198 174.703C251.295 174.578 251.347 174.425 251.347 174.268C251.347 174.11 251.295 173.957 251.199 173.832C251.109 173.698 250.978 173.599 250.825 173.55C250.673 173.501 250.508 173.504 250.357 173.561C250.149 173.657 249.979 173.821 249.873 174.025C248.447 175.875 246.971 176.725 245.595 176.561C242.323 176.197 239.95 170.776 239.95 170.705C239.912 170.617 239.858 170.537 239.79 170.47C239.722 170.404 239.641 170.351 239.553 170.316C239.465 170.28 239.371 170.262 239.275 170.264C239.18 170.265 239.086 170.285 238.998 170.323C238.911 170.36 238.832 170.415 238.765 170.483C238.698 170.551 238.646 170.632 238.611 170.72C238.575 170.808 238.558 170.903 238.559 170.999C238.56 171.094 238.579 171.188 238.617 171.276C238.724 171.533 241.325 177.519 245.395 178.011C246.111 178.077 246.833 177.992 247.515 177.762C248.196 177.532 248.822 177.161 249.352 176.675C249.338 177.175 249.437 177.671 249.638 178.129C249.841 178.586 250.142 178.992 250.521 179.318C250.945 179.595 251.422 179.779 251.922 179.859C252.422 179.939 252.933 179.912 253.422 179.782C254.236 179.612 255.028 179.349 255.782 178.996C255.87 178.959 255.949 178.904 256.016 178.835C256.083 178.766 256.135 178.685 256.169 178.596C256.204 178.506 256.22 178.411 256.217 178.315C256.214 178.219 256.192 178.126 256.152 178.039C256.114 177.949 256.058 177.869 255.988 177.803C255.918 177.736 255.835 177.685 255.744 177.651C255.653 177.618 255.557 177.604 255.46 177.609C255.364 177.614 255.27 177.639 255.183 177.681Z" fill="white"/>
<path fill-rule="evenodd" clip-rule="evenodd" d="M252.282 169.196C252.425 169.196 244.249 162.518 250.913 174.103C250.913 174.103 262.441 168.438 252.282 169.196Z" fill="url(#paint0_linear_11_764)"/>
<path fill-rule="evenodd" clip-rule="evenodd" d="M195.842 156.772C196.754 156.594 210.641 155.399 226.493 166.311C226.493 166.311 210.114 151.935 195.842 156.772Z" fill="white"/>
<path fill-rule="evenodd" clip-rule="evenodd" d="M195.084 167.915C195.868 167.479 208.236 162.299 225.793 167.661C225.793 167.661 206.775 159.278 195.084 167.915Z" fill="white"/>
<path fill-rule="evenodd" clip-rule="evenodd" d="M267.451 178.518C281.544 179.723 288.651 187.165 288.544 187.158C282.899 178.009 267.451 178.518 267.451 178.518Z" fill="white"/>
<path fill-rule="evenodd" clip-rule="evenodd" d="M267.23 179.575C279.726 184.759 284.06 193.673 283.967 193.637C281.445 183.559 267.23 179.575 267.23 179.575Z" fill="white"/>
<path opacity="0.21" fill-rule="evenodd" clip-rule="evenodd" d="M220.472 124.517C216.844 125.196 219.088 140.375 219.088 140.375C223.365 137.506 228.392 135.966 233.538 135.944C233.538 135.944 224.094 123.845 220.472 124.517Z" fill="white"/>
<path opacity="0.21" fill-rule="evenodd" clip-rule="evenodd" d="M288.005 149.77C285.575 149.056 278.025 151.914 278.025 151.914C282.794 152.756 285.609 158.592 285.609 158.592C285.609 158.592 290.443 150.47 288.005 149.77Z" fill="white"/>
</g>
<defs>
<linearGradient id="paint0_linear_11_764" x1="248.297" y1="170.689" x2="256.467" y2="170.69" gradientUnits="userSpaceOnUse">
<stop stop-color="#EC6588"/>
<stop offset="1" stop-color="#E71A80"/>
</linearGradient>
<clipPath id="clip0_11_764">
<rect width="510.083" height="359.924" fill="white" transform="matrix(-0.995776 -0.091813 -0.0918819 0.99577 541 47.5981)"/>
</clipPath>
</defs>
</svg>
