<svg width="140" height="140" viewBox="0 0 140 140" fill="none" xmlns="http://www.w3.org/2000/svg">
<rect width="140" height="140" fill="#E5E5E5"/>
<g id="1600" clip-path="url(#clip0_0_1)">
<rect width="1600" height="10898" transform="translate(-718 -5442)" fill="white"/>
<g id="6">
<circle id="Ellipse 55" opacity="0.5" cx="70" cy="70" r="70" fill="#FAF7F5"/>
<g id="Group 28" opacity="0.7">
<path id="Vector" d="M130.492 85.1588C124.888 86.6234 121.525 93.6233 123.889 98.8857C126.886 105.538 135.901 104.669 139.264 97.4212C139.97 95.8822 140.043 95.5347 140.043 93.251C140.043 91.0418 139.97 90.6198 139.361 89.3538C138.606 87.8148 137.314 86.4744 135.731 85.6553C134.585 85.0595 131.881 84.8113 130.492 85.1588ZM134.317 89.4531C135.584 90.3467 136.096 91.2155 136.218 92.7049C136.657 98.2403 130.029 101.889 127.568 97.446C125.229 93.251 130.589 86.8964 134.317 89.4531Z" fill="#F6A6BF"/>
<path id="Vector_2" d="M102.713 85.5814C101.227 86.1275 99.375 87.9396 98.5709 89.6027C97.9618 90.8686 97.8887 91.2906 97.8887 93.4998C97.8887 95.7835 97.9618 96.131 98.6684 97.67C100.252 101.096 103.322 103.33 106.709 103.503C109 103.627 110.535 103.106 112.119 101.666C115.871 98.2409 115.7 92.0105 111.753 87.9892C109.926 86.1275 108.171 85.3332 105.686 85.2587C104.394 85.2091 103.395 85.3332 102.713 85.5814ZM107.465 89.6275C109.438 90.67 110.681 92.631 110.876 94.9892C111.314 100.624 104.589 101.294 102.177 95.858C101.202 93.6488 101.714 90.8935 103.347 89.7516C104.443 89.0069 106.173 88.9573 107.465 89.6275Z" fill="#F6A6BF"/>
<path id="Vector_3" d="M144.186 101.889C140.994 102.733 138.703 104.57 137.315 107.475C136.437 109.237 136.389 109.51 136.389 111.595C136.389 113.457 136.486 114.053 136.949 114.996C137.68 116.51 138.923 117.801 140.482 118.645C141.603 119.24 142.017 119.315 144.088 119.315C146.281 119.315 146.501 119.265 148.231 118.397C155.126 114.921 156.052 105.687 149.863 102.585C148.06 101.666 145.989 101.418 144.186 101.889ZM148.426 106.233C150.009 107.425 150.472 109.138 149.79 111.223C148.767 114.4 144.771 116.386 142.115 115.021C139.508 113.705 139.483 110.006 142.09 107.425C143.869 105.663 146.915 105.092 148.426 106.233Z" fill="#F6A6BF"/>
<path id="Vector_4" d="M89.0925 102.807C87.192 103.427 85.5838 104.842 84.6823 106.729C84.0975 107.945 84 108.442 84 110.278C84 112.215 84.0731 112.537 84.9259 114.275C88.3372 121.325 97.572 122.218 100.886 115.839C101.471 114.747 101.544 114.325 101.544 112.239C101.519 110.179 101.446 109.708 100.837 108.466C99.4482 105.537 96.6217 103.204 93.6734 102.583C91.8947 102.211 90.8225 102.261 89.0925 102.807ZM94.2582 106.927C97.0603 108.293 98.5466 111.842 97.3283 114.225C96.7679 115.293 95.111 116.211 93.7465 116.211C90.8225 116.211 87.7768 113.034 87.7768 110.03C87.7768 108.665 88.8489 107.126 90.2134 106.555C91.0418 106.183 93.1373 106.381 94.2582 106.927Z" fill="#F6A6BF"/>
<path id="Vector_5" d="M115.58 108.418C112.363 109.287 109.196 111.992 107.709 115.194C106.857 116.982 106.808 117.031 105.054 117.9C103.762 118.521 102.788 119.24 101.667 120.407C94.8441 127.481 98.0605 139.148 107.515 141.655C110.755 142.524 114.971 141.705 117.724 139.719L118.967 138.801L120.209 139.719C122.914 141.705 126.91 142.474 130.273 141.68C135.95 140.315 139.922 135.152 139.922 129.169C139.922 124.528 137.022 119.911 132.855 117.875C131.052 116.982 131.028 116.957 130.2 115.169C128.713 111.893 125.326 109.088 121.891 108.294C120.331 107.921 117.139 107.996 115.58 108.418ZM121.988 112.513C124.4 113.407 126.569 115.864 127.276 118.446C127.69 119.935 128.08 120.382 129.444 120.779C131.296 121.35 132.417 122.045 133.66 123.386C135.414 125.297 135.901 126.538 135.901 129.244C135.901 131.13 135.804 131.676 135.268 132.868C134.366 134.829 133.075 136.169 131.199 137.113C129.737 137.857 129.371 137.932 127.373 137.932C125.472 137.932 125.01 137.832 123.816 137.262C123.06 136.864 121.842 135.946 121.087 135.201C119.259 133.364 118.699 133.364 116.822 135.201C116.067 135.971 114.824 136.889 114.093 137.262C112.924 137.832 112.461 137.932 110.56 137.932C108.709 137.932 108.148 137.832 107.003 137.286C105.078 136.368 103.762 135.052 102.836 133.141C102.105 131.627 102.032 131.279 102.032 129.244C102.057 126.538 102.544 125.272 104.274 123.386C105.517 122.045 106.637 121.35 108.489 120.779C109.854 120.382 110.244 119.935 110.658 118.446C111.364 115.889 113.533 113.432 115.872 112.513C117.602 111.843 120.234 111.818 121.988 112.513Z" fill="#F6A6BF"/>
</g>
<g id="1">
<path d="M73.44 57V85H68.24V61.36H62.32V57H73.44Z" fill="#E36F96"/>
<path d="M73.44 57V85H68.24V61.36H62.32V57H73.44Z" fill="black" fill-opacity="0.2"/>
</g>
</g>
</g>
<defs>
<clipPath id="clip0_0_1">
<rect width="1600" height="10898" fill="white" transform="translate(-718 -5442)"/>
</clipPath>
</defs>
</svg>
