<svg width="627" height="595" viewBox="0 0 627 595" fill="none" xmlns="http://www.w3.org/2000/svg">
<path fill-rule="evenodd" clip-rule="evenodd" d="M313.793 85.4628C369.959 91.2453 416.901 27.8243 472.767 36.0037C533.238 44.8573 614.335 71.1603 625.785 131.142C638.89 199.79 542.016 243.254 525.284 311.11C514.157 356.237 573.617 407.409 548.083 446.258C522.009 485.929 453.382 457.772 412.741 482.342C370.744 507.731 360.444 572.643 313.793 587.9C266.309 603.429 208.097 592.883 168.73 562.143C129.741 531.697 136.313 470.535 109.928 428.708C82.0556 384.522 26.037 360.942 10.3788 311.11C-6.89612 256.135 -1.79446 194.93 19.6623 141.445C42.56 84.3679 74.2485 12.7063 134.707 1.19928C200.649 -11.3514 247.019 78.5882 313.793 85.4628Z" fill="#F9EAEF" fill-opacity="0.3"/>
</svg>
