<svg width="355" height="343" viewBox="0 0 355 343" fill="none" xmlns="http://www.w3.org/2000/svg">
<path d="M150.508 53.6544C135.786 71.0145 140.815 101.219 160.339 112.907C185.05 127.661 212.1 104.542 206.509 73.5344C205.298 66.9672 204.747 65.6791 199.575 58.2964C194.573 51.1545 193.382 49.955 188.554 47.2348C182.638 43.9612 175.446 42.5372 168.494 43.4572C163.459 44.1113 154.191 49.402 150.508 53.6544ZM172.545 58.9187C178.647 58.9531 182.261 60.609 186.026 65.1493C199.973 82.0562 186.904 108.783 168.921 99.9636C151.892 91.6718 154.756 59.0521 172.545 58.9187Z" fill="white"/>
<path d="M62.0567 117.603C58.5094 122.717 56.6524 132.747 57.8304 139.935C58.7365 145.4 59.4568 146.929 64.4595 154.071C69.6309 161.453 70.6531 162.412 76.4125 165.795C89.2672 173.301 104.208 173.607 115.503 166.538C123.156 161.78 126.916 156.636 128.753 148.414C133.074 128.886 118.416 109.129 96.6051 105.021C86.5074 103.12 79.062 104.504 70.8939 109.863C66.6249 112.612 63.6905 115.264 62.0567 117.603ZM86.5121 119.979C95.2254 118.903 103.666 122.443 109.633 129.627C123.805 146.855 103.677 164.172 83.6025 152.033C75.4627 147.087 70.8703 137.026 73.5391 129.657C75.382 124.78 80.8378 120.722 86.5121 119.979Z" fill="white"/>
<path d="M232.471 76.8925C224.108 86.812 220.895 97.9102 223.002 110.428C224.169 118.102 224.631 119.094 229.353 125.835C233.568 131.853 235.231 133.56 238.857 135.566C244.639 138.814 251.561 140.188 258.492 139.403C263.448 138.804 264.95 138.111 271.617 133.445C278.675 128.505 279.268 127.85 282.869 121.144C297.194 94.3747 279.264 62.437 252.318 66.3492C244.434 67.4422 237.206 71.3057 232.471 76.8925ZM255.953 81.3842C263.749 81.6679 269.118 86.1619 271.644 94.4397C275.545 107.017 267.18 122.439 255.54 124.009C244.169 125.629 235.715 113.728 238.261 99.5083C239.995 89.8036 248.505 81.0962 255.953 81.3842Z" fill="white"/>
<path d="M57.2225 203.975C52.5106 210.262 50.5385 218.459 51.9087 226.589C52.7808 231.839 53.5913 233.663 57.7509 239.601C62.1353 245.861 63.1013 246.739 69.7809 250.435C96.7243 265.54 128.471 247.624 124.691 219.535C124.1 214.687 123.38 213.158 118.658 206.418C113.914 199.812 112.611 198.452 107.84 195.812C96.7367 189.472 82.3555 188.296 71.4607 192.932C64.8925 195.736 61.5541 198.312 57.2225 203.975ZM83.1798 205.658C95.2903 203.759 108.112 211.885 109.587 222.334C110.201 227.047 106.947 233.749 102.556 236.823C93.1444 243.41 76.1463 240 69.3448 230.29C66.2532 225.877 66.2189 218.486 69.3179 213.567C71.1412 210.497 78.3355 206.418 83.1798 205.658Z" fill="white"/>
<path d="M155.181 162.441C146.797 172.496 142.728 188.379 145.195 202.079C146.498 209.778 146.453 210.049 142.774 216.81C140.023 221.725 138.516 226.248 137.55 232.545C131.611 270.785 168.382 301.255 204.488 288.061C216.886 283.569 228.599 271.424 232.964 258.802L234.884 253.033L240.964 253.202C254.166 253.529 268.77 247.014 277.794 236.871C292.976 219.667 294.068 194.028 280.521 174.689C270.01 159.683 250.222 151.289 232.202 154.096C224.375 155.269 224.24 155.244 217.526 151.332C205.322 144.088 188.069 142.651 175.213 147.823C169.35 150.132 159.245 157.564 155.181 162.441ZM185.082 161.245C194.87 158.699 207.415 161.758 215.535 168.512C220.241 172.394 222.507 172.96 227.799 171.17C235.052 168.843 240.233 168.565 247.268 170.099C257.243 172.326 261.622 175.24 267.749 183.987C272.021 190.086 272.944 192.071 273.917 197.13C275.456 205.501 274.335 212.743 270.432 220.019C267.412 225.72 266.405 226.785 259.974 231.286C253.857 235.568 252.142 236.29 247.006 237.134C243.675 237.551 237.674 237.327 233.557 236.621C223.515 234.8 221.711 236.063 219.832 246.228C219.144 250.417 217.224 256.186 215.714 259.036C213.242 263.517 211.977 264.881 205.86 269.162C199.9 273.334 197.871 274.276 192.948 275.091C184.673 276.458 177.459 275.169 170.15 271.076C164.369 267.828 163.346 266.869 158.737 260.289C152.689 251.487 151.39 246.297 152.687 236.301C153.651 229.168 155.685 224.396 160.352 218.378C163.845 214.02 164.088 211.697 162.048 205.949C158.533 196.092 159.948 183.262 165.397 175.023C169.448 168.959 177.862 162.95 185.082 161.245Z" fill="white"/>
</svg>
