<svg width="25" height="25" viewBox="0 0 25 25" fill="none" xmlns="http://www.w3.org/2000/svg">
<g id="healthicons:geo-location-outline">
<g id="Group">
<path id="Vector" fill-rule="evenodd" clip-rule="evenodd" d="M8.08242 6.00781C8.66111 5.42478 9.34939 4.96195 10.1077 4.64597C10.8659 4.32999 11.6792 4.1671 12.5007 4.16667C14.1569 4.16667 15.7465 4.82812 16.9189 6.00781C18.093 7.1907 18.7515 8.79007 18.7507 10.4568C18.7507 13.3349 17.1548 15.9401 15.4923 17.8635C14.7917 18.6702 14.0322 19.4236 13.2199 20.1177C12.9251 20.3698 12.6783 20.5672 12.5007 20.7042C12.3236 20.5672 12.0762 20.3698 11.7814 20.1177C10.9691 19.4236 10.2096 18.6702 9.50899 17.8635C7.84649 15.9401 6.25065 13.3349 6.25065 10.4568C6.25065 8.7875 6.91003 7.1875 8.08242 6.00781ZM12.2007 21.7797L12.5007 21.3542L12.8007 21.7797C12.7128 21.8414 12.608 21.8745 12.5007 21.8745C12.3933 21.8745 12.2885 21.8414 12.2007 21.7797ZM12.2007 21.7797L12.5007 21.3542L12.8007 21.7797L12.8027 21.7786L12.8079 21.775L12.8236 21.763L12.885 21.7188C12.9371 21.6802 13.0132 21.624 13.109 21.55C13.3007 21.4031 13.5725 21.187 13.897 20.9094C14.7488 20.1813 15.5453 19.391 16.2798 18.5448C18.0027 16.5521 19.7923 13.7078 19.7923 10.4562C19.7923 8.51354 19.0246 6.64896 17.6579 5.27396C16.9824 4.59343 16.179 4.05322 15.2939 3.68441C14.4088 3.31561 13.4595 3.12549 12.5007 3.125C11.5418 3.12542 10.5925 3.31546 9.70745 3.68417C8.82235 4.05289 8.01891 4.59301 7.34336 5.27344C5.97535 6.65158 5.20807 8.51493 5.20899 10.4568C5.20899 13.7078 6.99857 16.5521 8.72149 18.5448C9.45605 19.391 10.2525 20.1813 11.1043 20.9094C11.4293 21.187 11.7007 21.4031 11.8923 21.55C11.9863 21.6224 12.0813 21.6936 12.1772 21.7635L12.1939 21.775L12.1986 21.7786L12.2007 21.7797ZM10.4173 10.4167C10.4173 9.86413 10.6368 9.33423 11.0275 8.94353C11.4182 8.55283 11.9481 8.33333 12.5007 8.33333C13.0532 8.33333 13.5831 8.55283 13.9738 8.94353C14.3645 9.33423 14.584 9.86413 14.584 10.4167C14.584 10.9692 14.3645 11.4991 13.9738 11.8898C13.5831 12.2805 13.0532 12.5 12.5007 12.5C11.9481 12.5 11.4182 12.2805 11.0275 11.8898C10.6368 11.4991 10.4173 10.9692 10.4173 10.4167ZM12.5007 7.29167C11.6719 7.29167 10.877 7.62091 10.2909 8.20696C9.70489 8.79301 9.37565 9.58786 9.37565 10.4167C9.37565 11.2455 9.70489 12.0403 10.2909 12.6264C10.877 13.2124 11.6719 13.5417 12.5007 13.5417C13.3295 13.5417 14.1243 13.2124 14.7104 12.6264C15.2964 12.0403 15.6257 11.2455 15.6257 10.4167C15.6257 9.58786 15.2964 8.79301 14.7104 8.20696C14.1243 7.62091 13.3295 7.29167 12.5007 7.29167Z" fill="#F6A6BF"/>
</g>
</g>
</svg>
