<svg width="30" height="30" viewBox="0 0 30 30" fill="none" xmlns="http://www.w3.org/2000/svg">
<g id="ant-design:instagram-outlined">
<path id="Vector" d="M14.9989 8.9912C11.6737 8.9912 8.99013 11.6748 8.99013 15C8.99013 18.3252 11.6737 21.0088 14.9989 21.0088C18.3241 21.0088 21.0077 18.3252 21.0077 15C21.0077 11.6748 18.3241 8.9912 14.9989 8.9912ZM14.9989 18.9053C12.8485 18.9053 11.0936 17.1504 11.0936 15C11.0936 12.8496 12.8485 11.0947 14.9989 11.0947C17.1493 11.0947 18.9042 12.8496 18.9042 15C18.9042 17.1504 17.1493 18.9053 14.9989 18.9053ZM21.2538 7.34471C20.4774 7.34471 19.8505 7.97167 19.8505 8.74803C19.8505 9.5244 20.4774 10.1514 21.2538 10.1514C22.0302 10.1514 22.6571 9.52733 22.6571 8.74803C22.6574 8.56368 22.6212 8.3811 22.5508 8.21073C22.4803 8.04037 22.377 7.88558 22.2466 7.75522C22.1163 7.62486 21.9615 7.5215 21.7911 7.45106C21.6207 7.38062 21.4382 7.34448 21.2538 7.34471ZM26.7118 15C26.7118 13.3828 26.7265 11.7803 26.6356 10.166C26.5448 8.291 26.1171 6.62694 24.746 5.25585C23.372 3.88182 21.7108 3.45702 19.8358 3.3662C18.2186 3.27538 16.6161 3.29003 15.0018 3.29003C13.3847 3.29003 11.7821 3.27538 10.1679 3.3662C8.29286 3.45702 6.6288 3.88475 5.25771 5.25585C3.88368 6.62987 3.45888 8.291 3.36806 10.166C3.27724 11.7832 3.29189 13.3857 3.29189 15C3.29189 16.6142 3.27724 18.2197 3.36806 19.834C3.45888 21.709 3.88661 23.373 5.25771 24.7441C6.63173 26.1182 8.29286 26.543 10.1679 26.6338C11.7851 26.7246 13.3876 26.7099 15.0018 26.7099C16.619 26.7099 18.2216 26.7246 19.8358 26.6338C21.7108 26.543 23.3749 26.1152 24.746 24.7441C26.12 23.3701 26.5448 21.709 26.6356 19.834C26.7294 18.2197 26.7118 16.6172 26.7118 15ZM24.1337 21.9082C23.9198 22.4414 23.662 22.8398 23.2489 23.25C22.8358 23.6631 22.4403 23.9209 21.9071 24.1348C20.3661 24.7471 16.7069 24.6094 14.9989 24.6094C13.2909 24.6094 9.6288 24.7471 8.08779 24.1377C7.55458 23.9238 7.15615 23.666 6.74599 23.2529C6.3329 22.8398 6.07509 22.4443 5.86122 21.9111C5.25185 20.3672 5.38954 16.708 5.38954 15C5.38954 13.292 5.25185 9.62987 5.86122 8.08885C6.07509 7.55565 6.3329 7.15721 6.74599 6.74706C7.15907 6.3369 7.55458 6.07616 8.08779 5.86229C9.6288 5.25292 13.2909 5.39061 14.9989 5.39061C16.7069 5.39061 20.369 5.25292 21.9101 5.86229C22.4433 6.07616 22.8417 6.33397 23.2518 6.74706C23.6649 7.16014 23.9227 7.55565 24.1366 8.08885C24.746 9.62987 24.6083 13.292 24.6083 15C24.6083 16.708 24.746 20.3672 24.1337 21.9082Z" fill="white"/>
</g>
</svg>
