<svg width="45" height="45" viewBox="0 0 45 45" fill="none" xmlns="http://www.w3.org/2000/svg">
<path d="M11.9083 3.4805C9.1573 3.87601 7.25007 4.6055 5.43074 5.97659C1.17683 9.16702 -0.791918 14.502 0.315504 19.8281C0.790113 22.1485 2.01179 24.5303 3.57625 26.2002C4.0157 26.666 7.38191 29.4785 12.963 34.0489C17.753 37.96 21.796 41.2559 21.963 41.3701C22.3848 41.6602 22.6749 41.625 23.1759 41.2471C23.4044 41.0713 27.3595 37.8457 31.9561 34.084C37.9327 29.1973 40.5694 26.9824 41.1934 26.3408C43.0128 24.4512 44.1729 22.2188 44.7442 19.5117C45.0343 18.1758 45.0343 15.6533 44.7442 14.3262C44.2081 11.7862 43.1095 9.58889 41.4659 7.76077C39.5323 5.59866 37.2647 4.29788 34.3643 3.68265C33.1075 3.41019 30.6993 3.39261 29.3985 3.6387C27.043 4.07816 24.9776 5.07132 23.1583 6.65335L22.4464 7.26858L21.8048 6.66214C20.2755 5.22952 18.1661 4.18362 15.8282 3.68265C15.0108 3.51566 12.5675 3.38382 11.9083 3.4805ZM14.9141 5.3262C15.4239 5.39651 16.2413 5.58987 16.7423 5.75686C18.4913 6.32815 19.6954 7.06643 21.172 8.48147C22.086 9.35159 22.1563 9.40432 22.5079 9.40432C22.8595 9.40432 22.921 9.36038 23.7647 8.53421C25.5401 6.79397 27.1837 5.90628 29.5303 5.39651C30.5587 5.168 32.9581 5.168 33.9952 5.39651C36.3595 5.90628 38.2667 6.96096 39.9014 8.66604C40.8243 9.62405 41.3692 10.3799 41.9141 11.4522C43.294 14.1592 43.5753 17.5781 42.6612 20.5137C42.0723 22.377 41.2198 23.836 39.919 25.1719C39.5938 25.5059 35.5421 28.8809 30.9014 32.669L22.4815 39.5596L22.0684 39.2168C21.8487 39.0323 17.9815 35.8682 13.4815 32.1944C8.33113 27.9844 5.10554 25.2862 4.78035 24.917C3.39168 23.3438 2.47761 21.5244 2.003 19.3535C1.72175 18.1055 1.73054 15.7149 2.003 14.4317C2.36336 12.7705 3.01375 11.2676 3.92781 10.002C4.51668 9.1846 5.65047 8.00686 6.37117 7.46194C8.78816 5.63382 11.838 4.86917 14.9141 5.3262Z" fill="#F6A6BF"/>
<path d="M17.5339 10.9336C15.3806 11.4521 14.2468 13.8779 15.2224 15.8906C15.4949 16.4619 16.2859 17.2354 16.9187 17.5342C17.3933 17.7715 17.5339 17.7891 18.3689 17.7979C19.1863 17.7979 19.3445 17.7715 19.8015 17.5605C20.5046 17.2266 21.2165 16.5322 21.5593 15.8291C21.8142 15.293 21.8406 15.1875 21.8318 14.3701C21.8318 13.2451 21.6208 12.6826 20.9617 11.9707C20.0828 11.0127 18.7908 10.626 17.5339 10.9336ZM19.3708 12.8936C20.0564 13.377 20.3113 14.3086 19.9597 15.0732C19.2917 16.5234 17.1033 16.3652 16.6902 14.8271C16.5056 14.124 16.7605 13.3066 17.2966 12.9375C17.9294 12.498 18.782 12.4805 19.3708 12.8936Z" fill="#F6A6BF"/>
<path d="M25.8389 10.8984C24.8193 11.1182 23.8877 11.8564 23.4307 12.832C23.1758 13.3594 23.1582 13.4736 23.1582 14.3262C23.1582 15.1787 23.1758 15.293 23.4307 15.8203C24.1602 17.3672 25.9355 18.1758 27.5615 17.7188C28.6074 17.4199 29.4863 16.6113 29.8906 15.583C30.3037 14.5283 30.1016 13.0957 29.4072 12.1904C28.6338 11.1709 27.1309 10.6348 25.8389 10.8984ZM27.2891 12.7354C28.001 13.0518 28.4756 13.8867 28.3437 14.5811C28.1855 15.416 27.5967 15.9873 26.8145 16.0664C26.2783 16.1191 25.8301 15.9697 25.4258 15.6182C25.0303 15.2754 24.8721 14.8975 24.8721 14.3262C24.8721 13.0518 26.1465 12.2168 27.2891 12.7354Z" fill="#F6A6BF"/>
<path d="M11.7332 16.7256C10.8103 17.0332 10.1775 17.5693 9.80835 18.3604C9.53588 18.958 9.54467 20.3555 9.82592 20.9268C10.1511 21.5859 10.5906 22.0254 11.2322 22.3418C11.7595 22.6055 11.8914 22.6318 12.6121 22.6318C13.3416 22.6318 13.447 22.6055 13.9568 22.333C14.616 21.9727 15.0554 21.5068 15.363 20.8389C15.697 20.1357 15.6882 19.1514 15.363 18.4395C15.0554 17.7803 14.5017 17.2002 13.9128 16.9014C13.3328 16.6201 12.3044 16.541 11.7332 16.7256ZM13.1306 18.4922C13.9832 18.8437 14.1062 20.127 13.3416 20.6631C12.99 20.918 12.4099 20.9795 12.0671 20.7949C11.5837 20.5488 11.3376 20.1709 11.3376 19.6699C11.3376 18.6768 12.2078 18.1055 13.1306 18.4922Z" fill="#F6A6BF"/>
<path d="M31.2709 16.8135C30.4184 17.1739 29.8471 17.7715 29.5219 18.6153C29.1352 19.6436 29.4428 21.0059 30.2338 21.7969C31.517 23.0801 33.7934 22.8956 34.848 21.4102C35.4369 20.584 35.5687 19.3272 35.1732 18.4307C34.9184 17.8682 34.2592 17.1827 33.6791 16.9014C32.976 16.5586 31.9652 16.5235 31.2709 16.8135ZM33.0551 18.5713C33.8812 19.125 33.8285 20.3204 32.9496 20.7598C31.8422 21.3311 30.6469 20.0655 31.2885 19.002C31.6664 18.3868 32.475 18.1846 33.0551 18.5713Z" fill="#F6A6BF"/>
<path d="M21.7344 19.5205C18.2012 19.8545 15.2393 22.4033 14.2197 25.9805C14.0615 26.543 14.0264 26.9033 14.0176 27.9053C14.0176 29.1094 14.0264 29.1446 14.2988 29.7334C14.835 30.8672 15.9951 31.7285 17.1992 31.9043C17.5684 31.9571 18.4033 31.9043 20.1963 31.7285L22.6748 31.4737L24.7227 31.6934C27.2978 31.9658 28.1064 31.9834 28.7129 31.7461C29.8115 31.3242 30.4971 30.709 30.9629 29.7246C31.6396 28.2832 31.2529 25.6553 30.084 23.7041C29.6094 22.9219 28.6162 21.8057 27.8603 21.2256C26.1641 19.916 23.958 19.3096 21.7344 19.5205ZM24.3008 21.4541C27.3066 22.1836 29.5303 24.9434 29.5303 27.9492C29.5303 28.8633 29.3369 29.3291 28.7568 29.7686C28.1504 30.2344 27.8867 30.2432 25.1182 29.9619L22.6396 29.7071L20.1436 29.9619C17.9814 30.1817 17.5859 30.208 17.2168 30.1114C16.2764 29.8653 15.7314 29.083 15.7314 27.9932C15.7314 24.5918 18.4736 21.6123 21.9102 21.2783C22.7539 21.1992 23.4482 21.2432 24.3008 21.4541Z" fill="#F6A6BF"/>
</svg>
