<svg width="22" height="22" viewBox="0 0 22 22" fill="none" xmlns="http://www.w3.org/2000/svg">
<g id="fluent:call-connecting-20-regular">
<g id="Group">
<path id="Vector" d="M7.18926 2.3287C6.04526 2.0383 4.84626 2.1615 3.90686 2.6873C2.94986 3.2219 2.27886 4.1701 2.24586 5.4384C2.19526 7.42059 2.65396 10.0804 4.47556 13.2022C6.27406 16.2855 8.25956 18.1335 9.90736 19.2313C10.948 19.9254 12.0975 19.9441 13.0798 19.492C14.0478 19.0465 14.8332 18.1566 15.2413 17.0533C15.3428 16.7789 15.3836 16.4857 15.3608 16.194C15.338 15.9023 15.2522 15.619 15.1093 15.3637L14.0599 13.4904C13.7371 12.9144 13.2179 12.4737 12.597 12.2489C11.9762 12.0241 11.2952 12.0302 10.6785 12.2661L9.94586 12.5466C9.59056 12.6819 9.26386 12.6192 9.07906 12.4366C8.45756 11.8261 8.01316 10.9978 7.81186 10.1046C7.74806 9.823 7.87786 9.4908 8.18806 9.25649L8.84916 8.7571C9.38362 8.3538 9.75259 7.76936 9.88685 7.11341C10.0211 6.45746 9.91147 5.77506 9.57846 5.1942L8.50926 3.3297C8.36761 3.08285 8.17775 2.86702 7.95098 2.69505C7.72421 2.52309 7.46517 2.3985 7.18926 2.3287ZM3.34586 5.467C3.36786 4.6156 3.79906 4.0073 4.44366 3.6465C5.10586 3.2758 6.01006 3.1625 6.91866 3.3935C7.18816 3.4617 7.41696 3.6355 7.55556 3.8764L8.62366 5.7409C8.82343 6.08927 8.8893 6.49855 8.8089 6.89201C8.72851 7.28547 8.50738 7.63611 8.18696 7.8782L7.52586 8.3776C6.95386 8.8088 6.55786 9.54799 6.73826 10.3455C6.98246 11.4257 7.52256 12.4498 8.30796 13.2209C8.88216 13.7841 9.70056 13.8171 10.3386 13.5729L11.0712 13.2924C11.4413 13.1507 11.8501 13.147 12.2227 13.2819C12.5954 13.4168 12.907 13.6814 13.1007 14.0272L14.149 15.9005C14.281 16.1359 14.303 16.4175 14.2095 16.6705C13.8905 17.534 13.291 18.1819 12.62 18.491C11.9633 18.7935 11.2208 18.7847 10.5179 18.315C9.00976 17.3096 7.14086 15.5848 5.42486 12.6467C3.70776 9.69979 3.30076 7.2424 3.34696 5.4681L3.34586 5.467Z" fill="#F6A6BF"/>
<path id="Vector_2" d="M14.0185 2.2693C13.891 2.19841 13.7406 2.18107 13.6003 2.22109C13.46 2.26111 13.3414 2.35521 13.2705 2.4827C13.1996 2.61019 13.1823 2.76062 13.2223 2.9009C13.2623 3.04118 13.3564 3.15981 13.4839 3.2307L13.9063 3.4661C15.2259 4.19915 16.3483 5.24079 17.1778 6.502C18.0072 7.76321 18.519 9.20649 18.6693 10.7085L18.7045 11.055C18.7086 11.1292 18.7278 11.2017 18.7607 11.2683C18.7937 11.3349 18.8398 11.3941 18.8963 11.4423C18.9527 11.4906 19.0184 11.5269 19.0893 11.5491C19.1601 11.5713 19.2348 11.5789 19.3087 11.5715C19.3826 11.5641 19.4542 11.5417 19.5193 11.5059C19.5843 11.47 19.6414 11.4213 19.6871 11.3628C19.7328 11.3042 19.7662 11.237 19.7853 11.1652C19.8043 11.0934 19.8086 11.0185 19.7979 10.945L19.7638 10.5996C19.596 8.92055 19.024 7.30712 18.0969 5.89723C17.1697 4.48735 15.9149 3.32296 14.4398 2.5036L14.0185 2.2693Z" fill="#F6A6BF"/>
<path id="Vector_3" d="M12.7286 5.21728C12.8038 5.09229 12.9255 5.00226 13.067 4.96698C13.2085 4.93171 13.3582 4.95408 13.4832 5.02918L13.6196 5.11058C14.5073 5.64305 15.2689 6.36192 15.8515 7.21751C16.4342 8.07311 16.8242 9.04502 16.9944 10.0661L17.0428 10.3598C17.0567 10.4318 17.056 10.5059 17.0408 10.5776C17.0256 10.6494 16.9962 10.7173 16.9543 10.7776C16.9124 10.8378 16.8589 10.889 16.797 10.9282C16.735 10.9675 16.6658 10.9939 16.5935 11.006C16.5212 11.0181 16.4471 11.0157 16.3758 10.9987C16.3044 10.9818 16.2372 10.9508 16.178 10.9075C16.1188 10.8642 16.0688 10.8095 16.0311 10.7466C15.9934 10.6837 15.9686 10.6139 15.9582 10.5413L15.9087 10.2476C15.7648 9.38369 15.435 8.56134 14.9422 7.83737C14.4493 7.1134 13.8052 6.50506 13.0542 6.05438L12.9178 5.97188C12.8558 5.93477 12.8018 5.8858 12.7587 5.82779C12.7157 5.76978 12.6845 5.70385 12.6669 5.63378C12.6493 5.5637 12.6457 5.49085 12.6563 5.41939C12.6669 5.34793 12.6915 5.27925 12.7286 5.21728Z" fill="#F6A6BF"/>
</g>
</g>
</svg>
