<svg width="23" height="23" viewBox="0 0 23 23" fill="none" xmlns="http://www.w3.org/2000/svg">
<g id="ant-design:clock-circle-outlined">
<path id="Vector" d="M11.5 1.4375C5.94316 1.4375 1.4375 5.94316 1.4375 11.5C1.4375 17.0568 5.94316 21.5625 11.5 21.5625C17.0568 21.5625 21.5625 17.0568 21.5625 11.5C21.5625 5.94316 17.0568 1.4375 11.5 1.4375ZM11.5 19.8555C6.88652 19.8555 3.14453 16.1135 3.14453 11.5C3.14453 6.88652 6.88652 3.14453 11.5 3.14453C16.1135 3.14453 19.8555 6.88652 19.8555 11.5C19.8555 16.1135 16.1135 19.8555 11.5 19.8555Z" fill="#F6A6BF"/>
<path id="Vector_2" d="M15.4239 14.3435L12.221 12.0278V6.46875C12.221 6.36992 12.1401 6.28906 12.0413 6.28906H10.9609C10.8621 6.28906 10.7812 6.36992 10.7812 6.46875V12.6545C10.7812 12.7129 10.8082 12.7668 10.8554 12.8005L14.5704 15.5093C14.6513 15.5677 14.7636 15.5497 14.822 15.4711L15.4643 14.5951C15.5227 14.512 15.5048 14.3997 15.4239 14.3435Z" fill="#F6A6BF"/>
</g>
</svg>
