<svg width="283" height="206" viewBox="0 0 283 206" fill="none" xmlns="http://www.w3.org/2000/svg">
<g opacity="0.8" clip-path="url(#clip0_3012_50)">
<path d="M25.9859 53.5808L35.3132 185.588C35.4808 187.952 36.4843 190.171 38.1331 191.822C39.7818 193.474 41.9608 194.443 44.2563 194.545L250.322 203.695C252.627 203.796 254.887 203.017 256.67 201.507C258.453 199.997 259.635 197.862 259.988 195.51L282.884 42.9127C283.097 41.4965 283.002 40.0492 282.607 38.6754C282.211 37.3016 281.524 36.0358 280.596 34.9695C279.668 33.9031 278.522 33.0629 277.241 32.5096C275.96 31.9562 274.575 31.7036 273.188 31.77L34.8835 43.2205C33.6347 43.2818 32.4104 43.6005 31.2828 44.1577C30.1551 44.7149 29.147 45.4994 28.3178 46.4649C27.4886 47.4304 26.8551 48.5574 26.4546 49.7795C26.0541 51.0016 25.8947 52.2941 25.9859 53.5808Z" fill="#FAF7F5"/>
<path d="M195.945 41.0788C203.68 38.6095 208.047 30.2554 205.697 22.4194C203.348 14.5834 195.173 10.2328 187.438 12.7021C179.702 15.1713 175.336 23.5254 177.685 31.3615C180.035 39.1975 188.21 43.5481 195.945 41.0788Z" fill="#FAF7F5"/>
<path d="M39.0744 126.061C36.0412 138.122 24.9899 145.592 14.4139 142.754C3.83784 139.916 -2.26916 127.829 0.764118 115.774C3.7974 103.718 14.8486 96.2425 25.4247 99.0804C36.0007 101.918 42.1178 114 39.0744 126.061Z" fill="#FAF7F5"/>
<path d="M254.443 128.277C253.992 128.279 253.545 128.18 253.134 127.986C252.724 127.792 252.359 127.509 252.065 127.155C251.771 126.801 251.555 126.385 251.433 125.937C251.31 125.489 251.283 125.018 251.354 124.558L265.414 30.8095C265.667 29.1224 265.554 27.3982 265.083 25.7618C264.611 24.1253 263.793 22.6175 262.688 21.3473C261.582 20.0772 260.217 19.0765 258.69 18.4178C257.164 17.759 255.515 17.4586 253.862 17.5383L212.66 19.5207C212.25 19.5402 211.84 19.4762 211.454 19.3324C211.068 19.1885 210.713 18.9676 210.41 18.6823C210.107 18.397 209.861 18.0528 209.687 17.6695C209.512 17.2861 209.413 16.8711 209.394 16.4481C209.375 16.025 209.437 15.6023 209.576 15.204C209.716 14.8057 209.93 14.4397 210.206 14.1267C210.483 13.8138 210.816 13.5601 211.188 13.3802C211.559 13.2003 211.962 13.0976 212.372 13.0781L253.574 11.101C256.154 10.9763 258.728 11.4453 261.111 12.474C263.493 13.5027 265.624 15.0653 267.349 17.0487C269.075 19.0321 270.351 21.3866 271.085 23.9416C271.82 26.4966 271.994 29.1882 271.596 31.8215L257.527 125.549C257.414 126.309 257.04 127.002 256.475 127.502C255.909 128.003 255.188 128.277 254.443 128.277Z" fill="#F6A6BF"/>
<path d="M208.149 191.598H208.013L35.0348 183.913C30.7691 183.723 26.7198 181.922 23.6562 178.853C20.5926 175.785 18.7283 171.661 18.4175 167.267L17.2952 151.325C17.2504 150.895 17.29 150.46 17.4116 150.046C17.5332 149.632 17.7343 149.247 18.0029 148.915C18.2715 148.583 18.6022 148.31 18.9752 148.113C19.3482 147.915 19.7559 147.797 20.174 147.765C20.5921 147.734 21.0121 147.79 21.409 147.929C21.8058 148.069 22.1714 148.289 22.484 148.577C22.7965 148.866 23.0496 149.216 23.2282 149.607C23.4068 149.999 23.5073 150.423 23.5235 150.856L24.6509 166.777C24.8481 169.594 26.0425 172.239 28.0066 174.207C29.9707 176.175 32.5675 177.329 35.3028 177.45L208.286 185.15C208.696 185.159 209.101 185.251 209.476 185.421C209.852 185.591 210.192 185.836 210.476 186.142C210.76 186.448 210.983 186.808 211.132 187.203C211.281 187.597 211.353 188.018 211.344 188.441C211.336 188.865 211.246 189.282 211.081 189.67C210.916 190.058 210.679 190.408 210.383 190.701C210.087 190.994 209.737 191.224 209.355 191.378C208.973 191.532 208.565 191.606 208.154 191.598H208.149Z" fill="#F6A6BF"/>
<path d="M15.489 84.7763C14.7006 84.7757 13.9417 84.4671 13.3648 83.9126C12.788 83.358 12.4361 82.5986 12.3799 81.7872L9.7763 44.9629C9.60774 42.5701 9.90518 40.1667 10.6511 37.8944C11.397 35.6221 12.5762 33.527 14.1193 31.7324C15.6624 29.9379 17.538 28.4804 19.6357 27.4457C21.7333 26.4111 24.0105 25.8203 26.333 25.7082L165.818 19.0101C166.236 18.9759 166.656 19.0287 167.053 19.1653C167.45 19.3019 167.817 19.5195 168.131 19.8052C168.445 20.0909 168.7 20.4388 168.882 20.8283C169.063 21.2178 169.166 21.6409 169.186 22.0725C169.206 22.5041 169.141 22.9354 168.996 23.3407C168.851 23.7461 168.628 24.1172 168.342 24.432C168.055 24.7468 167.71 24.9989 167.327 25.1734C166.943 25.3478 166.53 25.441 166.112 25.4474L26.6211 32.1508C25.1318 32.2213 23.6713 32.599 22.3258 33.2617C20.9804 33.9245 19.7773 34.8587 18.7876 36.0093C17.7979 37.1598 17.0418 38.5034 16.5638 39.9606C16.0858 41.4178 15.8957 42.9591 16.0046 44.4934L18.6031 81.3177C18.663 82.1698 18.3926 83.0116 17.8513 83.6582C17.3101 84.3047 16.5422 84.7031 15.7165 84.7659L15.489 84.7763Z" fill="#F6A6BF"/>
<path d="M189.822 30.6996C186.642 30.7147 183.54 29.6793 180.97 27.7448C178.4 25.8104 176.498 23.0783 175.541 19.9481C174.717 17.0195 174.743 13.9059 175.616 10.9924C176.489 8.07898 178.17 5.49345 180.452 3.55565C182.734 1.61785 185.516 0.412785 188.455 0.0895156C191.394 -0.233754 194.36 0.338947 196.986 1.73679C198.733 2.65681 200.283 3.92911 201.545 5.47838C202.806 7.02765 203.754 8.8224 204.332 10.7564C205.473 14.6766 205.06 18.9037 203.184 22.5104C201.309 26.1172 198.123 28.809 194.327 29.9953C192.868 30.4605 191.35 30.6978 189.822 30.6996ZM190.085 6.44741C189.177 6.44866 188.273 6.5911 187.406 6.86996C185.186 7.54376 183.317 9.099 182.208 11.1941C181.099 13.2892 180.841 15.7529 181.491 18.044C182.241 20.2771 183.802 22.1221 185.845 23.1893C187.889 24.2566 190.254 24.4626 192.442 23.7638C194.63 23.065 196.469 21.5162 197.57 19.4443C198.672 17.3725 198.95 14.94 198.346 12.6604C198.016 11.541 197.47 10.502 196.741 9.60561C196.012 8.70921 195.115 7.97391 194.104 7.44379C192.86 6.78848 191.483 6.44701 190.085 6.44741Z" fill="#F6A6BF"/>
<path d="M22.9671 136.609C21.3174 136.609 19.6745 136.392 18.0784 135.962C15.3356 135.21 12.7788 133.866 10.5773 132.017C8.37585 130.169 6.57989 127.86 5.30831 125.242C2.65423 119.785 2.01135 113.52 3.49925 107.61C4.98715 101.701 8.50453 96.5511 13.3971 93.1178C15.7459 91.4761 18.4055 90.3673 21.2003 89.8646C23.995 89.3619 26.8614 89.4768 29.6099 90.2017C40.8482 93.2273 47.3799 105.94 44.195 118.554C41.4549 129.337 32.5168 136.609 22.9671 136.609ZM24.7112 96.0287C21.9075 96.0519 19.1722 96.9244 16.8449 98.5379C13.2484 101.096 10.6633 104.903 9.56162 109.264C8.45992 113.626 8.9151 118.251 10.844 122.294C11.7192 124.107 12.9564 125.708 14.4743 126.992C15.9922 128.276 17.7563 129.214 19.6507 129.744C27.5372 131.867 35.8282 126.123 38.1486 116.953C40.464 107.777 35.9343 98.59 28.0377 96.4721C26.9516 96.179 25.8338 96.0299 24.7112 96.0287Z" fill="#F6A6BF"/>
<path d="M272.348 180.611C272.272 194.695 262.186 206.073 249.821 206C237.455 205.927 227.496 194.445 227.577 180.35C227.658 166.254 237.743 154.893 250.104 154.96C262.464 155.028 272.424 166.52 272.348 180.611Z" fill="#FAF7F5"/>
<path d="M249.002 197.069H248.88C245.729 197.035 242.62 196.311 239.759 194.946C236.898 193.581 234.35 191.606 232.283 189.15C227.916 184.039 225.55 177.434 225.645 170.621C225.721 156.16 236.211 144.449 249.042 144.449H249.168C252.319 144.483 255.428 145.207 258.288 146.572C261.148 147.937 263.695 149.912 265.76 152.368C270.128 157.479 272.496 164.084 272.403 170.897C272.322 185.353 261.837 197.069 249.002 197.069ZM249.042 150.886C239.639 150.886 231.95 159.754 231.889 170.652C231.808 175.867 233.61 180.926 236.944 184.847C238.431 186.628 240.268 188.064 242.332 189.06C244.397 190.055 246.642 190.587 248.921 190.621H249.007C258.415 190.621 266.099 181.753 266.16 170.855C266.243 165.64 264.44 160.58 261.104 156.661C259.617 154.881 257.781 153.447 255.718 152.453C253.654 151.458 251.41 150.926 249.133 150.891L249.042 150.886Z" fill="#F6A6BF"/>
</g>
<path d="M233.574 11.164C231.922 11.5508 230.891 12.1015 229.777 13.2148C228.535 14.4453 227.727 15.8633 227.293 17.5625C227.07 18.4531 227.094 20.7851 227.328 21.8984C227.434 22.3789 227.562 23.082 227.598 23.4453L227.68 24.1015L227.117 24.1836C223.848 24.6406 220.754 25.7656 218.293 27.4062C217.098 28.2031 215.352 29.8086 214.695 30.6992C214.402 31.0976 214.227 31.25 214.133 31.1679C213.816 30.8984 212.082 30.3242 211.098 30.1367C209.832 29.914 209.387 29.9726 208.648 30.4414C208.027 30.8398 207.488 31.789 207.254 32.8906C207.031 33.9687 207.184 37.3203 207.547 39.3125C207.816 40.789 208.602 44.0937 208.871 44.8672C208.965 45.1133 208.848 45.4297 208.203 46.6836L207.441 48.207L206.797 48.125C205.941 48.0312 203.82 48.0078 203.574 48.1015C203.281 48.2187 203.023 48.8281 203.105 49.2031C203.246 49.8476 203.504 49.9414 205.168 50.0351C206.012 50.082 206.727 50.1406 206.75 50.1758C206.785 50.1992 206.75 50.375 206.68 50.5625C206.469 51.0898 206.094 53.5039 206.094 54.2656C206.094 54.9453 206.082 54.957 205.719 55.0859C205.508 55.1679 204.875 55.4492 204.324 55.7187C203.316 56.2343 203.047 56.5156 203.047 57.0664C203.047 57.3711 203.656 57.9922 203.961 57.9922C204.102 57.9922 204.641 57.7812 205.168 57.5234C206.199 57.0312 206.316 57.0429 206.328 57.6406C206.34 57.8047 206.539 58.5078 206.773 59.2226L207.207 60.5L206.199 61.5078C205.484 62.2226 205.098 62.7148 204.828 63.2773C203.398 66.2422 204.113 68.5976 206.855 69.957C208.309 70.6836 209.68 70.9179 212.246 70.9297C214.707 70.9297 215.492 70.7656 217.32 69.875L218.422 69.3476L219.781 69.6992C223.285 70.6015 226.016 70.9297 230.059 70.9297C234.102 70.9297 236.832 70.6015 240.336 69.6992L241.695 69.3476L242.797 69.875C244.625 70.7656 245.41 70.9297 247.871 70.9297C250.426 70.9179 251.75 70.6836 253.238 69.9687C255.992 68.6211 256.719 66.2539 255.289 63.2773C255.02 62.7148 254.633 62.2226 253.906 61.4961L252.887 60.4765L253.121 59.914C253.238 59.5976 253.473 58.8476 253.625 58.2383C253.777 57.6289 253.93 57.1133 253.953 57.0898C253.977 57.0547 254.422 57.2539 254.949 57.5117C255.465 57.7812 256.004 57.9922 256.145 57.9922C256.449 57.9922 257.07 57.3828 257.07 57.0664C257.07 56.5156 256.801 56.2343 255.793 55.7187C255.242 55.4492 254.609 55.1679 254.41 55.0859C254.035 54.957 254.023 54.9453 254.023 54.2656C254.023 53.5039 253.648 51.0898 253.438 50.5625C253.367 50.375 253.332 50.1992 253.367 50.1758C253.391 50.1406 254.105 50.082 254.949 50.0351C256.613 49.9414 256.871 49.8476 257.012 49.2031C257.094 48.8281 256.836 48.2187 256.543 48.1015C256.297 48.0078 254.176 48.0312 253.32 48.125L252.676 48.207L251.926 46.6953L251.188 45.1836L251.609 43.6484C253.414 37.039 253.52 32.3984 251.867 30.7461C251.188 30.0664 250.543 29.9023 249.324 30.0898C248.34 30.2422 247.109 30.6172 246.324 31.0156L245.832 31.2734L245.422 30.6992C244.754 29.7968 242.984 28.1797 241.801 27.4062C239.797 26.0703 237.148 24.9687 234.781 24.5L233.691 24.2773L233.562 23C233.48 22.2968 233.34 21.2773 233.223 20.7265C233 19.625 233.047 18.9687 233.387 18.289C233.691 17.6797 234.348 17.1289 234.863 17.0234C235.59 16.8945 236.844 17.3398 238.062 18.1718C238.812 18.6875 239.352 18.875 240.09 18.875C242.316 18.875 243.699 16.5898 242.715 14.5625C242.469 14.0586 242.211 13.7773 241.613 13.332C240.617 12.5937 238.742 11.6562 237.617 11.3515C236.48 11.0351 234.523 10.9414 233.574 11.164ZM237.488 13.414C238.508 13.7539 240.125 14.6445 240.699 15.1836C241.086 15.5703 241.121 16.1093 240.77 16.5547C240.418 17 239.82 16.9765 239.129 16.4726C238.332 15.9101 236.832 15.2422 236.035 15.0898C234.195 14.75 232.637 15.5117 231.711 17.1992C231.02 18.4765 230.926 19.3906 231.277 21.2539C231.406 21.8984 231.547 22.7773 231.582 23.2109L231.664 24.0078H230.668H229.672L229.602 23.3281C229.555 22.9648 229.414 22.0742 229.273 21.3711C228.852 19.0859 229.168 17.3281 230.305 15.6523C231.945 13.25 234.547 12.4414 237.488 13.414ZM232.73 26.1758C237.242 26.7617 241.18 28.7422 243.605 31.6367L244.062 32.1875L243.207 32.6914C242.75 32.9609 241.742 33.6054 240.98 34.1093L239.598 35.0351L238.754 34.6953C235.801 33.4765 232.801 32.9609 229.297 33.0664C226.438 33.1484 224.012 33.6406 221.551 34.625L220.531 35.0234L219.441 34.2851C218.832 33.875 217.824 33.2304 217.203 32.8554L216.066 32.1758L216.406 31.7539C217.309 30.6172 218.727 29.4453 220.273 28.5312C223.707 26.4922 228.406 25.6133 232.73 26.1758ZM211.215 32.2109C211.754 32.3398 212.516 32.5859 212.914 32.7734C214.039 33.289 216.582 34.7773 218.445 36.0195C219.477 36.7109 220.227 37.1328 220.414 37.1328C220.578 37.1328 221.105 36.9687 221.574 36.7695C224.609 35.4687 227.387 34.9531 230.703 35.0586C233.598 35.1523 235.52 35.5508 238.145 36.6172C238.859 36.8984 239.586 37.1328 239.773 37.1328C239.984 37.1328 240.523 36.8398 241.344 36.2656C245.516 33.3945 249.43 31.5781 250.379 32.082C250.977 32.4101 251.211 34.8945 250.871 37.4843C250.648 39.125 250.086 41.7383 249.605 43.3789C248.984 45.5 248.984 45.4765 249.676 46.6953C249.992 47.2695 250.344 47.9258 250.438 48.1601L250.613 48.5703L249.254 48.9687C247.695 49.414 245.117 50.6445 244.484 51.2304C244.039 51.6523 243.969 51.9687 244.203 52.4023C244.578 53.1172 245.07 53.1172 246.359 52.3789C247.965 51.4531 251.105 50.3164 251.34 50.5742C251.539 50.8086 252.16 54.2773 252.02 54.4179C251.996 54.4414 251.469 54.3828 250.859 54.289C249.465 54.0898 247.121 53.9492 246.723 54.0547C246.395 54.1367 246.055 54.6523 246.055 55.0625C246.055 55.2031 246.195 55.4609 246.383 55.6367C246.688 55.9414 246.781 55.9648 248.105 56.0351C249.5 56.1172 251.773 56.4101 251.902 56.5273C251.984 56.6211 251.715 57.8984 251.41 58.789C251.141 59.6211 251.258 59.5859 249.98 59.2343C249.066 58.9765 247.074 58.9648 246.113 59.2226C242.621 60.125 239.855 63.3945 240.113 66.3008C240.16 66.7226 240.219 67.2148 240.254 67.3789C240.336 67.6718 240.312 67.6836 238.941 67.9883C235.73 68.7265 233.715 68.9375 230.059 68.9375C226.402 68.9375 224.387 68.7265 221.176 67.9883C219.805 67.6836 219.781 67.6718 219.863 67.3789C219.898 67.2148 219.957 66.7226 220.004 66.3008C220.262 63.3593 217.543 60.1601 214.004 59.2226C213.055 58.9648 211.062 58.9765 210.137 59.2343C208.895 59.5742 208.977 59.5976 208.766 58.9648C208.508 58.2265 208.203 57.0195 208.203 56.7383C208.203 56.539 208.332 56.4804 209 56.375C210.172 56.164 211.801 56 212.633 56C213.301 56 213.418 55.9648 213.723 55.6601C213.91 55.4726 214.062 55.2031 214.062 55.0625C214.062 54.6523 213.723 54.1367 213.395 54.0547C212.996 53.9492 210.652 54.0898 209.258 54.289C208.648 54.3828 208.121 54.4414 208.098 54.4179C207.957 54.2773 208.578 50.8086 208.777 50.5742C209.012 50.3164 212.152 51.4531 213.758 52.3789C215.047 53.1172 215.539 53.1172 215.914 52.4023C216.301 51.6875 215.891 51.207 214.098 50.2929C212.715 49.5781 211.262 49.0156 210.113 48.7343L209.504 48.5937L209.68 48.1718C209.773 47.9258 210.113 47.2812 210.43 46.7187C210.758 46.1445 211.016 45.5468 211.016 45.3711C211.016 45.1836 210.805 44.3047 210.535 43.4023C210.008 41.5508 209.457 38.9258 209.246 37.2265C209.059 35.6093 209.152 33.0898 209.422 32.5625C209.785 31.8828 209.82 31.8711 211.215 32.2109ZM213.723 61.2265C216.277 61.9765 218.363 64.5195 218 66.4648C217.848 67.2734 216.57 68.2929 215.352 68.5742L215.059 68.6445V67.1328C215.059 65.7031 215.047 65.6093 214.777 65.3281C214.379 64.9062 213.746 64.9062 213.348 65.3281C213.102 65.5976 213.066 65.7383 213.031 66.875C212.984 68.5273 212.961 68.6328 212.48 68.8554C212.141 69.0195 212.035 69.0195 211.707 68.8906C211.168 68.6679 211.016 68.1875 211.016 66.7578C211.016 65.6914 210.992 65.539 210.758 65.2929C210.395 64.9062 209.738 64.9297 209.363 65.3281C209.094 65.6093 209.082 65.7031 209.082 67.1328V68.6445L208.789 68.5742C207.547 68.2929 206.305 67.3086 206.141 66.4883C205.93 65.3515 206.445 64.0742 207.547 62.9609C208.859 61.6484 210.266 61.0508 212.023 61.039C212.656 61.039 213.336 61.1093 213.723 61.2265ZM249.699 61.2265C251.844 61.8593 253.801 63.8281 253.988 65.5508C254.082 66.3711 253.941 66.875 253.426 67.4258C253.004 67.8828 252.043 68.4101 251.328 68.5742L251.035 68.6445V67.1328C251.035 65.7031 251.023 65.6093 250.754 65.3281C250.391 64.9414 249.758 64.9179 249.371 65.2812C249.125 65.5156 249.102 65.6328 249.102 66.7461C249.102 68.1875 248.949 68.6679 248.41 68.8906C248.082 69.0195 247.977 69.0195 247.637 68.8554C247.156 68.6328 247.133 68.5273 247.086 66.875C247.051 65.7383 247.016 65.5976 246.77 65.3281C246.371 64.9062 245.738 64.9062 245.34 65.3281C245.07 65.6093 245.059 65.7031 245.059 67.1328L245.07 68.6445L244.766 68.5742C244.074 68.4218 242.996 67.8125 242.609 67.3437C241.941 66.5703 241.906 65.5976 242.492 64.4023C243.125 63.0781 244.602 61.8359 246.137 61.3203C247.121 60.9804 248.727 60.9453 249.699 61.2265Z" fill="#241D50"/>
<path d="M218.059 46.2853C216.934 46.5783 216.395 46.8478 216.184 47.2228C215.867 47.7853 216.348 48.6174 216.992 48.6174C217.168 48.6174 217.614 48.5119 218 48.3713C218.387 48.2306 219.137 48.1017 219.711 48.0666C221.422 47.9611 222.266 48.4299 222.934 49.8713C223.145 50.34 223.426 50.7736 223.555 50.8439C223.953 51.0549 224.375 50.9728 224.75 50.6095C225.184 50.1759 225.16 49.8244 224.657 48.7931C224.024 47.5158 222.969 46.6017 221.692 46.2267C220.813 45.9689 219.149 45.9924 218.059 46.2853Z" fill="#241D50"/>
<path d="M237.418 46.215C235.813 46.7072 234.289 48.3947 234.125 49.8478C234.078 50.2814 234.113 50.3986 234.371 50.6564C234.957 51.2423 235.789 50.9376 236.094 50.0236C236.305 49.3908 237.078 48.5236 237.676 48.254C238.332 47.9494 239.668 47.9611 240.723 48.2775C242.059 48.6759 242.363 48.6876 242.703 48.3361C243.008 48.0431 243.09 47.5744 242.938 47.1525C242.832 46.883 242.129 46.5548 241.063 46.2736C239.996 46.004 238.191 45.9689 237.418 46.215Z" fill="#241D50"/>
<path d="M227.48 52.1795C226.438 52.6834 225.898 53.6912 226.156 54.6873C226.25 55.0858 226.508 55.4491 227.223 56.2225C227.75 56.7733 228.371 57.3592 228.605 57.5233L229.051 57.8162L229.062 59.5741C229.062 61.1795 229.039 61.3905 228.805 61.8592C228.652 62.1405 228.395 62.4686 228.23 62.5975C227.586 63.0662 226.543 63.0662 225.91 62.5975C225.289 62.1287 225.16 61.8123 225.078 60.617C225.008 59.6209 224.973 59.4569 224.738 59.2694C224.293 58.9061 223.719 58.9412 223.355 59.3514C223.121 59.6092 223.086 59.7733 223.086 60.6873C223.086 62.0233 223.379 62.8553 224.129 63.6522C225.641 65.2694 228.043 65.41 229.684 63.9686L230.082 63.6287L230.34 63.8983C230.727 64.3084 231.617 64.7537 232.367 64.9061C233.645 65.1639 235.027 64.6834 235.988 63.6522C236.738 62.8553 237.031 62.0233 237.031 60.6873C237.031 59.7733 236.996 59.6092 236.773 59.3514C236.398 58.9412 235.824 58.9061 235.379 59.2694C235.145 59.4569 235.109 59.6209 235.039 60.617C234.957 61.8123 234.828 62.1287 234.207 62.5975C233.574 63.0662 232.531 63.0662 231.887 62.5975C231.723 62.4686 231.465 62.1405 231.324 61.8592C231.078 61.3905 231.055 61.1795 231.055 59.5741L231.066 57.8162L231.512 57.5233C231.746 57.3592 232.367 56.7733 232.895 56.2225C233.609 55.4491 233.867 55.0858 233.961 54.6873C234.184 53.8319 233.809 52.953 233 52.3905C232.543 52.0741 232.543 52.0741 230.188 52.0506C228.348 52.0272 227.75 52.0506 227.48 52.1795ZM231.945 54.1366C232.051 54.3123 230.34 55.9998 230.059 55.9998C229.777 55.9998 228.066 54.3123 228.172 54.1366C228.23 54.0545 228.828 54.0077 230.059 54.0077C231.289 54.0077 231.887 54.0545 231.945 54.1366Z" fill="#241D50"/>
<defs>
<clipPath id="clip0_3012_50">
<rect width="283" height="206" fill="white"/>
</clipPath>
</defs>
</svg>
