<svg width="167" height="36" viewBox="0 0 167 36" fill="none" xmlns="http://www.w3.org/2000/svg">
<g id="logo 1" clip-path="url(#clip0_21_213)">
<path id="Vector" fill-rule="evenodd" clip-rule="evenodd" d="M152.658 20.7913C152.81 19.2205 153.278 17.6975 154.033 16.3159C154.27 15.8116 154.65 15.3903 155.126 15.1057C155.601 14.8212 156.149 14.6863 156.701 14.7183C157.229 14.761 157.73 14.9743 158.13 15.3269C158.529 15.6794 158.805 16.1524 158.918 16.676C159.341 18.1683 159.429 19.7375 159.173 21.2683C159.033 22.8503 158.572 24.3861 157.818 25.78C157.58 26.2764 157.201 26.6897 156.729 26.9672C156.257 27.2448 155.714 27.3739 155.169 27.3381C154.638 27.2934 154.136 27.0768 153.736 26.7205C153.337 26.3642 153.062 25.8871 152.952 25.3602C152.529 23.8765 152.429 22.3179 152.658 20.7913ZM166.904 21.8331C167.112 20.4386 167.023 19.0154 166.644 17.6583C166.265 16.3011 165.605 15.041 164.707 13.9618C163.79 12.8494 162.653 11.9438 161.369 11.3036C160.084 10.6634 158.681 10.3029 157.25 10.2453C154.279 9.98747 151.326 10.9203 149.029 12.8427C147.894 13.738 146.947 14.8528 146.243 16.1221C145.539 17.3913 145.092 18.7897 144.928 20.2354C144.721 21.6313 144.811 23.056 145.194 24.4136C145.576 25.7712 146.241 27.0305 147.145 28.1067C148.066 29.2183 149.207 30.123 150.494 30.763C151.782 31.403 153.187 31.7641 154.621 31.8232C157.603 32.1018 160.574 31.1748 162.882 29.2451C164.002 28.3379 164.934 27.2162 165.624 25.9443C166.314 24.6724 166.749 23.2753 166.904 21.8331ZM143.593 28.027C140.637 26.0558 138.792 23.7382 138.059 21.0741C141.407 19.4757 143.212 17.5577 143.475 15.3201C143.574 14.6847 143.537 14.0354 143.368 13.4153C143.199 12.7953 142.901 12.2189 142.494 11.7245C142.056 11.2346 141.515 10.8507 140.91 10.6016C140.306 10.3525 139.653 10.2444 139.002 10.2855C137.939 10.2827 136.9 10.6029 136.019 11.2048C135.645 11.3968 135.319 11.6734 135.067 12.013C134.815 12.3526 134.644 12.7462 134.567 13.1634L134.92 13.8023C135.18 14.2253 135.397 14.6739 135.568 15.1413C135.738 15.683 135.723 16.2665 135.528 16.7993C135.271 17.5161 134.78 18.1225 134.135 18.5178C133.361 19.0237 132.493 19.3638 131.585 19.5168L132.056 16.2402C132.196 15.4709 132.179 14.6809 132.007 13.9183C131.835 13.1557 131.511 12.4367 131.054 11.805C130.6 11.2558 130.024 10.8216 129.374 10.5371C128.723 10.2526 128.016 10.1256 127.309 10.1663C126.214 10.1799 125.143 10.4904 124.208 11.0654C123.362 11.4909 122.663 12.1671 122.207 13.0038C122.18 13.0495 122.164 13.1 122.157 13.1525C122.151 13.2049 122.156 13.2581 122.171 13.3087C122.186 13.3593 122.211 13.4062 122.244 13.4466C122.278 13.4871 122.319 13.5201 122.366 13.5436C122.575 13.6903 122.823 13.8568 123.111 14.0431C123.518 14.4711 123.761 15.0304 123.798 15.6222C123.972 16.7672 123.979 17.9317 123.818 19.0785L122.205 30.937V31.0176L122.323 31.0981H129.857C129.895 31.0866 129.929 31.0659 129.957 31.0378C129.985 31.0096 130.005 30.975 130.017 30.937L131.155 22.7459C131.27 22.7126 131.388 22.6925 131.508 22.6863C131.667 22.6726 131.783 22.6661 131.861 22.6661C131.861 22.7988 131.874 23.1119 131.901 23.6055C131.927 24.0991 131.947 24.4721 131.96 24.7246C131.973 24.9776 132.012 25.3704 132.078 25.9033C132.123 26.3286 132.203 26.7495 132.317 27.1617C132.408 27.4678 132.539 27.8543 132.709 28.321C132.846 28.7267 133.052 29.1052 133.317 29.4393C133.594 29.7622 133.889 30.0691 134.2 30.3585C134.54 30.6825 134.94 30.9338 135.378 31.0973C135.882 31.2772 136.401 31.412 136.928 31.5002C137.576 31.6095 138.234 31.6497 138.89 31.6202C140.661 31.4935 142.324 30.711 143.56 29.4224C143.819 29.2005 143.998 28.8987 144.071 28.5635C143.977 28.3338 143.809 28.1434 143.593 28.0237V28.027ZM118.359 22.9924C118.568 21.1544 119.144 17.1986 120.086 11.125V11.0445L119.968 10.9244H112.077L111.881 11.1661L110.547 22.1545C110.425 23.154 110.075 24.1113 109.526 24.9518C108.873 25.9911 108.193 26.4438 107.486 26.3101C106.779 26.1764 106.504 25.4037 106.662 23.9922L107.604 16.241C107.743 15.4643 107.711 14.6661 107.511 13.9032C107.311 13.1402 106.947 12.4311 106.446 11.826C105.949 11.2744 105.338 10.84 104.656 10.5534C103.975 10.2669 103.239 10.1353 102.502 10.1679C101.413 10.1798 100.348 10.4906 99.4208 11.067C98.5822 11.4965 97.8915 12.1722 97.4395 13.0055C97.3979 13.0761 97.383 13.1596 97.3977 13.2405C97.4123 13.3214 97.4555 13.3942 97.5191 13.4453C97.7014 13.582 97.8991 13.6961 98.1081 13.7853C98.4179 13.9504 98.676 14.1995 98.8534 14.5048C99.1329 14.9954 99.307 15.54 99.3643 16.1032C99.4672 17.0936 99.4538 18.0929 99.3244 19.0801L98.5784 25.3135C98.28 26.9694 98.6397 28.6774 99.5794 30.0669C99.9815 30.6479 100.519 31.1196 101.145 31.4402C101.771 31.7608 102.465 31.9203 103.166 31.9046C104.448 31.8734 105.697 31.4865 106.777 30.7864C108.133 29.909 109.264 28.7172 110.074 27.3099C110.106 28.5831 110.626 29.7938 111.525 30.6864C112.437 31.5175 113.635 31.955 114.861 31.9054C115.95 31.8932 117.015 31.5825 117.943 31.0063C118.781 30.577 119.472 29.9016 119.924 29.0687C119.951 29.026 119.969 28.9782 119.976 28.9283C119.984 28.8783 119.981 28.8273 119.968 28.7785C119.955 28.7297 119.933 28.6841 119.901 28.6446C119.87 28.6051 119.831 28.5726 119.787 28.549C119.591 28.4161 119.342 28.2356 119.041 28.0092C118.645 27.5906 118.403 27.048 118.354 26.4712C118.194 25.3161 118.196 24.1439 118.359 22.9892V22.9924ZM94.0665 1.13246C93.8679 1.23752 93.6776 1.35792 93.4974 1.49259C93.1312 1.74036 92.7515 1.96711 92.3601 2.17176C91.7846 2.44095 91.1777 2.63558 90.554 2.75103C89.696 2.92923 88.8199 3.0028 87.9446 2.97017C86.1434 2.87715 84.3551 2.60952 82.6046 2.17095C80.6212 1.69776 78.5977 1.41693 76.5616 1.33226H75.6585C72.1788 1.43968 69.6148 2.69168 67.9665 5.08824C67.1297 6.31338 66.7766 7.33899 66.9073 8.16506C66.9599 8.45832 67.0898 8.57836 67.2994 8.52438C67.576 8.37961 67.8444 8.21957 68.1036 8.04501C68.7751 7.65761 69.4945 7.36178 70.2428 7.16523C71.2917 6.88088 72.3746 6.7453 73.4604 6.7624C75.2361 6.81958 77.0029 7.04017 78.739 7.42143C80.6229 7.81029 82.5304 8.07057 84.4488 8.20051C88.9233 8.30793 91.9977 7.20229 93.6719 4.88361C94.0517 4.44637 94.3298 3.92879 94.4859 3.36879C94.642 2.8088 94.6722 2.22058 94.5742 1.64727C94.4716 1.19718 94.3024 1.02557 94.0665 1.13246ZM93.7134 22.9489L94.4586 16.7155C94.619 15.8984 94.6167 15.0571 94.4516 14.241C94.2866 13.4248 93.9622 12.6501 93.4974 11.9621C93.0891 11.3772 92.5441 10.9033 91.9108 10.5827C91.2776 10.262 90.5758 10.1046 89.8678 10.1244C88.5637 10.1636 87.2954 10.5644 86.2015 11.283C84.8149 12.1814 83.6745 13.4182 82.8851 14.8794C82.8254 13.5792 82.3028 12.3446 81.4138 11.403C81.0006 10.9843 80.5074 10.6551 79.9642 10.4352C79.4211 10.2154 78.8393 10.1097 78.2544 10.1244C76.9734 10.1632 75.7263 10.5498 74.6439 11.2435C73.2752 12.1058 72.1419 13.301 71.3475 14.7199C71.3155 13.45 70.8019 12.2412 69.9128 11.3434C68.9968 10.5063 67.791 10.0685 66.5574 10.1252C65.4629 10.1386 64.392 10.4491 63.457 11.0243C62.6153 11.4403 61.9276 12.118 61.4947 12.9579C61.4678 13.0006 61.45 13.0484 61.4423 13.0983C61.4347 13.1483 61.4374 13.1993 61.4503 13.2482C61.4632 13.2971 61.486 13.3427 61.5172 13.3822C61.5485 13.4216 61.5875 13.4541 61.6318 13.4776C61.8279 13.6108 62.0766 13.7907 62.3778 14.0174C62.7703 14.436 63.0062 14.9799 63.0449 15.5554C63.1901 16.71 63.1834 17.879 63.025 19.0318C62.8157 20.8692 62.2532 24.825 61.3377 30.8991V30.9797L61.4541 31.0981H69.3446C69.3957 31.0729 69.4424 31.0391 69.4824 30.9982C69.5011 30.9803 69.516 30.9587 69.5261 30.9347C69.5363 30.9107 69.5415 30.8849 69.5414 30.8589L70.835 20.1517C70.9623 19.0661 71.3096 18.0187 71.8552 17.0748C72.5353 16.0361 73.2157 15.5833 73.8963 15.7165C74.6551 15.8497 74.9426 16.6223 74.7587 18.0344C74.7056 18.7267 74.6012 19.6723 74.4455 20.8711C74.2096 22.6027 73.8172 25.946 73.2683 30.9008C73.262 30.9054 73.2569 30.9115 73.2534 30.9185C73.2499 30.9255 73.2481 30.9332 73.2481 30.941C73.2481 30.9489 73.2499 30.9566 73.2534 30.9636C73.2569 30.9706 73.262 30.9767 73.2683 30.9813L73.3854 31.0981H81.2759C81.3271 31.0728 81.3737 31.0391 81.4138 30.9982C81.4325 30.9803 81.4474 30.9587 81.4575 30.9347C81.4676 30.9107 81.4728 30.8849 81.4728 30.8589L82.375 20.8687L82.4547 20.1492C82.5497 19.0565 82.8996 18.002 83.4757 17.0724C84.1553 16.0337 84.8354 15.5809 85.5161 15.7141C86.2748 15.8473 86.5628 16.6199 86.38 18.032L85.438 25.7832C85.2986 26.56 85.33 27.3583 85.53 28.1214C85.73 28.8846 86.0937 29.5939 86.5952 30.199C87.0861 30.7479 87.6904 31.181 88.3653 31.4676C89.0402 31.7541 89.7692 31.8871 90.5006 31.8571C91.5951 31.8433 92.6658 31.5328 93.601 30.958C94.434 30.5465 95.1195 29.8831 95.5625 29.0598C95.6151 28.9927 95.6404 28.9077 95.6331 28.8224C95.6259 28.737 95.5866 28.6577 95.5234 28.6006C95.3461 28.4514 95.1475 28.33 94.9344 28.2405C94.6249 28.0755 94.3668 27.8266 94.1892 27.5218C93.9083 27.0303 93.7281 26.4867 93.6592 25.9234C93.5432 24.934 93.5614 23.9333 93.7134 22.9489ZM45.9529 20.7913C46.104 19.2201 46.5716 17.6968 47.3269 16.3151C47.5642 15.8108 47.9448 15.3895 48.4201 15.1049C48.8954 14.8203 49.4438 14.6855 49.9954 14.7175C50.5238 14.7602 51.0247 14.9735 51.424 15.3261C51.8232 15.6786 52.0998 16.1516 52.2127 16.6752C52.6354 18.1676 52.7226 19.7367 52.4677 21.2675C52.3273 22.8495 51.866 24.3853 51.1128 25.7792C50.8744 26.2755 50.4952 26.6888 50.0235 26.9663C49.5518 27.2439 49.0089 27.373 48.4643 27.3373C47.9333 27.2926 47.4307 27.0761 47.0311 26.7198C46.6316 26.3635 46.3563 25.8864 46.2462 25.3594C45.8242 23.8758 45.7241 22.3176 45.9529 20.7913ZM60.1988 21.8331C60.4058 20.4386 60.317 19.0155 59.9381 17.6584C59.5593 16.3013 58.8991 15.0411 58.0014 13.9618C57.0849 12.8494 55.9476 11.9438 54.6631 11.3036C53.3786 10.6634 51.9755 10.3029 50.5445 10.2453C47.5731 9.98747 44.6205 10.9203 42.3233 12.8427C41.1883 13.738 40.2412 14.8528 39.5372 16.1221C38.8331 17.3913 38.3862 18.7897 38.2226 20.2354C38.0154 21.6313 38.106 23.0559 38.4883 24.4135C38.8706 25.7711 39.5358 27.0304 40.4391 28.1067C41.3605 29.2183 42.5015 30.123 43.7889 30.763C45.0762 31.403 46.4817 31.7641 47.9151 31.8232C50.8977 32.1017 53.868 31.1747 56.1762 29.2451C57.296 28.3378 58.2277 27.2161 58.918 25.9442C59.6083 24.6723 60.0435 23.2752 60.1988 21.8331ZM37.0853 26.9087C35.952 26.45 34.9187 25.7712 34.0438 24.9107C33.2335 24.1476 32.5332 23.2733 31.9636 22.3132C31.473 21.4464 31.0593 20.5372 30.7274 19.5965C30.4703 18.9121 30.2542 18.2126 30.0803 17.5018C29.9878 17.0593 29.9286 16.7306 29.9025 16.5157C34.0624 14.4376 36.3778 11.5075 36.8485 7.72517C36.9734 6.96605 36.946 6.18932 36.768 5.44112C36.59 4.69292 36.265 3.98852 35.8124 3.36977C35.3726 2.78091 34.7974 2.30937 34.1366 1.99602C33.4758 1.68266 32.7493 1.53696 32.0202 1.57154C31.1786 1.57792 30.3461 1.74749 29.5678 2.07105C28.8808 2.32231 28.2432 2.69434 27.6844 3.16997C27.2524 3.56958 27.1151 3.86257 27.2724 4.04894C27.9157 4.95011 28.259 6.03463 28.2527 7.1459C28.2866 8.31514 28.0795 9.47872 27.6446 10.5627C27.2206 11.6175 26.5636 12.5603 25.7238 13.3189C24.9689 14.0526 23.9654 14.4673 22.9183 14.4782L24.3314 2.81064C24.3454 2.78615 24.3527 2.75836 24.3527 2.73008C24.3527 2.70179 24.3454 2.67401 24.3314 2.64951L24.2094 2.61004H24.1728L24.0931 2.57056C23.4124 2.30201 22.5816 2.01546 21.6008 1.71092C20.6199 1.40638 19.0894 1.04679 17.0092 0.632143C15.0841 0.236078 13.1266 0.0221912 11.1622 -0.00674438C9.24787 -0.00178861 7.35122 0.36406 5.56956 1.07203C3.76677 1.72072 2.21408 2.93087 1.13496 4.52831C0.507609 5.46239 0.123799 6.54151 0.0191297 7.66555C-0.0968474 8.836 0.078502 10.0172 0.529224 11.1017C0.981963 12.2277 1.75325 13.1937 2.74653 13.8788C3.61714 14.4998 4.61743 14.91 5.66999 15.0776C6.60301 15.2425 7.56024 15.2018 8.47629 14.9584C9.23629 14.7507 9.96794 14.4487 10.6545 14.0593C11.1847 13.7699 11.657 13.3836 12.0477 12.9201C12.3353 12.5904 12.5495 12.2022 12.6758 11.7817C12.7111 11.6835 12.7188 11.5774 12.6979 11.4751C12.6771 11.3729 12.6286 11.2784 12.5578 11.2024C12.4271 11.095 12.2047 10.9352 11.8907 10.723C11.6004 10.5319 11.3477 10.2879 11.1455 10.0036C10.8939 9.77852 10.6988 9.49636 10.576 9.18026C10.4532 8.86417 10.4064 8.52315 10.4393 8.1852C10.5194 7.52887 10.7624 6.90365 11.1455 6.36763C11.6117 5.75572 12.2572 5.30825 12.9898 5.08905C13.8757 4.79255 14.8232 4.73698 15.7371 4.92792C15.7111 5.19647 15.1487 9.25162 14.0498 17.0934C12.951 24.9351 12.3352 29.5376 12.2023 30.9008C12.1884 30.9253 12.181 30.953 12.181 30.9813C12.181 31.0096 12.1884 31.0374 12.2023 31.0619L12.3203 31.1022H20.6802C20.7089 31.1049 20.7379 31.102 20.7654 31.0934C20.7929 31.0849 20.8186 31.0709 20.8408 31.0524C20.863 31.0338 20.8814 31.011 20.8948 30.9853C20.9083 30.9595 20.9166 30.9314 20.9193 30.9024L22.3707 18.7554C22.9988 18.676 23.3651 18.6222 23.4698 18.5943C23.5479 20.8324 23.6276 22.2176 23.7089 22.7499C24.049 25.893 24.8991 28.277 26.2594 29.9017C27.6196 31.5265 29.6342 32.1925 32.3031 31.8998C33.4203 31.7701 34.4662 31.2796 35.2856 30.5012C36.0303 29.8662 36.6209 29.0668 37.0119 28.1647C37.2973 27.4047 37.3212 26.9847 37.0837 26.9047L37.0853 26.9087Z" fill="#F6A6BF"/>
</g>
<defs>
<clipPath id="clip0_21_213">
<rect width="167" height="35.2174" fill="white"/>
</clipPath>
</defs>
</svg>
