<svg width="70" height="57" viewBox="0 0 70 57" fill="none" xmlns="http://www.w3.org/2000/svg">
<rect width="70" height="57" fill="#E5E5E5"/>
<g id="1600" clip-path="url(#clip0_0_1)">
<rect width="1600" height="10898" transform="translate(-802 -5527)" fill="white"/>
<g id="6">
<circle id="Ellipse 55" opacity="0.5" cx="-14" cy="-15" r="70" fill="#FAF7F5"/>
<g id="Group 28" opacity="0.7">
<path id="Vector" d="M46.4919 0.158827C40.8877 1.62336 37.5251 8.62333 39.8887 13.8857C42.8857 20.5382 51.9012 19.6694 55.2638 12.4212C55.9704 10.8822 56.0435 10.5347 56.0435 8.25099C56.0435 6.04178 55.9704 5.6198 55.3612 4.35384C54.6059 2.81484 53.3145 1.47442 51.7307 0.655277C50.5855 0.059536 47.8808 -0.18869 46.4919 0.158827ZM50.3174 4.45313C51.5845 5.34675 52.0962 6.21554 52.218 7.70489C52.6566 13.2403 46.029 16.8893 43.568 12.446C41.2288 8.25099 46.5894 1.89641 50.3174 4.45313Z" fill="#F6A6BF"/>
<path id="Vector_2" d="M18.7132 0.581415C17.2268 1.12751 15.375 2.93956 14.5709 4.60268C13.9618 5.86863 13.8887 6.29061 13.8887 8.49982C13.8887 10.7835 13.9618 11.131 14.6684 12.67C16.2522 16.0955 19.3223 18.3296 22.7092 18.5033C24.9997 18.6274 26.5347 18.1062 28.1186 16.6665C31.871 13.2409 31.7004 7.01047 27.7531 2.98921C25.9256 1.12751 24.1712 0.333189 21.6859 0.25872C20.3945 0.209076 19.3954 0.333189 18.7132 0.581415ZM23.4646 4.6275C25.4383 5.67005 26.6809 7.63103 26.8759 9.98918C27.3145 15.6239 20.5894 16.2941 18.1771 10.858C17.2025 8.64876 17.7142 5.89345 19.3467 4.75161C20.4432 4.00693 22.1732 3.95729 23.4646 4.6275Z" fill="#F6A6BF"/>
<path id="Vector_3" d="M60.1859 16.8895C56.9939 17.7334 54.7035 19.5703 53.3146 22.4746C52.4374 24.237 52.3887 24.51 52.3887 26.5951C52.3887 28.4568 52.4861 29.0526 52.9491 29.9958C53.6801 31.51 54.9228 32.8008 56.4822 33.6447C57.603 34.2405 58.0173 34.3149 60.0884 34.3149C62.2814 34.3149 62.5007 34.2653 64.2307 33.3965C71.1263 29.9213 72.0522 20.6873 65.8632 17.5845C64.0601 16.6661 61.989 16.4179 60.1859 16.8895ZM64.4256 21.2334C66.0094 22.4249 66.4724 24.1377 65.7901 26.2228C64.7667 29.4001 60.7707 31.3859 58.1147 30.0206C55.5075 28.705 55.4832 25.0065 58.0904 22.4249C59.8691 20.6625 62.9149 20.0916 64.4256 21.2334Z" fill="#F6A6BF"/>
<path id="Vector_4" d="M5.09254 17.8069C3.19198 18.4274 1.5838 19.8423 0.682254 21.7289C0.0974649 22.9452 0 23.4416 0 25.2785C0 27.2146 0.0730987 27.5373 0.925917 29.2749C4.33719 36.3245 13.572 37.2181 16.8858 30.8387C17.4706 29.7465 17.5437 29.3246 17.5437 27.2395C17.5193 25.1792 17.4462 24.7076 16.8371 23.4664C15.4482 20.5374 12.6217 18.204 9.67339 17.5835C7.89466 17.2111 6.82254 17.2608 5.09254 17.8069ZM10.2582 21.9274C13.0603 23.2927 14.5466 26.8423 13.3283 29.2253C12.7679 30.2926 11.111 31.2111 9.74649 31.2111C6.82254 31.2111 3.77677 28.0338 3.77677 25.0303C3.77677 23.665 4.84888 22.126 6.21339 21.5551C7.04184 21.1828 9.13734 21.3813 10.2582 21.9274Z" fill="#F6A6BF"/>
<path id="Vector_5" d="M31.5798 23.4177C28.3634 24.2865 25.1958 26.9922 23.7095 30.1943C22.8567 31.9815 22.8079 32.0312 21.0536 32.8999C19.7622 33.5205 18.7875 34.2404 17.6667 35.407C10.8441 42.4815 14.0605 54.1481 23.5146 56.6552C26.7553 57.524 30.9706 56.7048 33.724 54.719L34.9667 53.8006L36.2094 54.719C38.914 56.7048 42.9101 57.4743 46.2726 56.68C51.95 55.3147 55.9216 50.1516 55.9216 44.1694C55.9216 39.5276 53.0221 34.9106 48.8554 32.8751C47.0523 31.9815 47.028 31.9567 46.1995 30.1695C44.7132 26.8929 41.3263 24.0879 37.8906 23.2936C36.3312 22.9213 33.1392 22.9957 31.5798 23.4177ZM37.9881 27.5134C40.4004 28.4071 42.569 30.8645 43.2756 33.446C43.6898 34.9354 44.0797 35.3822 45.4442 35.7794C47.296 36.3503 48.4169 37.0453 49.6595 38.3857C51.4139 40.2971 51.9012 41.5382 51.9012 44.2439C51.9012 46.1304 51.8038 46.6765 51.2677 47.868C50.3661 49.8289 49.0747 51.1694 47.1985 52.1126C45.7366 52.8573 45.3711 52.9318 43.373 52.9318C41.4725 52.9318 41.0095 52.8325 39.8156 52.2616C39.0602 51.8644 37.8419 50.946 37.0866 50.2013C35.2591 48.3644 34.6987 48.3644 32.8225 50.2013C32.0671 50.9708 30.8244 51.8892 30.0934 52.2616C28.9239 52.8325 28.4609 52.9318 26.5603 52.9318C24.7085 52.9318 24.1481 52.8325 23.0029 52.2864C21.0779 51.3679 19.7622 50.0524 18.8362 48.141C18.1053 46.6268 18.0322 46.2793 18.0322 44.2439C18.0565 41.5382 18.5439 40.2723 20.2739 38.3857C21.5165 37.0453 22.6374 36.3503 24.4892 35.7794C25.8537 35.3822 26.2436 34.9354 26.6578 33.446C27.3644 30.8893 29.533 28.4319 31.8722 27.5134C33.6022 26.8432 36.2337 26.8184 37.9881 27.5134Z" fill="#F6A6BF"/>
</g>
</g>
</g>
<defs>
<clipPath id="clip0_0_1">
<rect width="1600" height="10898" fill="white" transform="translate(-802 -5527)"/>
</clipPath>
</defs>
</svg>
