<svg xmlns="http://www.w3.org/2000/svg" width="249" height="237" viewBox="0 0 249 237" fill="none">
  <g opacity="0.5">
    <path d="M112.385 33.1292C100.92 44.4953 102.632 66.1954 115.72 75.6959C132.287 87.6932 152.818 73.0238 150.757 50.7203C150.302 45.9949 149.991 45.0483 146.785 39.4968C143.685 34.1263 142.916 33.2023 139.67 30.9734C135.688 28.2842 130.691 26.8245 125.72 27.0392C122.121 27.1861 115.248 30.3499 112.385 33.1292ZM127.641 38.2401C131.952 38.6476 134.406 40.0468 136.79 43.4977C145.617 56.3431 134.749 74.4448 122.576 67.0713C111.045 60.1316 115.059 37.2174 127.641 38.2401Z" fill="white"/>
    <path d="M45.9628 72.8488C43.1435 76.2466 41.2191 83.2309 41.6135 88.3938C41.9206 92.3197 42.3366 93.4474 45.4372 98.8178C48.6423 104.369 49.3064 105.112 53.1712 107.869C61.7998 113.991 72.342 115.145 80.7569 110.85C86.4567 107.961 89.4285 104.556 91.2288 98.8502C95.4737 85.2964 86.3177 70.388 71.1509 66.1107C64.1293 64.1304 58.782 64.6431 52.6815 67.9238C49.4963 69.6019 47.2604 71.2951 45.9628 72.8488ZM63.1043 76.0665C69.3291 75.8518 75.0793 78.888 78.8592 84.349C87.8257 97.4358 72.542 108.432 59.0928 98.5771C53.6408 94.5642 51.0082 87.1535 53.3441 82.1039C54.9442 78.7663 59.0482 76.236 63.1043 76.0665Z" fill="white"/>
    <path d="M168.901 54.7285C162.385 61.2262 159.437 68.8817 160.163 77.8763C160.52 83.3824 160.786 84.114 163.712 89.1828C166.325 93.7084 167.396 95.0209 169.837 96.6691C173.726 99.3318 178.535 100.739 183.482 100.618C187.022 100.505 188.126 100.109 193.123 97.2246C198.413 94.1701 198.872 93.7439 201.827 89.2223C213.585 71.1697 202.859 47.4327 183.573 48.5104C177.934 48.7892 172.589 51.0706 168.901 54.7285ZM185.226 59.3831C190.719 60.0735 194.24 63.5923 195.521 69.6113C197.511 78.7606 190.658 89.1539 182.334 89.5344C174.198 89.9677 168.948 81.0106 171.615 71.1036C173.432 64.3418 179.979 58.7116 185.226 59.3831Z" fill="white"/>
    <path d="M37.2785 133.696C33.5644 137.852 31.6704 143.531 32.1432 149.373C32.4395 153.144 32.9011 154.487 35.4792 158.952C38.1966 163.659 38.8258 164.341 43.322 167.377C61.4458 179.763 84.979 169.073 84.0201 148.949C83.898 145.48 83.4821 144.352 80.5557 139.283C77.6053 134.309 76.767 133.264 73.5555 131.095C66.0938 125.91 56.0001 124.174 48.0163 126.772C43.2025 128.345 40.6857 129.959 37.2785 133.696ZM55.5239 136.518C64.2001 135.933 72.7679 142.492 73.1732 149.982C73.3192 153.357 70.6109 157.898 67.3191 159.798C60.265 163.871 48.4577 160.39 44.2422 153.088C42.3261 149.769 42.7526 144.535 45.2432 141.246C46.7193 139.187 52.0534 136.751 55.5239 136.518Z" fill="white"/>
    <path d="M109.052 110.442C102.512 117.034 98.6674 128.023 99.5758 137.878C100.027 143.41 99.9789 143.599 96.9658 148.154C94.7212 151.462 93.3802 154.569 92.3136 158.966C85.7831 185.667 109.917 209.548 136.243 202.474C145.281 200.072 154.301 192.21 158.156 183.547L159.865 179.584L164.152 180.085C173.464 181.146 184.185 177.45 191.182 170.836C202.963 159.609 205.298 141.526 196.902 126.983C190.387 115.699 176.912 108.514 164.003 109.37C158.399 109.709 158.305 109.683 153.798 106.492C145.614 100.597 133.506 98.4958 124.103 101.35C119.818 102.617 112.222 107.244 109.052 110.442ZM130.26 111.473C137.334 110.285 146.015 113.238 151.343 118.53C154.433 121.573 156 122.116 159.85 121.181C165.118 119.99 168.798 120.118 173.677 121.646C180.592 123.849 183.51 126.187 187.307 132.764C189.955 137.35 190.486 138.814 190.865 142.457C191.442 148.479 190.208 153.537 187.006 158.443C184.524 162.29 183.747 162.98 178.926 165.763C174.341 168.41 173.085 168.813 169.403 169.089C167.024 169.175 162.795 168.639 159.928 167.881C152.941 165.961 151.589 166.742 149.641 173.821C148.899 176.743 147.19 180.707 145.949 182.63C143.928 185.647 142.951 186.533 138.366 189.18C133.898 191.76 132.407 192.299 128.877 192.567C122.945 193.015 117.924 191.65 113.007 188.293C109.119 185.63 108.455 184.887 105.598 179.939C101.859 173.328 101.258 169.572 102.784 162.576C103.901 157.587 105.629 154.336 109.296 150.369C112.03 147.503 112.343 145.874 111.252 141.676C109.369 134.477 111.152 125.482 115.506 119.991C118.739 115.952 125.053 112.227 130.26 111.473Z" fill="white"/>
  </g>
</svg>