<svg width="40" height="33" viewBox="0 0 71 58" fill="none" xmlns="http://www.w3.org/2000/svg">
<g opacity="0.7" filter="url(#filter0_b_13_940)">
<path d="M47.3923 0.560194C41.7881 2.02473 38.4255 9.0247 40.7891 14.2871C43.7861 20.9395 52.8016 20.0708 56.1642 12.8226C56.8708 11.2836 56.9439 10.936 56.9439 8.65236C56.9439 6.44315 56.8708 6.02116 56.2616 4.75521C55.5063 3.21621 54.2149 1.87579 52.6311 1.05665C51.4858 0.460904 48.7812 0.212678 47.3923 0.560194Z" fill="#F6A6BF"/>
<path d="M19.6136 0.982782C18.1272 1.52888 16.2754 3.34093 15.4713 5.00404C14.8622 6.27 14.7891 6.69198 14.7891 8.90119C14.7891 11.1849 14.8622 11.5324 15.5688 13.0714C17.1526 16.4969 20.2227 18.7309 23.6096 18.9047C25.9001 19.0288 27.4351 18.5075 29.0189 17.0678C32.7713 13.6423 32.6008 7.41183 28.6534 3.39057C26.826 1.52888 25.0716 0.734555 22.5863 0.660088C21.2948 0.610442 20.2958 0.734556 19.6136 0.982782Z" fill="#F6A6BF"/>
<path d="M61.0863 17.2908C57.8943 18.1348 55.6039 19.9717 54.215 22.8759C53.3378 24.6383 53.2891 24.9114 53.2891 26.9965C53.2891 28.8582 53.3865 29.4539 53.8495 30.3972C54.5805 31.9114 55.8232 33.2021 57.3826 34.0461C58.5034 34.6418 58.9177 34.7163 60.9888 34.7163C63.1818 34.7163 63.401 34.6667 65.1311 33.7979C72.0267 30.3227 72.9526 21.0887 66.7636 17.9859C64.9605 17.0674 62.8894 16.8192 61.0863 17.2908Z" fill="#F6A6BF"/>
<path d="M5.99293 18.2083C4.09237 18.8288 2.4842 20.2437 1.58264 22.1302C0.997856 23.3465 0.900391 23.843 0.900391 25.6798C0.900391 27.616 0.973489 27.9387 1.82631 29.6763C5.23758 36.7259 14.4724 37.6195 17.7862 31.2401C18.371 30.1479 18.4441 29.7259 18.4441 27.6408C18.4197 25.5806 18.3466 25.1089 17.7375 23.8678C16.3486 20.9387 13.5221 18.6054 10.5738 17.9848C8.79505 17.6125 7.72293 17.6622 5.99293 18.2083Z" fill="#F6A6BF"/>
<path d="M24.6099 30.5956C26.0962 27.3935 29.2638 24.6879 32.4802 23.8191C34.0396 23.3971 37.2316 23.3226 38.791 23.695C42.2267 24.4893 45.6136 27.2942 47.0999 30.5708C47.9284 32.358 47.9527 32.3829 49.7558 33.2765C53.9225 35.3119 56.822 39.9289 56.822 44.5708C56.822 50.553 52.8503 55.7161 47.173 57.0814C43.8105 57.8757 39.8144 57.1062 37.1098 55.1204L35.8671 54.2019L34.6244 55.1204C31.871 57.1062 27.6557 57.9253 24.415 57.0565C14.9609 54.5494 11.7445 42.8828 18.5671 35.8084C19.6879 34.6417 20.6626 33.9219 21.954 33.3013C23.7083 32.4325 23.7571 32.3829 24.6099 30.5956Z" fill="#F6A6BF"/>
</g>
<defs>
<filter id="filter0_b_13_940" x="-3.09961" y="-3.59863" width="78" height="65" filterUnits="userSpaceOnUse" color-interpolation-filters="sRGB">
<feFlood flood-opacity="0" result="BackgroundImageFix"/>
<feGaussianBlur in="BackgroundImageFix" stdDeviation="2"/>
<feComposite in2="SourceAlpha" operator="in" result="effect1_backgroundBlur_13_940"/>
<feBlend mode="normal" in="SourceGraphic" in2="effect1_backgroundBlur_13_940" result="shape"/>
</filter>
</defs>
</svg>
