<svg width="71" height="58" viewBox="0 0 71 58" fill="none" xmlns="http://www.w3.org/2000/svg">
<rect width="71" height="58" fill="#E5E5E5"/>
<g id="1600" clip-path="url(#clip0_0_1)">
<rect width="1600" height="10898" transform="translate(-924 -5481)" fill="white"/>
<g id="6">
<circle id="Ellipse 56" opacity="0.5" cx="40" cy="31" r="70" fill="transporent"/>
<g id="Group 29" opacity="0.7">
<path id="Vector" d="M47.3923 1.0348C41.7881 2.49934 38.4255 9.49931 40.7891 14.7617C43.7861 21.4142 52.8016 20.5454 56.1642 13.2972C56.8708 11.7582 56.9439 11.4106 56.9439 9.12697C56.9439 6.91776 56.8708 6.49577 56.2616 5.22982C55.5063 3.69082 54.2149 2.3504 52.6311 1.53126C51.4858 0.935515 48.7812 0.687288 47.3923 1.0348Z" fill="#F6A6BF"/>
<path id="Vector_2" d="M19.6155 1.45739C18.1292 2.00349 16.2774 3.81554 15.4733 5.47865C14.8641 6.74461 14.791 7.16659 14.791 9.3758C14.791 11.6595 14.8641 12.007 15.5707 13.546C17.1545 16.9715 20.2247 19.2055 23.6116 19.3793C25.902 19.5034 27.4371 18.9821 29.0209 17.5424C32.7733 14.1169 32.6027 7.88644 28.6554 3.86518C26.8279 2.00349 25.0736 1.20917 22.5882 1.1347C21.2968 1.08505 20.2978 1.20917 19.6155 1.45739Z" fill="#F6A6BF"/>
<path id="Vector_3" d="M61.0863 17.7655C57.8943 18.6094 55.6039 20.4463 54.215 23.3505C53.3378 25.1129 53.2891 25.386 53.2891 27.4711C53.2891 29.3328 53.3865 29.9285 53.8495 30.8718C54.5805 32.386 55.8232 33.6767 57.3826 34.5207C58.5034 35.1165 58.9177 35.1909 60.9888 35.1909C63.1818 35.1909 63.401 35.1413 65.131 34.2725C72.0267 30.7973 72.9526 21.5633 66.7636 18.4605C64.9605 17.5421 62.8894 17.2938 61.0863 17.7655Z" fill="#F6A6BF"/>
<path id="Vector_4" d="M5.99293 18.6829C4.09237 19.3034 2.4842 20.7183 1.58264 22.6048C0.997856 23.8211 0.900391 24.3176 0.900391 26.1545C0.900391 28.0906 0.973489 28.4133 1.82631 30.1509C5.23758 37.2005 14.4724 38.0941 17.7862 31.7147C18.371 30.6225 18.4441 30.2005 18.4441 28.1154C18.4197 26.0552 18.3466 25.5835 17.7375 24.3424C16.3486 21.4133 13.5221 19.08 10.5738 18.4595C8.79505 18.0871 7.72293 18.1368 5.99293 18.6829Z" fill="#F6A6BF"/>
<path id="Vector_5" d="M24.6079 31.0703C26.0943 27.8681 29.2619 25.1625 32.4782 24.2937C34.0377 23.8717 37.2296 23.7972 38.7891 24.1696C42.2247 24.9639 45.6116 27.7689 47.098 31.0454C47.9264 32.8327 47.9508 32.8575 49.7539 33.7511C53.9205 35.7865 56.8201 40.4036 56.8201 45.0454C56.8201 51.0276 52.8484 56.1907 47.1711 57.556C43.8085 58.3503 39.8125 57.5808 37.1078 55.595L35.8651 54.6765L34.6225 55.595C31.8691 57.5808 27.6537 58.3999 24.413 57.5311C14.9589 55.0241 11.7426 43.3574 18.5651 36.283C19.686 35.1163 20.6606 34.3965 21.952 33.7759C23.7064 32.9071 23.7551 32.8575 24.6079 31.0703Z" fill="#F6A6BF"/>
</g>
</g>
</g>
<defs>
<clipPath id="clip0_0_1">
<rect width="1600" height="10898" fill="white" transform="translate(-924 -5481)"/>
</clipPath>
</defs>
</svg>
