<svg width="90" height="90" viewBox="0 0 90 90" fill="none" xmlns="http://www.w3.org/2000/svg">
<rect width="90" height="90" fill="#E5E5E5"/>
<g id="1600" clip-path="url(#clip0_0_1)">
<rect width="1600" height="10898" transform="translate(-1063 -5336)" fill="white"/>
<g id="6">
<path id="&#208;&#167;&#209;&#130;&#208;&#190;&#208;&#177;&#209;&#139; &#209;&#131;&#208;&#178;&#208;&#184;&#208;&#180;&#208;&#181;&#209;&#130;&#209;&#140; &#208;&#178;&#208;&#176;&#209;&#136;&#208;&#181;&#208;&#179;&#208;&#190; &#208;&#186;&#208;&#190;&#209;&#130;&#208;&#176; &#208;&#184;&#208;&#187;&#208;&#184; &#208;&#186;&#208;&#190;&#209;&#136;&#208;&#186;&#209;&#131; &#208;&#189;&#209;&#131;&#208;&#182;&#208;&#189;&#208;&#190; &#208;&#178;&#208;&#190;&#208;&#185;&#209;&#130;&#208;&#184; &#208;&#191;&#208;&#190;&#208;&#180; &#208;&#187;&#208;&#190;&#208;&#179;&#208;&#184;&#208;&#189;&#208;&#190;&#208;&#188; &#208;&#184; &#208;&#191;&#208;&#176;&#209;&#128;&#208;&#190;&#208;&#187;&#208;&#181;&#208;&#188;, &#208;&#186;&#208;&#190;&#209;&#130;&#208;&#190;&#209;&#128;&#209;&#139;&#208;&#181; &#208;&#178;&#208;&#176;&#208;&#188; &#208;&#178;&#209;&#139;&#208;&#180;&#208;&#176;&#208;&#187;&#208;&#184; &#208;&#191;&#209;&#128;&#208;&#184; &#208;&#183;&#208;&#176;&#209;&#129;&#208;&#181;&#208;&#187;&#208;&#181;&#208;&#189;&#208;&#184;&#208;&#184;" d="M-201.984 -62.6V-50H-203.28V-55.22C-204.648 -54.632 -205.974 -54.338 -207.258 -54.338C-208.734 -54.338 -209.886 -54.698 -210.714 -55.418C-211.53 -56.138 -211.938 -57.146 -211.938 -58.442V-62.6H-210.624V-58.586C-210.624 -57.614 -210.318 -56.858 -209.706 -56.318C-209.094 -55.778 -208.236 -55.508 -207.132 -55.508C-205.872 -55.508 -204.588 -55.808 -203.28 -56.408V-62.6H-201.984ZM-191.356 -58.334H-194.938V-50H-196.216V-58.334H-199.798V-59.468H-191.356V-58.334ZM-186.042 -49.91C-186.954 -49.91 -187.776 -50.114 -188.508 -50.522C-189.24 -50.942 -189.816 -51.518 -190.236 -52.25C-190.656 -52.982 -190.866 -53.81 -190.866 -54.734C-190.866 -55.658 -190.656 -56.486 -190.236 -57.218C-189.816 -57.95 -189.24 -58.52 -188.508 -58.928C-187.776 -59.336 -186.954 -59.54 -186.042 -59.54C-185.13 -59.54 -184.308 -59.336 -183.576 -58.928C-182.844 -58.52 -182.274 -57.95 -181.866 -57.218C-181.446 -56.486 -181.236 -55.658 -181.236 -54.734C-181.236 -53.81 -181.446 -52.982 -181.866 -52.25C-182.274 -51.518 -182.844 -50.942 -183.576 -50.522C-184.308 -50.114 -185.13 -49.91 -186.042 -49.91ZM-186.042 -51.044C-185.37 -51.044 -184.77 -51.194 -184.242 -51.494C-183.702 -51.806 -183.282 -52.244 -182.982 -52.808C-182.682 -53.372 -182.532 -54.014 -182.532 -54.734C-182.532 -55.454 -182.682 -56.096 -182.982 -56.66C-183.282 -57.224 -183.702 -57.656 -184.242 -57.956C-184.77 -58.268 -185.37 -58.424 -186.042 -58.424C-186.714 -58.424 -187.32 -58.268 -187.86 -57.956C-188.388 -57.656 -188.808 -57.224 -189.12 -56.66C-189.42 -56.096 -189.57 -55.454 -189.57 -54.734C-189.57 -54.014 -189.42 -53.372 -189.12 -52.808C-188.808 -52.244 -188.388 -51.806 -187.86 -51.494C-187.32 -51.194 -186.714 -51.044 -186.042 -51.044ZM-173.914 -59.234C-173.038 -59.234 -172.258 -59.036 -171.574 -58.64C-170.878 -58.256 -170.338 -57.71 -169.954 -57.002C-169.57 -56.306 -169.378 -55.508 -169.378 -54.608C-169.378 -53.684 -169.582 -52.862 -169.99 -52.142C-170.386 -51.434 -170.944 -50.882 -171.664 -50.486C-172.384 -50.09 -173.212 -49.892 -174.148 -49.892C-175.72 -49.892 -176.938 -50.444 -177.802 -51.548C-178.666 -52.652 -179.098 -54.176 -179.098 -56.12C-179.098 -58.148 -178.714 -59.702 -177.946 -60.782C-177.166 -61.862 -175.954 -62.594 -174.31 -62.978L-170.062 -63.95L-169.846 -62.78L-173.842 -61.862C-175.198 -61.562 -176.194 -61.028 -176.83 -60.26C-177.466 -59.504 -177.814 -58.382 -177.874 -56.894C-177.49 -57.626 -176.956 -58.196 -176.272 -58.604C-175.588 -59.024 -174.802 -59.234 -173.914 -59.234ZM-174.112 -50.954C-173.452 -50.954 -172.864 -51.104 -172.348 -51.404C-171.82 -51.716 -171.412 -52.148 -171.124 -52.7C-170.824 -53.252 -170.674 -53.876 -170.674 -54.572C-170.674 -55.268 -170.818 -55.88 -171.106 -56.408C-171.394 -56.936 -171.802 -57.344 -172.33 -57.632C-172.846 -57.932 -173.44 -58.082 -174.112 -58.082C-174.784 -58.082 -175.384 -57.932 -175.912 -57.632C-176.428 -57.344 -176.836 -56.936 -177.136 -56.408C-177.424 -55.88 -177.568 -55.268 -177.568 -54.572C-177.568 -53.876 -177.424 -53.252 -177.136 -52.7C-176.836 -52.148 -176.422 -51.716 -175.894 -51.404C-175.366 -51.104 -174.772 -50.954 -174.112 -50.954ZM-162.661 -56.12C-161.473 -56.108 -160.567 -55.844 -159.943 -55.328C-159.319 -54.812 -159.007 -54.068 -159.007 -53.096C-159.007 -52.088 -159.343 -51.314 -160.015 -50.774C-160.687 -50.234 -161.647 -49.97 -162.895 -49.982L-166.639 -50V-59.468H-165.361V-56.156L-162.661 -56.12ZM-157.423 -59.468H-156.145V-50H-157.423V-59.468ZM-162.967 -50.954C-162.091 -50.942 -161.431 -51.116 -160.987 -51.476C-160.531 -51.848 -160.303 -52.388 -160.303 -53.096C-160.303 -53.792 -160.525 -54.308 -160.969 -54.644C-161.413 -54.98 -162.079 -55.154 -162.967 -55.166L-165.361 -55.202V-50.99L-162.967 -50.954ZM-139.749 -59.468L-144.483 -48.866C-144.867 -47.978 -145.311 -47.348 -145.815 -46.976C-146.319 -46.604 -146.925 -46.418 -147.633 -46.418C-148.089 -46.418 -148.515 -46.49 -148.911 -46.634C-149.307 -46.778 -149.649 -46.994 -149.937 -47.282L-149.343 -48.236C-148.863 -47.756 -148.287 -47.516 -147.615 -47.516C-147.183 -47.516 -146.817 -47.636 -146.517 -47.876C-146.205 -48.116 -145.917 -48.524 -145.653 -49.1L-145.239 -50.018L-149.469 -59.468H-148.137L-144.573 -51.422L-141.009 -59.468H-139.749ZM-131.728 -54.896C-130.444 -54.596 -129.802 -53.822 -129.802 -52.574C-129.802 -51.746 -130.108 -51.11 -130.72 -50.666C-131.332 -50.222 -132.244 -50 -133.456 -50H-137.758V-59.468H-133.582C-132.502 -59.468 -131.656 -59.258 -131.044 -58.838C-130.432 -58.418 -130.126 -57.818 -130.126 -57.038C-130.126 -56.522 -130.27 -56.078 -130.558 -55.706C-130.834 -55.346 -131.224 -55.076 -131.728 -54.896ZM-136.516 -55.256H-133.672C-132.94 -55.256 -132.382 -55.394 -131.998 -55.67C-131.602 -55.946 -131.404 -56.348 -131.404 -56.876C-131.404 -57.404 -131.602 -57.8 -131.998 -58.064C-132.382 -58.328 -132.94 -58.46 -133.672 -58.46H-136.516V-55.256ZM-133.51 -51.008C-132.694 -51.008 -132.082 -51.14 -131.674 -51.404C-131.266 -51.668 -131.062 -52.082 -131.062 -52.646C-131.062 -53.21 -131.248 -53.624 -131.62 -53.888C-131.992 -54.164 -132.58 -54.302 -133.384 -54.302H-136.516V-51.008H-133.51ZM-126.807 -59.468H-125.529V-51.944L-119.211 -59.468H-118.077V-50H-119.355V-57.524L-125.655 -50H-126.807V-59.468ZM-105.18 -51.116V-47.714H-106.386V-50H-114.864V-47.714H-116.07V-51.116H-115.53C-114.894 -51.152 -114.462 -51.62 -114.234 -52.52C-114.006 -53.42 -113.85 -54.68 -113.766 -56.3L-113.64 -59.468H-106.656V-51.116H-105.18ZM-112.596 -56.228C-112.656 -54.884 -112.77 -53.774 -112.938 -52.898C-113.106 -52.034 -113.406 -51.44 -113.838 -51.116H-107.934V-58.334H-112.488L-112.596 -56.228ZM-94.4098 -54.338H-102.33C-102.258 -53.354 -101.88 -52.556 -101.196 -51.944C-100.512 -51.344 -99.6478 -51.044 -98.6038 -51.044C-98.0158 -51.044 -97.4758 -51.146 -96.9838 -51.35C-96.4918 -51.566 -96.0658 -51.878 -95.7058 -52.286L-94.9858 -51.458C-95.4058 -50.954 -95.9338 -50.57 -96.5698 -50.306C-97.1938 -50.042 -97.8838 -49.91 -98.6398 -49.91C-99.6118 -49.91 -100.476 -50.114 -101.232 -50.522C-101.976 -50.942 -102.558 -51.518 -102.978 -52.25C-103.398 -52.982 -103.608 -53.81 -103.608 -54.734C-103.608 -55.658 -103.41 -56.486 -103.014 -57.218C-102.606 -57.95 -102.054 -58.52 -101.358 -58.928C-100.65 -59.336 -99.8578 -59.54 -98.9818 -59.54C-98.1058 -59.54 -97.3198 -59.336 -96.6238 -58.928C-95.9278 -58.52 -95.3818 -57.95 -94.9858 -57.218C-94.5898 -56.498 -94.3918 -55.67 -94.3918 -54.734L-94.4098 -54.338ZM-98.9818 -58.442C-99.8938 -58.442 -100.662 -58.148 -101.286 -57.56C-101.898 -56.984 -102.246 -56.228 -102.33 -55.292H-95.6158C-95.6998 -56.228 -96.0538 -56.984 -96.6778 -57.56C-97.2898 -58.148 -98.0578 -58.442 -98.9818 -58.442ZM-85.3247 -58.334H-88.9067V-50H-90.1847V-58.334H-93.7667V-59.468H-85.3247V-58.334ZM-79.4089 -56.12C-78.2209 -56.108 -77.3209 -55.844 -76.7089 -55.328C-76.0849 -54.812 -75.7729 -54.068 -75.7729 -53.096C-75.7729 -52.088 -76.1089 -51.314 -76.7809 -50.774C-77.4409 -50.234 -78.4009 -49.97 -79.6609 -49.982L-83.4769 -50V-59.468H-82.1989V-56.156L-79.4089 -56.12ZM-79.7329 -50.954C-78.8569 -50.942 -78.1969 -51.116 -77.7529 -51.476C-77.2969 -51.848 -77.0689 -52.388 -77.0689 -53.096C-77.0689 -53.792 -77.2909 -54.308 -77.7349 -54.644C-78.1789 -54.98 -78.8449 -55.154 -79.7329 -55.166L-82.1989 -55.202V-50.99L-79.7329 -50.954ZM-62.5934 -54.896C-61.3094 -54.596 -60.6674 -53.822 -60.6674 -52.574C-60.6674 -51.746 -60.9734 -51.11 -61.5854 -50.666C-62.1974 -50.222 -63.1094 -50 -64.3214 -50H-68.6234V-59.468H-64.4474C-63.3674 -59.468 -62.5214 -59.258 -61.9094 -58.838C-61.2974 -58.418 -60.9914 -57.818 -60.9914 -57.038C-60.9914 -56.522 -61.1354 -56.078 -61.4234 -55.706C-61.6994 -55.346 -62.0894 -55.076 -62.5934 -54.896ZM-67.3814 -55.256H-64.5374C-63.8054 -55.256 -63.2474 -55.394 -62.8634 -55.67C-62.4674 -55.946 -62.2694 -56.348 -62.2694 -56.876C-62.2694 -57.404 -62.4674 -57.8 -62.8634 -58.064C-63.2474 -58.328 -63.8054 -58.46 -64.5374 -58.46H-67.3814V-55.256ZM-64.3754 -51.008C-63.5594 -51.008 -62.9474 -51.14 -62.5394 -51.404C-62.1314 -51.668 -61.9274 -52.082 -61.9274 -52.646C-61.9274 -53.21 -62.1134 -53.624 -62.4854 -53.888C-62.8574 -54.164 -63.4454 -54.302 -64.2494 -54.302H-67.3814V-51.008H-64.3754ZM-54.4142 -59.54C-53.1782 -59.54 -52.2302 -59.228 -51.5702 -58.604C-50.9102 -57.992 -50.5802 -57.08 -50.5802 -55.868V-50H-51.8042V-51.476C-52.0922 -50.984 -52.5182 -50.6 -53.0822 -50.324C-53.6342 -50.048 -54.2942 -49.91 -55.0622 -49.91C-56.1182 -49.91 -56.9582 -50.162 -57.5822 -50.666C-58.2062 -51.17 -58.5182 -51.836 -58.5182 -52.664C-58.5182 -53.468 -58.2302 -54.116 -57.6542 -54.608C-57.0662 -55.1 -56.1362 -55.346 -54.8642 -55.346H-51.8582V-55.922C-51.8582 -56.738 -52.0862 -57.356 -52.5422 -57.776C-52.9982 -58.208 -53.6642 -58.424 -54.5402 -58.424C-55.1402 -58.424 -55.7162 -58.322 -56.2682 -58.118C-56.8202 -57.926 -57.2942 -57.656 -57.6902 -57.308L-58.2662 -58.262C-57.7862 -58.67 -57.2102 -58.982 -56.5382 -59.198C-55.8662 -59.426 -55.1582 -59.54 -54.4142 -59.54ZM-54.8642 -50.918C-54.1442 -50.918 -53.5262 -51.08 -53.0102 -51.404C-52.4942 -51.74 -52.1102 -52.22 -51.8582 -52.844V-54.392H-54.8282C-56.4482 -54.392 -57.2582 -53.828 -57.2582 -52.7C-57.2582 -52.148 -57.0482 -51.71 -56.6282 -51.386C-56.2082 -51.074 -55.6202 -50.918 -54.8642 -50.918ZM-34.1101 -59.468V-50H-47.1781V-59.468H-45.9001V-51.116H-41.2561V-59.468H-39.9781V-51.116H-35.3881V-59.468H-34.1101ZM-22.1813 -54.338H-30.1013C-30.0293 -53.354 -29.6513 -52.556 -28.9673 -51.944C-28.2833 -51.344 -27.4193 -51.044 -26.3753 -51.044C-25.7873 -51.044 -25.2473 -51.146 -24.7553 -51.35C-24.2633 -51.566 -23.8373 -51.878 -23.4773 -52.286L-22.7573 -51.458C-23.1773 -50.954 -23.7053 -50.57 -24.3413 -50.306C-24.9653 -50.042 -25.6553 -49.91 -26.4113 -49.91C-27.3833 -49.91 -28.2473 -50.114 -29.0033 -50.522C-29.7473 -50.942 -30.3293 -51.518 -30.7493 -52.25C-31.1693 -52.982 -31.3793 -53.81 -31.3793 -54.734C-31.3793 -55.658 -31.1813 -56.486 -30.7853 -57.218C-30.3773 -57.95 -29.8253 -58.52 -29.1293 -58.928C-28.4213 -59.336 -27.6293 -59.54 -26.7533 -59.54C-25.8773 -59.54 -25.0913 -59.336 -24.3953 -58.928C-23.6993 -58.52 -23.1533 -57.95 -22.7573 -57.218C-22.3613 -56.498 -22.1633 -55.67 -22.1633 -54.734L-22.1813 -54.338ZM-26.7533 -58.442C-27.6653 -58.442 -28.4333 -58.148 -29.0573 -57.56C-29.6693 -56.984 -30.0173 -56.228 -30.1013 -55.292H-23.3873C-23.4713 -56.228 -23.8253 -56.984 -24.4493 -57.56C-25.0613 -58.148 -25.8293 -58.442 -26.7533 -58.442ZM-12.6383 -58.334H-18.0563V-50H-19.3343V-59.468H-12.6383V-58.334ZM-7.32483 -49.91C-8.23683 -49.91 -9.05883 -50.114 -9.79083 -50.522C-10.5228 -50.942 -11.0988 -51.518 -11.5188 -52.25C-11.9388 -52.982 -12.1488 -53.81 -12.1488 -54.734C-12.1488 -55.658 -11.9388 -56.486 -11.5188 -57.218C-11.0988 -57.95 -10.5228 -58.52 -9.79083 -58.928C-9.05883 -59.336 -8.23683 -59.54 -7.32483 -59.54C-6.41283 -59.54 -5.59083 -59.336 -4.85883 -58.928C-4.12683 -58.52 -3.55683 -57.95 -3.14883 -57.218C-2.72883 -56.486 -2.51883 -55.658 -2.51883 -54.734C-2.51883 -53.81 -2.72883 -52.982 -3.14883 -52.25C-3.55683 -51.518 -4.12683 -50.942 -4.85883 -50.522C-5.59083 -50.114 -6.41283 -49.91 -7.32483 -49.91ZM-7.32483 -51.044C-6.65283 -51.044 -6.05283 -51.194 -5.52483 -51.494C-4.98483 -51.806 -4.56483 -52.244 -4.26483 -52.808C-3.96483 -53.372 -3.81483 -54.014 -3.81483 -54.734C-3.81483 -55.454 -3.96483 -56.096 -4.26483 -56.66C-4.56483 -57.224 -4.98483 -57.656 -5.52483 -57.956C-6.05283 -58.268 -6.65283 -58.424 -7.32483 -58.424C-7.99683 -58.424 -8.60283 -58.268 -9.14283 -57.956C-9.67083 -57.656 -10.0908 -57.224 -10.4028 -56.66C-10.7028 -56.096 -10.8528 -55.454 -10.8528 -54.734C-10.8528 -54.014 -10.7028 -53.372 -10.4028 -52.808C-10.0908 -52.244 -9.67083 -51.806 -9.14283 -51.494C-8.60283 -51.194 -7.99683 -51.044 -7.32483 -51.044ZM8.36147 -54.212H6.20147V-50H4.92347V-59.468H6.20147V-55.31H8.37947L11.7095 -59.468H13.0955L9.36947 -54.878L13.3655 -50H11.8535L8.36147 -54.212ZM18.9545 -49.91C18.0425 -49.91 17.2205 -50.114 16.4885 -50.522C15.7565 -50.942 15.1805 -51.518 14.7605 -52.25C14.3405 -52.982 14.1305 -53.81 14.1305 -54.734C14.1305 -55.658 14.3405 -56.486 14.7605 -57.218C15.1805 -57.95 15.7565 -58.52 16.4885 -58.928C17.2205 -59.336 18.0425 -59.54 18.9545 -59.54C19.8665 -59.54 20.6885 -59.336 21.4205 -58.928C22.1525 -58.52 22.7225 -57.95 23.1305 -57.218C23.5505 -56.486 23.7605 -55.658 23.7605 -54.734C23.7605 -53.81 23.5505 -52.982 23.1305 -52.25C22.7225 -51.518 22.1525 -50.942 21.4205 -50.522C20.6885 -50.114 19.8665 -49.91 18.9545 -49.91ZM18.9545 -51.044C19.6265 -51.044 20.2265 -51.194 20.7545 -51.494C21.2945 -51.806 21.7145 -52.244 22.0145 -52.808C22.3145 -53.372 22.4645 -54.014 22.4645 -54.734C22.4645 -55.454 22.3145 -56.096 22.0145 -56.66C21.7145 -57.224 21.2945 -57.656 20.7545 -57.956C20.2265 -58.268 19.6265 -58.424 18.9545 -58.424C18.2825 -58.424 17.6765 -58.268 17.1365 -57.956C16.6085 -57.656 16.1885 -57.224 15.8765 -56.66C15.5765 -56.096 15.4265 -55.454 15.4265 -54.734C15.4265 -54.014 15.5765 -53.372 15.8765 -52.808C16.1885 -52.244 16.6085 -51.806 17.1365 -51.494C17.6765 -51.194 18.2825 -51.044 18.9545 -51.044ZM32.8003 -58.334H29.2183V-50H27.9403V-58.334H24.3583V-59.468H32.8003V-58.334ZM37.9061 -59.54C39.1421 -59.54 40.0901 -59.228 40.7501 -58.604C41.4101 -57.992 41.7401 -57.08 41.7401 -55.868V-50H40.5161V-51.476C40.2281 -50.984 39.8021 -50.6 39.2381 -50.324C38.6861 -50.048 38.0261 -49.91 37.2581 -49.91C36.2021 -49.91 35.3621 -50.162 34.7381 -50.666C34.1141 -51.17 33.8021 -51.836 33.8021 -52.664C33.8021 -53.468 34.0901 -54.116 34.6661 -54.608C35.2541 -55.1 36.1841 -55.346 37.4561 -55.346H40.4621V-55.922C40.4621 -56.738 40.2341 -57.356 39.7781 -57.776C39.3221 -58.208 38.6561 -58.424 37.7801 -58.424C37.1801 -58.424 36.6041 -58.322 36.0521 -58.118C35.5001 -57.926 35.0261 -57.656 34.6301 -57.308L34.0541 -58.262C34.5341 -58.67 35.1101 -58.982 35.7821 -59.198C36.4541 -59.426 37.1621 -59.54 37.9061 -59.54ZM37.4561 -50.918C38.1761 -50.918 38.7941 -51.08 39.3101 -51.404C39.8261 -51.74 40.2101 -52.22 40.4621 -52.844V-54.392H37.4921C35.8721 -54.392 35.0621 -53.828 35.0621 -52.7C35.0621 -52.148 35.2721 -51.71 35.6921 -51.386C36.1121 -51.074 36.7001 -50.918 37.4561 -50.918ZM49.8532 -59.468H51.1312V-51.944L57.4492 -59.468H58.5832V-50H57.3052V-57.524L51.0052 -50H49.8532V-59.468ZM69.9857 -59.468V-50H68.7077V-58.334H64.1717L64.0457 -55.994C63.9497 -54.026 63.7217 -52.514 63.3617 -51.458C63.0017 -50.402 62.3597 -49.874 61.4357 -49.874C61.1837 -49.874 60.8777 -49.922 60.5177 -50.018L60.6077 -51.116C60.8237 -51.068 60.9737 -51.044 61.0577 -51.044C61.5497 -51.044 61.9217 -51.272 62.1737 -51.728C62.4257 -52.184 62.5937 -52.748 62.6777 -53.42C62.7617 -54.092 62.8337 -54.98 62.8937 -56.084L63.0557 -59.468H69.9857ZM73.6188 -59.468H74.8968V-51.944L81.2148 -59.468H82.3488V-50H81.0708V-57.524L74.7708 -50H73.6188V-59.468ZM94.1603 -54.212H92.0003V-50H90.7223V-59.468H92.0003V-55.31H94.1783L97.5083 -59.468H98.8943L95.1683 -54.878L99.1643 -50H97.6523L94.1603 -54.212ZM104.753 -49.91C103.841 -49.91 103.019 -50.114 102.287 -50.522C101.555 -50.942 100.979 -51.518 100.559 -52.25C100.139 -52.982 99.9293 -53.81 99.9293 -54.734C99.9293 -55.658 100.139 -56.486 100.559 -57.218C100.979 -57.95 101.555 -58.52 102.287 -58.928C103.019 -59.336 103.841 -59.54 104.753 -59.54C105.665 -59.54 106.487 -59.336 107.219 -58.928C107.951 -58.52 108.521 -57.95 108.929 -57.218C109.349 -56.486 109.559 -55.658 109.559 -54.734C109.559 -53.81 109.349 -52.982 108.929 -52.25C108.521 -51.518 107.951 -50.942 107.219 -50.522C106.487 -50.114 105.665 -49.91 104.753 -49.91ZM104.753 -51.044C105.425 -51.044 106.025 -51.194 106.553 -51.494C107.093 -51.806 107.513 -52.244 107.813 -52.808C108.113 -53.372 108.263 -54.014 108.263 -54.734C108.263 -55.454 108.113 -56.096 107.813 -56.66C107.513 -57.224 107.093 -57.656 106.553 -57.956C106.025 -58.268 105.425 -58.424 104.753 -58.424C104.081 -58.424 103.475 -58.268 102.935 -57.956C102.407 -57.656 101.987 -57.224 101.675 -56.66C101.375 -56.096 101.225 -55.454 101.225 -54.734C101.225 -54.014 101.375 -53.372 101.675 -52.808C101.987 -52.244 102.407 -51.806 102.935 -51.494C103.475 -51.194 104.081 -51.044 104.753 -51.044ZM125.359 -59.468V-50H112.291V-59.468H113.569V-51.116H118.213V-59.468H119.491V-51.116H124.081V-59.468H125.359ZM132.445 -54.212H130.285V-50H129.007V-59.468H130.285V-55.31H132.463L135.793 -59.468H137.179L133.453 -54.878L137.449 -50H135.937L132.445 -54.212ZM146.968 -59.468L142.234 -48.866C141.85 -47.978 141.406 -47.348 140.902 -46.976C140.398 -46.604 139.792 -46.418 139.084 -46.418C138.628 -46.418 138.202 -46.49 137.806 -46.634C137.41 -46.778 137.068 -46.994 136.78 -47.282L137.374 -48.236C137.854 -47.756 138.43 -47.516 139.102 -47.516C139.534 -47.516 139.9 -47.636 140.2 -47.876C140.512 -48.116 140.8 -48.524 141.064 -49.1L141.478 -50.018L137.248 -59.468H138.58L142.144 -51.422L145.708 -59.468H146.968ZM153.67 -59.468H154.948V-55.274H160.906V-59.468H162.184V-50H160.906V-54.176H154.948V-50H153.67V-59.468ZM173.862 -59.468L169.128 -48.866C168.744 -47.978 168.3 -47.348 167.796 -46.976C167.292 -46.604 166.686 -46.418 165.978 -46.418C165.522 -46.418 165.096 -46.49 164.7 -46.634C164.304 -46.778 163.962 -46.994 163.674 -47.282L164.268 -48.236C164.748 -47.756 165.324 -47.516 165.996 -47.516C166.428 -47.516 166.794 -47.636 167.094 -47.876C167.406 -48.116 167.694 -48.524 167.958 -49.1L168.372 -50.018L164.142 -59.468H165.474L169.038 -51.422L172.602 -59.468H173.862ZM183.606 -54.212H181.554V-50H180.276V-54.212H178.224L175.326 -50H173.796L177.198 -54.878L174.066 -59.468H175.452L178.224 -55.31H180.276V-59.468H181.554V-55.31H183.606L186.396 -59.468H187.782L184.65 -54.86L188.052 -50H186.522L183.606 -54.212ZM190.179 -59.468H191.457V-55.274H197.415V-59.468H198.693V-50H197.415V-54.176H191.457V-50H190.179V-59.468ZM206.232 -49.91C205.32 -49.91 204.498 -50.114 203.766 -50.522C203.034 -50.942 202.458 -51.518 202.038 -52.25C201.618 -52.982 201.408 -53.81 201.408 -54.734C201.408 -55.658 201.618 -56.486 202.038 -57.218C202.458 -57.95 203.034 -58.52 203.766 -58.928C204.498 -59.336 205.32 -59.54 206.232 -59.54C207.144 -59.54 207.966 -59.336 208.698 -58.928C209.43 -58.52 210 -57.95 210.408 -57.218C210.828 -56.486 211.038 -55.658 211.038 -54.734C211.038 -53.81 210.828 -52.982 210.408 -52.25C210 -51.518 209.43 -50.942 208.698 -50.522C207.966 -50.114 207.144 -49.91 206.232 -49.91ZM206.232 -51.044C206.904 -51.044 207.504 -51.194 208.032 -51.494C208.572 -51.806 208.992 -52.244 209.292 -52.808C209.592 -53.372 209.742 -54.014 209.742 -54.734C209.742 -55.454 209.592 -56.096 209.292 -56.66C208.992 -57.224 208.572 -57.656 208.032 -57.956C207.504 -58.268 206.904 -58.424 206.232 -58.424C205.56 -58.424 204.954 -58.268 204.414 -57.956C203.886 -57.656 203.466 -57.224 203.154 -56.66C202.854 -56.096 202.704 -55.454 202.704 -54.734C202.704 -54.014 202.854 -53.372 203.154 -52.808C203.466 -52.244 203.886 -51.806 204.414 -51.494C204.954 -51.194 205.56 -51.044 206.232 -51.044ZM-205.152 -29.896C-203.868 -29.596 -203.226 -28.822 -203.226 -27.574C-203.226 -26.746 -203.532 -26.11 -204.144 -25.666C-204.756 -25.222 -205.668 -25 -206.88 -25H-211.182V-34.468H-207.006C-205.926 -34.468 -205.08 -34.258 -204.468 -33.838C-203.856 -33.418 -203.55 -32.818 -203.55 -32.038C-203.55 -31.522 -203.694 -31.078 -203.982 -30.706C-204.258 -30.346 -204.648 -30.076 -205.152 -29.896ZM-209.94 -30.256H-207.096C-206.364 -30.256 -205.806 -30.394 -205.422 -30.67C-205.026 -30.946 -204.828 -31.348 -204.828 -31.876C-204.828 -32.404 -205.026 -32.8 -205.422 -33.064C-205.806 -33.328 -206.364 -33.46 -207.096 -33.46H-209.94V-30.256ZM-206.934 -26.008C-206.118 -26.008 -205.506 -26.14 -205.098 -26.404C-204.69 -26.668 -204.486 -27.082 -204.486 -27.646C-204.486 -28.21 -204.672 -28.624 -205.044 -28.888C-205.416 -29.164 -206.004 -29.302 -206.808 -29.302H-209.94V-26.008H-206.934ZM-196.325 -24.91C-197.237 -24.91 -198.059 -25.114 -198.791 -25.522C-199.523 -25.942 -200.099 -26.518 -200.519 -27.25C-200.939 -27.982 -201.149 -28.81 -201.149 -29.734C-201.149 -30.658 -200.939 -31.486 -200.519 -32.218C-200.099 -32.95 -199.523 -33.52 -198.791 -33.928C-198.059 -34.336 -197.237 -34.54 -196.325 -34.54C-195.413 -34.54 -194.591 -34.336 -193.859 -33.928C-193.127 -33.52 -192.557 -32.95 -192.149 -32.218C-191.729 -31.486 -191.519 -30.658 -191.519 -29.734C-191.519 -28.81 -191.729 -27.982 -192.149 -27.25C-192.557 -26.518 -193.127 -25.942 -193.859 -25.522C-194.591 -25.114 -195.413 -24.91 -196.325 -24.91ZM-196.325 -26.044C-195.653 -26.044 -195.053 -26.194 -194.525 -26.494C-193.985 -26.806 -193.565 -27.244 -193.265 -27.808C-192.965 -28.372 -192.815 -29.014 -192.815 -29.734C-192.815 -30.454 -192.965 -31.096 -193.265 -31.66C-193.565 -32.224 -193.985 -32.656 -194.525 -32.956C-195.053 -33.268 -195.653 -33.424 -196.325 -33.424C-196.997 -33.424 -197.603 -33.268 -198.143 -32.956C-198.671 -32.656 -199.091 -32.224 -199.403 -31.66C-199.703 -31.096 -199.853 -30.454 -199.853 -29.734C-199.853 -29.014 -199.703 -28.372 -199.403 -27.808C-199.091 -27.244 -198.671 -26.806 -198.143 -26.494C-197.603 -26.194 -196.997 -26.044 -196.325 -26.044ZM-188.787 -34.468H-187.509V-26.944L-181.191 -34.468H-180.057V-25H-181.335V-32.524L-187.635 -25H-188.787V-34.468ZM-184.485 -35.836C-185.301 -35.836 -185.949 -36.04 -186.429 -36.448C-186.909 -36.856 -187.155 -37.432 -187.167 -38.176H-186.249C-186.237 -37.708 -186.069 -37.33 -185.745 -37.042C-185.421 -36.766 -185.001 -36.628 -184.485 -36.628C-183.969 -36.628 -183.549 -36.766 -183.225 -37.042C-182.889 -37.33 -182.715 -37.708 -182.703 -38.176H-181.785C-181.797 -37.432 -182.049 -36.856 -182.541 -36.448C-183.021 -36.04 -183.669 -35.836 -184.485 -35.836ZM-169.735 -33.334H-173.317V-25H-174.595V-33.334H-178.177V-34.468H-169.735V-33.334ZM-167.887 -34.468H-166.609V-26.944L-160.291 -34.468H-159.157V-25H-160.435V-32.524L-166.735 -25H-167.887V-34.468ZM-142.288 -34.468V-25H-143.566V-33.334H-149.506V-25H-150.784V-34.468H-142.288ZM-134.749 -24.91C-135.661 -24.91 -136.483 -25.114 -137.215 -25.522C-137.947 -25.942 -138.523 -26.518 -138.943 -27.25C-139.363 -27.982 -139.573 -28.81 -139.573 -29.734C-139.573 -30.658 -139.363 -31.486 -138.943 -32.218C-138.523 -32.95 -137.947 -33.52 -137.215 -33.928C-136.483 -34.336 -135.661 -34.54 -134.749 -34.54C-133.837 -34.54 -133.015 -34.336 -132.283 -33.928C-131.551 -33.52 -130.981 -32.95 -130.573 -32.218C-130.153 -31.486 -129.943 -30.658 -129.943 -29.734C-129.943 -28.81 -130.153 -27.982 -130.573 -27.25C-130.981 -26.518 -131.551 -25.942 -132.283 -25.522C-133.015 -25.114 -133.837 -24.91 -134.749 -24.91ZM-134.749 -26.044C-134.077 -26.044 -133.477 -26.194 -132.949 -26.494C-132.409 -26.806 -131.989 -27.244 -131.689 -27.808C-131.389 -28.372 -131.239 -29.014 -131.239 -29.734C-131.239 -30.454 -131.389 -31.096 -131.689 -31.66C-131.989 -32.224 -132.409 -32.656 -132.949 -32.956C-133.477 -33.268 -134.077 -33.424 -134.749 -33.424C-135.421 -33.424 -136.027 -33.268 -136.567 -32.956C-137.095 -32.656 -137.515 -32.224 -137.827 -31.66C-138.127 -31.096 -138.277 -30.454 -138.277 -29.734C-138.277 -29.014 -138.127 -28.372 -137.827 -27.808C-137.515 -27.244 -137.095 -26.806 -136.567 -26.494C-136.027 -26.194 -135.421 -26.044 -134.749 -26.044ZM-118.03 -26.116V-22.714H-119.236V-25H-127.714V-22.714H-128.92V-26.116H-128.38C-127.744 -26.152 -127.312 -26.62 -127.084 -27.52C-126.856 -28.42 -126.7 -29.68 -126.616 -31.3L-126.49 -34.468H-119.506V-26.116H-118.03ZM-125.446 -31.228C-125.506 -29.884 -125.62 -28.774 -125.788 -27.898C-125.956 -27.034 -126.256 -26.44 -126.688 -26.116H-120.784V-33.334H-125.338L-125.446 -31.228ZM-103.088 -34.468V-25H-104.366V-33.334H-108.902L-109.028 -30.994C-109.124 -29.026 -109.352 -27.514 -109.712 -26.458C-110.072 -25.402 -110.714 -24.874 -111.638 -24.874C-111.89 -24.874 -112.196 -24.922 -112.556 -25.018L-112.466 -26.116C-112.25 -26.068 -112.1 -26.044 -112.016 -26.044C-111.524 -26.044 -111.152 -26.272 -110.9 -26.728C-110.648 -27.184 -110.48 -27.748 -110.396 -28.42C-110.312 -29.092 -110.24 -29.98 -110.18 -31.084L-110.018 -34.468H-103.088ZM-95.5494 -24.91C-96.4614 -24.91 -97.2834 -25.114 -98.0154 -25.522C-98.7474 -25.942 -99.3234 -26.518 -99.7434 -27.25C-100.163 -27.982 -100.373 -28.81 -100.373 -29.734C-100.373 -30.658 -100.163 -31.486 -99.7434 -32.218C-99.3234 -32.95 -98.7474 -33.52 -98.0154 -33.928C-97.2834 -34.336 -96.4614 -34.54 -95.5494 -34.54C-94.6374 -34.54 -93.8154 -34.336 -93.0834 -33.928C-92.3514 -33.52 -91.7814 -32.95 -91.3734 -32.218C-90.9534 -31.486 -90.7434 -30.658 -90.7434 -29.734C-90.7434 -28.81 -90.9534 -27.982 -91.3734 -27.25C-91.7814 -26.518 -92.3514 -25.942 -93.0834 -25.522C-93.8154 -25.114 -94.6374 -24.91 -95.5494 -24.91ZM-95.5494 -26.044C-94.8774 -26.044 -94.2774 -26.194 -93.7494 -26.494C-93.2094 -26.806 -92.7894 -27.244 -92.4894 -27.808C-92.1894 -28.372 -92.0394 -29.014 -92.0394 -29.734C-92.0394 -30.454 -92.1894 -31.096 -92.4894 -31.66C-92.7894 -32.224 -93.2094 -32.656 -93.7494 -32.956C-94.2774 -33.268 -94.8774 -33.424 -95.5494 -33.424C-96.2214 -33.424 -96.8274 -33.268 -97.3674 -32.956C-97.8954 -32.656 -98.3154 -32.224 -98.6274 -31.66C-98.9274 -31.096 -99.0774 -30.454 -99.0774 -29.734C-99.0774 -29.014 -98.9274 -28.372 -98.6274 -27.808C-98.3154 -27.244 -97.8954 -26.806 -97.3674 -26.494C-96.8274 -26.194 -96.2214 -26.044 -95.5494 -26.044ZM-81.3161 -33.334H-86.7341V-25H-88.0121V-34.468H-81.3161V-33.334ZM-79.4691 -34.468H-78.1911V-26.944L-71.8731 -34.468H-70.7391V-25H-72.0171V-32.524L-78.3171 -25H-79.4691V-34.468ZM-67.0765 -34.468H-65.7985V-30.274H-59.8405V-34.468H-58.5625V-25H-59.8405V-29.176H-65.7985V-25H-67.0765V-34.468ZM-51.024 -24.91C-51.936 -24.91 -52.758 -25.114 -53.49 -25.522C-54.222 -25.942 -54.798 -26.518 -55.218 -27.25C-55.638 -27.982 -55.848 -28.81 -55.848 -29.734C-55.848 -30.658 -55.638 -31.486 -55.218 -32.218C-54.798 -32.95 -54.222 -33.52 -53.49 -33.928C-52.758 -34.336 -51.936 -34.54 -51.024 -34.54C-50.112 -34.54 -49.29 -34.336 -48.558 -33.928C-47.826 -33.52 -47.256 -32.95 -46.848 -32.218C-46.428 -31.486 -46.218 -30.658 -46.218 -29.734C-46.218 -28.81 -46.428 -27.982 -46.848 -27.25C-47.256 -26.518 -47.826 -25.942 -48.558 -25.522C-49.29 -25.114 -50.112 -24.91 -51.024 -24.91ZM-51.024 -26.044C-50.352 -26.044 -49.752 -26.194 -49.224 -26.494C-48.684 -26.806 -48.264 -27.244 -47.964 -27.808C-47.664 -28.372 -47.514 -29.014 -47.514 -29.734C-47.514 -30.454 -47.664 -31.096 -47.964 -31.66C-48.264 -32.224 -48.684 -32.656 -49.224 -32.956C-49.752 -33.268 -50.352 -33.424 -51.024 -33.424C-51.696 -33.424 -52.302 -33.268 -52.842 -32.956C-53.37 -32.656 -53.79 -32.224 -54.102 -31.66C-54.402 -31.096 -54.552 -30.454 -54.552 -29.734C-54.552 -29.014 -54.402 -28.372 -54.102 -27.808C-53.79 -27.244 -53.37 -26.806 -52.842 -26.494C-52.302 -26.194 -51.696 -26.044 -51.024 -26.044ZM-32.9027 -34.468V-25H-34.0727V-32.488L-37.9067 -26.152H-38.4827L-42.3167 -32.506V-25H-43.4867V-34.468H-42.1907L-38.1767 -27.646L-34.0907 -34.468H-32.9027ZM-24.555 -34.468H-23.277V-26.944L-16.959 -34.468H-15.825V-25H-17.103V-32.524L-23.403 -25H-24.555V-34.468ZM1.04447 -34.468V-25H-0.233531V-33.334H-6.17353V-25H-7.45153V-34.468H1.04447ZM7.93538 -34.54C9.17138 -34.54 10.1194 -34.228 10.7794 -33.604C11.4394 -32.992 11.7694 -32.08 11.7694 -30.868V-25H10.5454V-26.476C10.2574 -25.984 9.83138 -25.6 9.26738 -25.324C8.71538 -25.048 8.05538 -24.91 7.28738 -24.91C6.23138 -24.91 5.39138 -25.162 4.76738 -25.666C4.14338 -26.17 3.83138 -26.836 3.83138 -27.664C3.83138 -28.468 4.11938 -29.116 4.69538 -29.608C5.28338 -30.1 6.21338 -30.346 7.48537 -30.346H10.4914V-30.922C10.4914 -31.738 10.2634 -32.356 9.80738 -32.776C9.35138 -33.208 8.68538 -33.424 7.80938 -33.424C7.20938 -33.424 6.63338 -33.322 6.08138 -33.118C5.52938 -32.926 5.05538 -32.656 4.65938 -32.308L4.08338 -33.262C4.56338 -33.67 5.13938 -33.982 5.81138 -34.198C6.48338 -34.426 7.19138 -34.54 7.93538 -34.54ZM7.48537 -25.918C8.20538 -25.918 8.82338 -26.08 9.33938 -26.404C9.85538 -26.74 10.2394 -27.22 10.4914 -27.844V-29.392H7.52138C5.90138 -29.392 5.09138 -28.828 5.09138 -27.7C5.09138 -27.148 5.30138 -26.71 5.72138 -26.386C6.14138 -26.074 6.72938 -25.918 7.48537 -25.918ZM20.0495 -34.54C20.9375 -34.54 21.7415 -34.336 22.4615 -33.928C23.1815 -33.532 23.7455 -32.968 24.1535 -32.236C24.5615 -31.504 24.7655 -30.67 24.7655 -29.734C24.7655 -28.786 24.5615 -27.946 24.1535 -27.214C23.7455 -26.482 23.1815 -25.912 22.4615 -25.504C21.7535 -25.108 20.9495 -24.91 20.0495 -24.91C19.2815 -24.91 18.5855 -25.066 17.9615 -25.378C17.3495 -25.702 16.8455 -26.17 16.4495 -26.782V-21.508H15.1715V-34.468H16.3955V-32.596C16.7795 -33.22 17.2835 -33.7 17.9075 -34.036C18.5435 -34.372 19.2575 -34.54 20.0495 -34.54ZM19.9595 -26.044C20.6195 -26.044 21.2195 -26.194 21.7595 -26.494C22.2995 -26.806 22.7195 -27.244 23.0195 -27.808C23.3315 -28.372 23.4875 -29.014 23.4875 -29.734C23.4875 -30.454 23.3315 -31.09 23.0195 -31.642C22.7195 -32.206 22.2995 -32.644 21.7595 -32.956C21.2195 -33.268 20.6195 -33.424 19.9595 -33.424C19.2875 -33.424 18.6815 -33.268 18.1415 -32.956C17.6135 -32.644 17.1935 -32.206 16.8815 -31.642C16.5815 -31.09 16.4315 -30.454 16.4315 -29.734C16.4315 -29.014 16.5815 -28.372 16.8815 -27.808C17.1935 -27.244 17.6135 -26.806 18.1415 -26.494C18.6815 -26.194 19.2875 -26.044 19.9595 -26.044ZM31.4174 -24.91C30.5054 -24.91 29.6834 -25.114 28.9514 -25.522C28.2194 -25.942 27.6434 -26.518 27.2234 -27.25C26.8034 -27.982 26.5934 -28.81 26.5934 -29.734C26.5934 -30.658 26.8034 -31.486 27.2234 -32.218C27.6434 -32.95 28.2194 -33.52 28.9514 -33.928C29.6834 -34.336 30.5054 -34.54 31.4174 -34.54C32.3294 -34.54 33.1514 -34.336 33.8834 -33.928C34.6154 -33.52 35.1854 -32.95 35.5934 -32.218C36.0134 -31.486 36.2234 -30.658 36.2234 -29.734C36.2234 -28.81 36.0134 -27.982 35.5934 -27.25C35.1854 -26.518 34.6154 -25.942 33.8834 -25.522C33.1514 -25.114 32.3294 -24.91 31.4174 -24.91ZM31.4174 -26.044C32.0894 -26.044 32.6894 -26.194 33.2174 -26.494C33.7574 -26.806 34.1774 -27.244 34.4774 -27.808C34.7774 -28.372 34.9274 -29.014 34.9274 -29.734C34.9274 -30.454 34.7774 -31.096 34.4774 -31.66C34.1774 -32.224 33.7574 -32.656 33.2174 -32.956C32.6894 -33.268 32.0894 -33.424 31.4174 -33.424C30.7454 -33.424 30.1394 -33.268 29.5994 -32.956C29.0714 -32.656 28.6514 -32.224 28.3394 -31.66C28.0394 -31.096 27.8894 -30.454 27.8894 -29.734C27.8894 -29.014 28.0394 -28.372 28.3394 -27.808C28.6514 -27.244 29.0714 -26.806 29.5994 -26.494C30.1394 -26.194 30.7454 -26.044 31.4174 -26.044ZM46.642 -34.468V-25H45.364V-33.334H40.828L40.702 -30.994C40.606 -29.026 40.378 -27.514 40.018 -26.458C39.658 -25.402 39.016 -24.874 38.092 -24.874C37.84 -24.874 37.534 -24.922 37.174 -25.018L37.264 -26.116C37.48 -26.068 37.63 -26.044 37.714 -26.044C38.206 -26.044 38.578 -26.272 38.83 -26.728C39.082 -27.184 39.25 -27.748 39.334 -28.42C39.418 -29.092 39.49 -29.98 39.55 -31.084L39.712 -34.468H46.642ZM58.555 -29.338H50.635C50.707 -28.354 51.085 -27.556 51.769 -26.944C52.453 -26.344 53.317 -26.044 54.361 -26.044C54.949 -26.044 55.489 -26.146 55.981 -26.35C56.473 -26.566 56.899 -26.878 57.259 -27.286L57.979 -26.458C57.559 -25.954 57.031 -25.57 56.395 -25.306C55.771 -25.042 55.081 -24.91 54.325 -24.91C53.353 -24.91 52.489 -25.114 51.733 -25.522C50.989 -25.942 50.407 -26.518 49.987 -27.25C49.567 -27.982 49.357 -28.81 49.357 -29.734C49.357 -30.658 49.555 -31.486 49.951 -32.218C50.359 -32.95 50.911 -33.52 51.607 -33.928C52.315 -34.336 53.107 -34.54 53.983 -34.54C54.859 -34.54 55.645 -34.336 56.341 -33.928C57.037 -33.52 57.583 -32.95 57.979 -32.218C58.375 -31.498 58.573 -30.67 58.573 -29.734L58.555 -29.338ZM53.983 -33.442C53.071 -33.442 52.303 -33.148 51.679 -32.56C51.067 -31.984 50.719 -31.228 50.635 -30.292H57.349C57.265 -31.228 56.911 -31.984 56.287 -32.56C55.675 -33.148 54.907 -33.442 53.983 -33.442ZM71.986 -34.468V-25H70.816V-32.488L66.982 -26.152H66.406L62.572 -32.506V-25H61.402V-34.468H62.698L66.712 -27.646L70.798 -34.468H71.986ZM75.7307 -26.872C76.0067 -26.872 76.2347 -26.776 76.4147 -26.584C76.5947 -26.404 76.6847 -26.176 76.6847 -25.9C76.6847 -25.756 76.6607 -25.6 76.6127 -25.432C76.5767 -25.264 76.5167 -25.072 76.4327 -24.856L75.6767 -22.372H74.8127L75.4247 -24.982C75.2327 -25.042 75.0767 -25.15 74.9567 -25.306C74.8367 -25.474 74.7767 -25.672 74.7767 -25.9C74.7767 -26.176 74.8667 -26.404 75.0467 -26.584C75.2267 -26.776 75.4547 -26.872 75.7307 -26.872ZM87.5861 -29.212H85.4261V-25H84.1481V-34.468H85.4261V-30.31H87.6041L90.9341 -34.468H92.3201L88.5941 -29.878L92.5901 -25H91.0781L87.5861 -29.212ZM98.1791 -24.91C97.2671 -24.91 96.4451 -25.114 95.7131 -25.522C94.9811 -25.942 94.4051 -26.518 93.9851 -27.25C93.5651 -27.982 93.3551 -28.81 93.3551 -29.734C93.3551 -30.658 93.5651 -31.486 93.9851 -32.218C94.4051 -32.95 94.9811 -33.52 95.7131 -33.928C96.4451 -34.336 97.2671 -34.54 98.1791 -34.54C99.0911 -34.54 99.9131 -34.336 100.645 -33.928C101.377 -33.52 101.947 -32.95 102.355 -32.218C102.775 -31.486 102.985 -30.658 102.985 -29.734C102.985 -28.81 102.775 -27.982 102.355 -27.25C101.947 -26.518 101.377 -25.942 100.645 -25.522C99.9131 -25.114 99.0911 -24.91 98.1791 -24.91ZM98.1791 -26.044C98.8511 -26.044 99.4511 -26.194 99.9791 -26.494C100.519 -26.806 100.939 -27.244 101.239 -27.808C101.539 -28.372 101.689 -29.014 101.689 -29.734C101.689 -30.454 101.539 -31.096 101.239 -31.66C100.939 -32.224 100.519 -32.656 99.9791 -32.956C99.4511 -33.268 98.8511 -33.424 98.1791 -33.424C97.5071 -33.424 96.9011 -33.268 96.3611 -32.956C95.8331 -32.656 95.4131 -32.224 95.1011 -31.66C94.8011 -31.096 94.6511 -30.454 94.6511 -29.734C94.6511 -29.014 94.8011 -28.372 95.1011 -27.808C95.4131 -27.244 95.8331 -26.806 96.3611 -26.494C96.9011 -26.194 97.5071 -26.044 98.1791 -26.044ZM112.025 -33.334H108.443V-25H107.165V-33.334H103.583V-34.468H112.025V-33.334ZM117.339 -24.91C116.427 -24.91 115.605 -25.114 114.873 -25.522C114.141 -25.942 113.565 -26.518 113.145 -27.25C112.725 -27.982 112.515 -28.81 112.515 -29.734C112.515 -30.658 112.725 -31.486 113.145 -32.218C113.565 -32.95 114.141 -33.52 114.873 -33.928C115.605 -34.336 116.427 -34.54 117.339 -34.54C118.251 -34.54 119.073 -34.336 119.805 -33.928C120.537 -33.52 121.107 -32.95 121.515 -32.218C121.935 -31.486 122.145 -30.658 122.145 -29.734C122.145 -28.81 121.935 -27.982 121.515 -27.25C121.107 -26.518 120.537 -25.942 119.805 -25.522C119.073 -25.114 118.251 -24.91 117.339 -24.91ZM117.339 -26.044C118.011 -26.044 118.611 -26.194 119.139 -26.494C119.679 -26.806 120.099 -27.244 120.399 -27.808C120.699 -28.372 120.849 -29.014 120.849 -29.734C120.849 -30.454 120.699 -31.096 120.399 -31.66C120.099 -32.224 119.679 -32.656 119.139 -32.956C118.611 -33.268 118.011 -33.424 117.339 -33.424C116.667 -33.424 116.061 -33.268 115.521 -32.956C114.993 -32.656 114.573 -32.224 114.261 -31.66C113.961 -31.096 113.811 -30.454 113.811 -29.734C113.811 -29.014 113.961 -28.372 114.261 -27.808C114.573 -27.244 114.993 -26.806 115.521 -26.494C116.061 -26.194 116.667 -26.044 117.339 -26.044ZM129.755 -34.54C130.643 -34.54 131.447 -34.336 132.167 -33.928C132.887 -33.532 133.451 -32.968 133.859 -32.236C134.267 -31.504 134.471 -30.67 134.471 -29.734C134.471 -28.786 134.267 -27.946 133.859 -27.214C133.451 -26.482 132.887 -25.912 132.167 -25.504C131.459 -25.108 130.655 -24.91 129.755 -24.91C128.987 -24.91 128.291 -25.066 127.667 -25.378C127.055 -25.702 126.551 -26.17 126.155 -26.782V-21.508H124.877V-34.468H126.101V-32.596C126.485 -33.22 126.989 -33.7 127.613 -34.036C128.249 -34.372 128.963 -34.54 129.755 -34.54ZM129.665 -26.044C130.325 -26.044 130.925 -26.194 131.465 -26.494C132.005 -26.806 132.425 -27.244 132.725 -27.808C133.037 -28.372 133.193 -29.014 133.193 -29.734C133.193 -30.454 133.037 -31.09 132.725 -31.642C132.425 -32.206 132.005 -32.644 131.465 -32.956C130.925 -33.268 130.325 -33.424 129.665 -33.424C128.993 -33.424 128.387 -33.268 127.847 -32.956C127.319 -32.644 126.899 -32.206 126.587 -31.642C126.287 -31.09 126.137 -30.454 126.137 -29.734C126.137 -29.014 126.287 -28.372 126.587 -27.808C126.899 -27.244 127.319 -26.806 127.847 -26.494C128.387 -26.194 128.993 -26.044 129.665 -26.044ZM141.194 -31.12C142.382 -31.108 143.288 -30.844 143.912 -30.328C144.536 -29.812 144.848 -29.068 144.848 -28.096C144.848 -27.088 144.512 -26.314 143.84 -25.774C143.168 -25.234 142.208 -24.97 140.96 -24.982L137.216 -25V-34.468H138.494V-31.156L141.194 -31.12ZM146.432 -34.468H147.71V-25H146.432V-34.468ZM140.888 -25.954C141.764 -25.942 142.424 -26.116 142.868 -26.476C143.324 -26.848 143.552 -27.388 143.552 -28.096C143.552 -28.792 143.33 -29.308 142.886 -29.644C142.442 -29.98 141.776 -30.154 140.888 -30.166L138.494 -30.202V-25.99L140.888 -25.954ZM159.629 -29.338H151.709C151.781 -28.354 152.159 -27.556 152.843 -26.944C153.527 -26.344 154.391 -26.044 155.435 -26.044C156.023 -26.044 156.563 -26.146 157.055 -26.35C157.547 -26.566 157.973 -26.878 158.333 -27.286L159.053 -26.458C158.633 -25.954 158.105 -25.57 157.469 -25.306C156.845 -25.042 156.155 -24.91 155.399 -24.91C154.427 -24.91 153.563 -25.114 152.807 -25.522C152.063 -25.942 151.481 -26.518 151.061 -27.25C150.641 -27.982 150.431 -28.81 150.431 -29.734C150.431 -30.658 150.629 -31.486 151.025 -32.218C151.433 -32.95 151.985 -33.52 152.681 -33.928C153.389 -34.336 154.181 -34.54 155.057 -34.54C155.933 -34.54 156.719 -34.336 157.415 -33.928C158.111 -33.52 158.657 -32.95 159.053 -32.218C159.449 -31.498 159.647 -30.67 159.647 -29.734L159.629 -29.338ZM155.057 -33.442C154.145 -33.442 153.377 -33.148 152.753 -32.56C152.141 -31.984 151.793 -31.228 151.709 -30.292H158.423C158.339 -31.228 157.985 -31.984 157.361 -32.56C156.749 -33.148 155.981 -33.442 155.057 -33.442ZM173.217 -29.896C174.501 -29.596 175.143 -28.822 175.143 -27.574C175.143 -26.746 174.837 -26.11 174.225 -25.666C173.613 -25.222 172.701 -25 171.489 -25H167.187V-34.468H171.363C172.443 -34.468 173.289 -34.258 173.901 -33.838C174.513 -33.418 174.819 -32.818 174.819 -32.038C174.819 -31.522 174.675 -31.078 174.387 -30.706C174.111 -30.346 173.721 -30.076 173.217 -29.896ZM168.429 -30.256H171.273C172.005 -30.256 172.563 -30.394 172.947 -30.67C173.343 -30.946 173.541 -31.348 173.541 -31.876C173.541 -32.404 173.343 -32.8 172.947 -33.064C172.563 -33.328 172.005 -33.46 171.273 -33.46H168.429V-30.256ZM171.435 -26.008C172.251 -26.008 172.863 -26.14 173.271 -26.404C173.679 -26.668 173.883 -27.082 173.883 -27.646C173.883 -28.21 173.697 -28.624 173.325 -28.888C172.953 -29.164 172.365 -29.302 171.561 -29.302H168.429V-26.008H171.435ZM181.396 -34.54C182.632 -34.54 183.58 -34.228 184.24 -33.604C184.9 -32.992 185.23 -32.08 185.23 -30.868V-25H184.006V-26.476C183.718 -25.984 183.292 -25.6 182.728 -25.324C182.176 -25.048 181.516 -24.91 180.748 -24.91C179.692 -24.91 178.852 -25.162 178.228 -25.666C177.604 -26.17 177.292 -26.836 177.292 -27.664C177.292 -28.468 177.58 -29.116 178.156 -29.608C178.744 -30.1 179.674 -30.346 180.946 -30.346H183.952V-30.922C183.952 -31.738 183.724 -32.356 183.268 -32.776C182.812 -33.208 182.146 -33.424 181.27 -33.424C180.67 -33.424 180.094 -33.322 179.542 -33.118C178.99 -32.926 178.516 -32.656 178.12 -32.308L177.544 -33.262C178.024 -33.67 178.6 -33.982 179.272 -34.198C179.944 -34.426 180.652 -34.54 181.396 -34.54ZM180.946 -25.918C181.666 -25.918 182.284 -26.08 182.8 -26.404C183.316 -26.74 183.7 -27.22 183.952 -27.844V-29.392H180.982C179.362 -29.392 178.552 -28.828 178.552 -27.7C178.552 -27.148 178.762 -26.71 179.182 -26.386C179.602 -26.074 180.19 -25.918 180.946 -25.918ZM199.216 -34.468V-25H198.046V-32.488L194.212 -26.152H193.636L189.802 -32.506V-25H188.632V-34.468H189.928L193.942 -27.646L198.028 -34.468H199.216ZM-205.152 -4.896C-203.868 -4.596 -203.226 -3.822 -203.226 -2.574C-203.226 -1.746 -203.532 -1.11 -204.144 -0.666C-204.756 -0.222 -205.668 0 -206.88 0H-211.182V-9.468H-207.006C-205.926 -9.468 -205.08 -9.258 -204.468 -8.838C-203.856 -8.418 -203.55 -7.818 -203.55 -7.038C-203.55 -6.522 -203.694 -6.078 -203.982 -5.706C-204.258 -5.346 -204.648 -5.076 -205.152 -4.896ZM-209.94 -5.256H-207.096C-206.364 -5.256 -205.806 -5.394 -205.422 -5.67C-205.026 -5.946 -204.828 -6.348 -204.828 -6.876C-204.828 -7.404 -205.026 -7.8 -205.422 -8.064C-205.806 -8.328 -206.364 -8.46 -207.096 -8.46H-209.94V-5.256ZM-206.934 -1.008C-206.118 -1.008 -205.506 -1.14 -205.098 -1.404C-204.69 -1.668 -204.486 -2.082 -204.486 -2.646C-204.486 -3.21 -204.672 -3.624 -205.044 -3.888C-205.416 -4.164 -206.004 -4.302 -206.808 -4.302H-209.94V-1.008H-206.934ZM-196.253 -6.12C-195.065 -6.108 -194.159 -5.844 -193.535 -5.328C-192.911 -4.812 -192.599 -4.068 -192.599 -3.096C-192.599 -2.088 -192.935 -1.314 -193.607 -0.774C-194.279 -0.234 -195.239 0.03 -196.487 0.018L-200.231 0V-9.468H-198.953V-6.156L-196.253 -6.12ZM-191.015 -9.468H-189.737V0H-191.015V-9.468ZM-196.559 -0.954C-195.683 -0.942 -195.023 -1.116 -194.579 -1.476C-194.123 -1.848 -193.895 -2.388 -193.895 -3.096C-193.895 -3.792 -194.117 -4.308 -194.561 -4.644C-195.005 -4.98 -195.671 -5.154 -196.559 -5.166L-198.953 -5.202V-0.99L-196.559 -0.954ZM-176.864 -1.116V2.286H-178.07V0H-186.548V2.286H-187.754V-1.116H-187.214C-186.578 -1.152 -186.146 -1.62 -185.918 -2.52C-185.69 -3.42 -185.534 -4.68 -185.45 -6.3L-185.324 -9.468H-178.34V-1.116H-176.864ZM-184.28 -6.228C-184.34 -4.884 -184.454 -3.774 -184.622 -2.898C-184.79 -2.034 -185.09 -1.44 -185.522 -1.116H-179.618V-8.334H-184.172L-184.28 -6.228ZM-171.115 -9.54C-169.879 -9.54 -168.931 -9.228 -168.271 -8.604C-167.611 -7.992 -167.281 -7.08 -167.281 -5.868V0H-168.505V-1.476C-168.793 -0.984 -169.219 -0.6 -169.783 -0.324C-170.335 -0.048 -170.995 0.09 -171.763 0.09C-172.819 0.09 -173.659 -0.162 -174.283 -0.666C-174.907 -1.17 -175.219 -1.836 -175.219 -2.664C-175.219 -3.468 -174.931 -4.116 -174.355 -4.608C-173.767 -5.1 -172.837 -5.346 -171.565 -5.346H-168.559V-5.922C-168.559 -6.738 -168.787 -7.356 -169.243 -7.776C-169.699 -8.208 -170.365 -8.424 -171.241 -8.424C-171.841 -8.424 -172.417 -8.322 -172.969 -8.118C-173.521 -7.926 -173.995 -7.656 -174.391 -7.308L-174.967 -8.262C-174.487 -8.67 -173.911 -8.982 -173.239 -9.198C-172.567 -9.426 -171.859 -9.54 -171.115 -9.54ZM-171.565 -0.918C-170.845 -0.918 -170.227 -1.08 -169.711 -1.404C-169.195 -1.74 -168.811 -2.22 -168.559 -2.844V-4.392H-171.529C-173.149 -4.392 -173.959 -3.828 -173.959 -2.7C-173.959 -2.148 -173.749 -1.71 -173.329 -1.386C-172.909 -1.074 -172.321 -0.918 -171.565 -0.918ZM-156.139 -9.468V0H-157.417V-8.334H-161.953L-162.079 -5.994C-162.175 -4.026 -162.403 -2.514 -162.763 -1.458C-163.123 -0.402 -163.765 0.126 -164.689 0.126C-164.941 0.126 -165.247 0.078 -165.607 -0.018L-165.517 -1.116C-165.301 -1.068 -165.151 -1.044 -165.067 -1.044C-164.575 -1.044 -164.203 -1.272 -163.951 -1.728C-163.699 -2.184 -163.531 -2.748 -163.447 -3.42C-163.363 -4.092 -163.291 -4.98 -163.231 -6.084L-163.069 -9.468H-156.139ZM-152.506 -9.468H-151.228V-1.944L-144.91 -9.468H-143.776V0H-145.054V-7.524L-151.354 0H-152.506V-9.468ZM-126.907 -9.468V0H-128.185V-8.334H-134.125V0H-135.403V-9.468H-126.907ZM-118.396 -9.54C-117.508 -9.54 -116.704 -9.336 -115.984 -8.928C-115.264 -8.532 -114.7 -7.968 -114.292 -7.236C-113.884 -6.504 -113.68 -5.67 -113.68 -4.734C-113.68 -3.786 -113.884 -2.946 -114.292 -2.214C-114.7 -1.482 -115.264 -0.912 -115.984 -0.504C-116.692 -0.108 -117.496 0.09 -118.396 0.09C-119.164 0.09 -119.86 -0.066 -120.484 -0.378C-121.096 -0.702 -121.6 -1.17 -121.996 -1.782V3.492H-123.274V-9.468H-122.05V-7.596C-121.666 -8.22 -121.162 -8.7 -120.538 -9.036C-119.902 -9.372 -119.188 -9.54 -118.396 -9.54ZM-118.486 -1.044C-117.826 -1.044 -117.226 -1.194 -116.686 -1.494C-116.146 -1.806 -115.726 -2.244 -115.426 -2.808C-115.114 -3.372 -114.958 -4.014 -114.958 -4.734C-114.958 -5.454 -115.114 -6.09 -115.426 -6.642C-115.726 -7.206 -116.146 -7.644 -116.686 -7.956C-117.226 -8.268 -117.826 -8.424 -118.486 -8.424C-119.158 -8.424 -119.764 -8.268 -120.304 -7.956C-120.832 -7.644 -121.252 -7.206 -121.564 -6.642C-121.864 -6.09 -122.014 -5.454 -122.014 -4.734C-122.014 -4.014 -121.864 -3.372 -121.564 -2.808C-121.252 -2.244 -120.832 -1.806 -120.304 -1.494C-119.764 -1.194 -119.158 -1.044 -118.486 -1.044ZM-110.934 -9.468H-109.656V-1.944L-103.338 -9.468H-102.204V0H-103.482V-7.524L-109.782 0H-110.934V-9.468ZM-89.2224 -4.932C-88.5504 -4.776 -88.0344 -4.506 -87.6744 -4.122C-87.3024 -3.738 -87.1164 -3.27 -87.1164 -2.718C-87.1164 -2.166 -87.3084 -1.674 -87.6924 -1.242C-88.0644 -0.81 -88.5744 -0.474 -89.2224 -0.234C-89.8704 -0.006 -90.5844 0.108 -91.3644 0.108C-92.0484 0.108 -92.7204 0.012 -93.3804 -0.18C-94.0404 -0.384 -94.6164 -0.678 -95.1084 -1.062L-94.6764 -2.016C-94.2444 -1.692 -93.7404 -1.44 -93.1644 -1.26C-92.5884 -1.08 -92.0064 -0.99 -91.4184 -0.99C-90.5424 -0.99 -89.8284 -1.152 -89.2764 -1.476C-88.7124 -1.812 -88.4304 -2.262 -88.4304 -2.826C-88.4304 -3.33 -88.6584 -3.72 -89.1144 -3.996C-89.5704 -4.284 -90.1944 -4.428 -90.9864 -4.428H-92.6064V-5.364H-91.0584C-90.3504 -5.364 -89.7804 -5.496 -89.3484 -5.76C-88.9164 -6.036 -88.7004 -6.402 -88.7004 -6.858C-88.7004 -7.362 -88.9464 -7.758 -89.4384 -8.046C-89.9184 -8.334 -90.5484 -8.478 -91.3284 -8.478C-92.3484 -8.478 -93.3564 -8.22 -94.3524 -7.704L-94.7124 -8.694C-93.5844 -9.282 -92.4144 -9.576 -91.2024 -9.576C-90.4824 -9.576 -89.8344 -9.468 -89.2584 -9.252C-88.6704 -9.048 -88.2144 -8.754 -87.8904 -8.37C-87.5544 -7.986 -87.3864 -7.542 -87.3864 -7.038C-87.3864 -6.558 -87.5544 -6.132 -87.8904 -5.76C-88.2144 -5.388 -88.6584 -5.112 -89.2224 -4.932ZM-80.9572 -9.54C-79.7212 -9.54 -78.7732 -9.228 -78.1132 -8.604C-77.4532 -7.992 -77.1232 -7.08 -77.1232 -5.868V0H-78.3472V-1.476C-78.6352 -0.984 -79.0612 -0.6 -79.6252 -0.324C-80.1772 -0.048 -80.8372 0.09 -81.6052 0.09C-82.6612 0.09 -83.5012 -0.162 -84.1252 -0.666C-84.7492 -1.17 -85.0612 -1.836 -85.0612 -2.664C-85.0612 -3.468 -84.7732 -4.116 -84.1972 -4.608C-83.6092 -5.1 -82.6792 -5.346 -81.4072 -5.346H-78.4012V-5.922C-78.4012 -6.738 -78.6292 -7.356 -79.0852 -7.776C-79.5412 -8.208 -80.2072 -8.424 -81.0832 -8.424C-81.6832 -8.424 -82.2592 -8.322 -82.8112 -8.118C-83.3632 -7.926 -83.8372 -7.656 -84.2332 -7.308L-84.8092 -8.262C-84.3292 -8.67 -83.7532 -8.982 -83.0812 -9.198C-82.4092 -9.426 -81.7012 -9.54 -80.9572 -9.54ZM-81.4072 -0.918C-80.6872 -0.918 -80.0692 -1.08 -79.5532 -1.404C-79.0372 -1.74 -78.6532 -2.22 -78.4012 -2.844V-4.392H-81.3712C-82.9912 -4.392 -83.8012 -3.828 -83.8012 -2.7C-83.8012 -2.148 -83.5912 -1.71 -83.1712 -1.386C-82.7512 -1.074 -82.1632 -0.918 -81.4072 -0.918ZM-69.7611 0.09C-70.6971 0.09 -71.5371 -0.114 -72.2811 -0.522C-73.0131 -0.93 -73.5891 -1.5 -74.0091 -2.232C-74.4291 -2.976 -74.6391 -3.81 -74.6391 -4.734C-74.6391 -5.658 -74.4291 -6.486 -74.0091 -7.218C-73.5891 -7.95 -73.0131 -8.52 -72.2811 -8.928C-71.5371 -9.336 -70.6971 -9.54 -69.7611 -9.54C-68.9451 -9.54 -68.2191 -9.378 -67.5831 -9.054C-66.9351 -8.742 -66.4251 -8.28 -66.0531 -7.668L-67.0071 -7.02C-67.3191 -7.488 -67.7151 -7.836 -68.1951 -8.064C-68.6751 -8.304 -69.1971 -8.424 -69.7611 -8.424C-70.4451 -8.424 -71.0631 -8.268 -71.6151 -7.956C-72.1551 -7.656 -72.5811 -7.224 -72.8931 -6.66C-73.1931 -6.096 -73.3431 -5.454 -73.3431 -4.734C-73.3431 -4.002 -73.1931 -3.354 -72.8931 -2.79C-72.5811 -2.238 -72.1551 -1.806 -71.6151 -1.494C-71.0631 -1.194 -70.4451 -1.044 -69.7611 -1.044C-69.1971 -1.044 -68.6751 -1.158 -68.1951 -1.386C-67.7151 -1.614 -67.3191 -1.962 -67.0071 -2.43L-66.0531 -1.782C-66.4251 -1.17 -66.9351 -0.702 -67.5831 -0.378C-68.2311 -0.066 -68.9571 0.09 -69.7611 0.09ZM-55.4567 -4.338H-63.3767C-63.3047 -3.354 -62.9267 -2.556 -62.2427 -1.944C-61.5587 -1.344 -60.6947 -1.044 -59.6507 -1.044C-59.0627 -1.044 -58.5227 -1.146 -58.0307 -1.35C-57.5387 -1.566 -57.1127 -1.878 -56.7527 -2.286L-56.0327 -1.458C-56.4527 -0.954 -56.9807 -0.57 -57.6167 -0.306C-58.2407 -0.042 -58.9307 0.09 -59.6867 0.09C-60.6587 0.09 -61.5227 -0.114 -62.2787 -0.522C-63.0227 -0.942 -63.6047 -1.518 -64.0247 -2.25C-64.4447 -2.982 -64.6547 -3.81 -64.6547 -4.734C-64.6547 -5.658 -64.4567 -6.486 -64.0607 -7.218C-63.6527 -7.95 -63.1007 -8.52 -62.4047 -8.928C-61.6967 -9.336 -60.9047 -9.54 -60.0287 -9.54C-59.1527 -9.54 -58.3667 -9.336 -57.6707 -8.928C-56.9747 -8.52 -56.4287 -7.95 -56.0327 -7.218C-55.6367 -6.498 -55.4387 -5.67 -55.4387 -4.734L-55.4567 -4.338ZM-60.0287 -8.442C-60.9407 -8.442 -61.7087 -8.148 -62.3327 -7.56C-62.9447 -6.984 -63.2927 -6.228 -63.3767 -5.292H-56.6627C-56.7467 -6.228 -57.1007 -6.984 -57.7247 -7.56C-58.3367 -8.148 -59.1047 -8.442 -60.0287 -8.442ZM-45.0631 -9.468V0H-46.3411V-8.334H-50.8771L-51.0031 -5.994C-51.0991 -4.026 -51.3271 -2.514 -51.6871 -1.458C-52.0471 -0.402 -52.6891 0.126 -53.6131 0.126C-53.8651 0.126 -54.1711 0.078 -54.5311 -0.018L-54.4411 -1.116C-54.2251 -1.068 -54.0751 -1.044 -53.9911 -1.044C-53.4991 -1.044 -53.1271 -1.272 -52.8751 -1.728C-52.6231 -2.184 -52.4551 -2.748 -52.3711 -3.42C-52.2871 -4.092 -52.2151 -4.98 -52.1551 -6.084L-51.9931 -9.468H-45.0631ZM-33.15 -4.338H-41.07C-40.998 -3.354 -40.62 -2.556 -39.936 -1.944C-39.252 -1.344 -38.388 -1.044 -37.344 -1.044C-36.756 -1.044 -36.216 -1.146 -35.724 -1.35C-35.232 -1.566 -34.806 -1.878 -34.446 -2.286L-33.726 -1.458C-34.146 -0.954 -34.674 -0.57 -35.31 -0.306C-35.934 -0.042 -36.624 0.09 -37.38 0.09C-38.352 0.09 -39.216 -0.114 -39.972 -0.522C-40.716 -0.942 -41.298 -1.518 -41.718 -2.25C-42.138 -2.982 -42.348 -3.81 -42.348 -4.734C-42.348 -5.658 -42.15 -6.486 -41.754 -7.218C-41.346 -7.95 -40.794 -8.52 -40.098 -8.928C-39.39 -9.336 -38.598 -9.54 -37.722 -9.54C-36.846 -9.54 -36.06 -9.336 -35.364 -8.928C-34.668 -8.52 -34.122 -7.95 -33.726 -7.218C-33.33 -6.498 -33.132 -5.67 -33.132 -4.734L-33.15 -4.338ZM-37.722 -8.442C-38.634 -8.442 -39.402 -8.148 -40.026 -7.56C-40.638 -6.984 -40.986 -6.228 -41.07 -5.292H-34.356C-34.44 -6.228 -34.794 -6.984 -35.418 -7.56C-36.03 -8.148 -36.798 -8.442 -37.722 -8.442ZM-30.3031 -9.468H-29.0251V-5.274H-23.0671V-9.468H-21.7891V0H-23.0671V-4.176H-29.0251V0H-30.3031V-9.468ZM-18.1566 -9.468H-16.8786V-1.944L-10.5606 -9.468H-9.42661V0H-10.7046V-7.524L-17.0046 0H-18.1566V-9.468ZM-5.76403 -9.468H-4.48603V-1.944L1.83197 -9.468H2.96597V0H1.68797V-7.524L-4.61203 0H-5.76403V-9.468Z" fill="#242424"/>
<g id="Group 29" opacity="0.7">
<path id="Vector" d="M32.9859 16.7351C30.0587 21.7335 32.6307 29.0609 38.0231 31.1107C44.8463 33.6955 50.6069 26.7062 47.8593 19.2033C47.2708 17.6154 47.0767 17.318 45.4619 15.7032C43.8998 14.1411 43.5497 13.8944 42.2238 13.4299C40.6014 12.8758 38.7404 12.8411 37.0413 13.3818C35.8103 13.7704 33.7223 15.5073 32.9859 16.7351Z" fill="#F6A6BF"/>
<path id="Vector_2" d="M13.6442 36.6758C12.9794 38.113 12.9512 40.7037 13.5587 42.4483C14.0231 43.7742 14.2698 44.1243 15.8319 45.6864C17.4467 47.3012 17.7442 47.4953 19.332 48.0839C22.8742 49.3861 26.6248 48.7949 29.1426 46.5229C30.8499 44.9911 31.5668 43.537 31.6687 41.3991C31.8998 36.3235 27.3736 32.0385 21.7389 31.9862C19.1303 31.962 17.3281 32.6409 15.518 34.3456C14.5698 35.2237 13.9511 36.0179 13.6442 36.6758Z" fill="#F6A6BF"/>
<path id="Vector_3" d="M54.5004 18.8827C52.8401 21.7365 52.5194 24.6549 53.5909 27.6906C54.2168 29.5571 54.3755 29.7846 55.8499 31.259C57.1663 32.5754 57.6564 32.9278 58.6508 33.2674C60.2384 33.8212 62.0298 33.8552 63.7292 33.3493C64.9431 32.978 65.2886 32.7378 66.7531 31.2732C68.3038 29.7226 68.4237 29.5324 69.0327 27.6948C71.4514 20.3615 65.5766 13.1774 59.0063 15.3596C57.0819 15.9852 55.4419 17.2742 54.5004 18.8827Z" fill="#F6A6BF"/>
<path id="Vector_4" d="M16.1921 58.4877C15.287 60.2704 15.1503 62.408 15.8468 64.3795C16.2933 65.653 16.5754 66.073 17.8743 67.3719C19.2434 68.7409 19.5232 68.9174 21.3549 69.543C28.7519 72.1157 35.9138 66.2176 33.7461 59.3635C33.3873 58.1777 33.1406 57.8276 31.6662 56.3532C30.1921 54.9136 29.8069 54.6318 28.4986 54.185C25.4453 53.0959 21.7968 53.4446 19.2732 55.0906C17.7522 56.085 17.0292 56.8782 16.1921 58.4877Z" fill="#F6A6BF"/>
<path id="Vector_5" d="M38.1153 54.0836C36.902 50.7684 37.2287 46.6154 38.8887 43.7267C39.693 42.3257 41.8974 40.0159 43.2633 39.1765C46.2544 37.3088 50.6327 36.8973 54.0006 38.1632C55.8501 38.8412 55.8849 38.8415 57.7918 38.1984C62.1773 36.6914 67.4923 37.9058 70.7746 41.1881C75.0047 45.4182 75.8471 51.8775 72.798 56.8573C70.982 59.7966 67.6123 62.0782 64.2956 62.5865L62.7675 62.8157L62.5382 64.3439C61.9954 67.695 59.594 71.2549 56.6881 72.9321C48.2303 77.8444 37.7064 71.8692 37.5283 62.0425C37.4959 60.425 37.6761 59.2268 38.1504 57.8748C38.7766 56.02 38.776 55.9504 38.1153 54.0836Z" fill="#F6A6BF"/>
</g>
</g>
</g>
<defs>
<clipPath id="clip0_0_1">
<rect width="1600" height="10898" fill="white" transform="translate(-1063 -5336)"/>
</clipPath>
</defs>
</svg>
