<svg width="50" height="50" viewBox="0 0 50 50" fill="none" xmlns="http://www.w3.org/2000/svg">
<g id="fluent:animal-cat-20-regular">
<g id="Group">
<path id="Vector" d="M12.4244 45H35.6244C37.9919 45 39.9119 43.08 39.9119 40.71V21.685C43.9369 21.525 46.3444 17.06 44.1944 13.59L42.9394 11.565C42.4644 10.7977 41.8012 10.1644 41.0128 9.72512C40.2244 9.28587 39.3369 9.05521 38.4344 9.055H34.8469V7.465C34.8469 7.14129 34.7832 6.82075 34.6593 6.52169C34.5354 6.22262 34.3539 5.95088 34.125 5.72198C33.8961 5.49309 33.6243 5.31152 33.3253 5.18764C33.0262 5.06376 32.7057 5 32.3819 5C31.5792 5.00033 30.7845 5.15876 30.043 5.46624C29.3015 5.77373 28.6279 6.22425 28.0605 6.79208C27.4931 7.35991 27.0432 8.03393 26.7363 8.77566C26.4294 9.51739 26.2716 10.3123 26.2719 11.115V19.755C23.0769 20.07 20.6644 21.58 18.8919 23.71C16.9369 26.06 15.7844 29.1225 15.0994 32.065C14.4094 35.02 14.1669 37.96 14.0919 40.145C14.0619 41.08 14.0619 41.885 14.0719 42.5H12.4244C11.464 42.5001 10.5244 42.2195 9.72131 41.6926C8.9182 41.1658 8.28657 40.4158 7.90409 39.5347C7.52161 38.6537 7.40495 37.6801 7.56847 36.7336C7.73198 35.7872 8.16854 34.9091 8.82445 34.2075L11.1244 31.74C12.7096 30.0398 13.5731 27.7908 13.533 25.4666C13.4929 23.1424 12.5523 20.9245 10.9094 19.28L8.65195 17.0225C8.53664 16.9031 8.39871 16.8079 8.2462 16.7424C8.0937 16.6769 7.92967 16.6424 7.7637 16.6409C7.59773 16.6395 7.43313 16.6711 7.27951 16.734C7.12589 16.7968 6.98632 16.8896 6.86896 17.007C6.75159 17.1244 6.65877 17.2639 6.59592 17.4176C6.53307 17.5712 6.50144 17.7358 6.50289 17.9018C6.50433 18.0677 6.53881 18.2318 6.60432 18.3843C6.66983 18.5368 6.76506 18.6747 6.88445 18.79L9.14195 21.0475C10.328 22.2332 11.0071 23.8331 11.036 25.5099C11.0649 27.1867 10.4414 28.8092 9.29695 30.035L6.99695 32.5025C6.01124 33.5611 5.35584 34.8843 5.11109 36.3099C4.86633 37.7355 5.04287 39.2015 5.61905 40.5282C6.19523 41.8549 7.14602 42.9847 8.35485 43.779C9.56367 44.5733 10.978 44.9977 12.4244 45ZM32.3494 7.5V10.305C32.3494 10.6365 32.4811 10.9545 32.7156 11.1889C32.95 11.4233 33.2679 11.555 33.5994 11.555H38.4344C39.4044 11.555 40.3044 12.055 40.8144 12.88L42.0719 14.9075C42.3351 15.3322 42.4801 15.8195 42.4918 16.319C42.5036 16.8185 42.3817 17.3121 42.1388 17.7487C41.8959 18.1853 41.5408 18.5491 41.1102 18.8025C40.6796 19.0559 40.1891 19.1897 39.6894 19.19H38.6644C38.3329 19.19 38.015 19.3217 37.7806 19.5561C37.5461 19.7905 37.4144 20.1085 37.4144 20.44V40.71C37.4144 41.6975 36.6144 42.5 35.6244 42.5H33.8344V40.71C33.8351 38.7664 33.0638 36.9021 31.6902 35.5271C30.3166 34.152 28.4531 33.3788 26.5094 33.3775H23.9744C23.6429 33.3775 23.325 33.5092 23.0906 33.7436C22.8561 33.978 22.7244 34.296 22.7244 34.6275C22.7244 34.959 22.8561 35.277 23.0906 35.5114C23.325 35.7458 23.6429 35.8775 23.9744 35.8775H26.5069C29.1744 35.8775 31.3369 38.04 31.3369 40.71V42.5H16.5719C16.5594 41.915 16.5594 41.14 16.5894 40.2275C16.6594 38.1375 16.8894 35.3775 17.5319 32.6325C18.1744 29.8725 19.2069 27.235 20.8119 25.3075C22.3794 23.43 24.5069 22.195 27.5219 22.195C27.8535 22.195 28.1714 22.0633 28.4058 21.8289C28.6403 21.5945 28.7719 21.2765 28.7719 20.945V11.115C28.7719 9.13 30.3694 7.5175 32.3469 7.5H32.3494Z" fill="#F6A6BF"/>
</g>
</g>
</svg>
