<svg width="627" height="596" viewBox="0 0 627 596" fill="none" xmlns="http://www.w3.org/2000/svg">
<path fill-rule="evenodd" clip-rule="evenodd" d="M313.172 509.933C257.012 504.146 210.076 567.616 154.216 559.43C93.7512 550.57 12.6639 524.246 1.2149 464.218C-11.8884 395.517 84.9742 352.02 101.705 284.11C112.831 238.948 53.3773 187.737 78.9081 148.858C104.979 109.156 173.598 137.335 214.235 112.746C256.227 87.3364 266.526 22.3743 313.172 7.10565C360.65 -8.43555 418.856 2.11859 458.218 32.8823C497.203 63.3518 490.632 124.562 517.014 166.422C544.883 210.642 600.896 234.24 616.552 284.11C633.825 339.128 628.724 400.381 607.27 453.907C584.374 511.029 552.69 582.746 492.238 594.262C426.304 606.822 379.938 516.813 313.172 509.933Z" fill="#F9EAEF" fill-opacity="0.3"/>
</svg>
