<svg width="627" height="596" viewBox="0 0 627 596" fill="none" xmlns="http://www.w3.org/2000/svg">
<path fill-rule="evenodd" clip-rule="evenodd" d="M313.172 509.933C257.012 504.146 210.076 567.616 154.216 559.43C93.7512 550.57 12.6639 524.246 1.2149 464.218C-11.8884 395.517 84.9742 352.02 101.705 284.11C112.831 238.948 53.3773 187.737 78.9081 148.858C104.979 109.156 173.598 137.335 214.235 112.746C256.227 87.3364 266.526 22.3743 313.172 7.10565C360.65 -8.43555 418.856 2.11859 458.218 32.8823C497.203 63.3518 490.632 124.562 517.014 166.422C544.883 210.642 600.896 234.24 616.552 284.11C633.825 339.128 628.724 400.381 607.27 453.907C584.374 511.029 552.69 582.746 492.238 594.262C426.304 606.822 379.938 516.813 313.172 509.933Z" fill="#F9EAEF" fill-opacity="0.3"/>
<path d="M434.647 252.468C413.296 244.575 386.627 259.633 382.318 281.975C376.901 310.239 407.881 327.744 435.113 311.884C440.871 308.5 441.893 307.541 447.064 300.157C452.065 293.014 452.786 291.484 453.692 286.018C454.745 279.34 453.624 272.096 450.382 265.878C448.045 261.371 439.904 254.474 434.647 252.468ZM437.235 274.974C439.29 280.718 438.969 284.681 435.989 289.771C424.868 308.658 395.278 305.523 397.418 285.61C399.388 266.775 431.027 258.306 437.235 274.974Z" fill="white"/>
<path d="M344.295 191.24C338.276 189.656 328.214 191.343 321.861 194.909C317.034 197.629 315.843 198.829 310.841 205.973C305.671 213.357 305.119 214.645 303.909 221.214C301.25 235.859 306.072 250.001 316.578 258.195C323.668 263.757 329.788 265.531 338.144 264.444C357.976 261.823 371.533 241.293 367.935 219.395C366.269 209.257 362.422 202.736 354.592 196.895C350.549 193.824 347.053 191.974 344.295 191.24ZM350.425 215.029C354.416 222.848 353.975 231.989 349.263 240.053C337.917 259.261 314.758 246.274 319.303 223.261C321.168 213.921 329.053 206.165 336.892 206.152C342.107 206.214 347.787 209.952 350.425 215.029Z" fill="white"/>
<path d="M440.834 337.423C428.652 332.959 417.122 333.738 406.077 339.999C399.264 343.721 398.489 344.494 393.768 351.236C389.553 357.256 388.517 359.402 387.872 363.495C386.796 370.038 387.872 377.012 390.98 383.255C393.238 387.707 394.402 388.881 401.068 393.548C408.125 398.49 408.943 398.823 416.477 399.912C446.536 404.214 470.423 376.442 457.531 352.463C453.808 345.43 447.705 339.961 440.834 337.423ZM444.643 361.022C447.042 368.444 444.654 375.025 437.738 380.23C427.251 388.198 409.895 385.615 404.439 375.215C399.027 365.087 407.323 353.072 421.558 350.6C431.273 348.909 442.367 353.926 444.643 361.022Z" fill="white"/>
<path d="M261.462 216.246C253.941 213.97 245.563 214.922 238.39 218.99C233.754 221.605 232.316 222.991 228.158 228.931C223.774 235.191 223.279 236.399 222.089 243.939C217.106 274.421 244.801 298.12 269.909 284.959C274.263 282.745 275.454 281.545 280.175 274.803C284.761 268.086 285.594 266.397 286.444 261.011C288.606 248.41 284.793 234.496 276.71 225.846C271.829 220.634 268.266 218.379 261.462 216.246ZM268.757 241.21C274.683 251.939 271.429 266.766 262.113 271.726C257.893 273.914 250.482 273.15 246.091 270.076C236.681 263.487 234.073 246.35 240.874 236.638C243.965 232.224 250.899 229.663 256.583 230.892C260.092 231.555 266.386 236.919 268.757 241.21Z" fill="white"/>
<path d="M333.997 294.073C321.68 289.635 305.36 291.246 293.327 298.251C286.536 302.108 286.267 302.159 278.654 301.015C273.093 300.112 268.327 300.243 262.078 301.49C224.105 308.991 208.041 353.963 232.789 383.373C241.251 393.484 256.671 400.334 270.028 400.118L276.106 399.948L278.026 405.718C282.234 418.233 293.351 429.726 305.97 434.735C327.332 443.113 351.803 435.368 365.347 416.024C375.857 401.015 376.979 379.552 368.179 363.582C364.4 356.629 364.378 356.494 365.758 348.848C368.394 334.904 363.845 318.203 354.587 307.892C350.412 303.175 339.971 296.223 333.997 294.073ZM345.347 321.757C351.086 330.082 352.501 342.915 348.93 352.854C346.891 358.604 347.134 360.927 350.626 365.286C355.293 371.305 357.326 376.078 358.29 383.212C359.608 393.346 358.367 398.457 352.241 407.206C347.969 413.306 346.419 414.852 341.997 417.497C334.655 421.806 327.465 423.23 319.291 422.052C312.9 421.166 311.556 420.583 305.126 416.081C299.01 411.798 297.744 410.434 295.195 405.898C293.663 402.911 291.822 397.196 291.077 393.086C289.355 383.029 287.552 381.766 277.355 383.478C273.182 384.264 267.104 384.434 263.908 383.991C258.852 383.201 257.137 382.479 251.021 378.196C245.061 374.024 243.483 372.44 241.034 368.093C236.919 360.786 235.663 353.567 237.011 345.3C238.087 338.757 238.638 337.469 243.247 330.887C249.451 322.193 253.886 319.198 263.724 316.996C270.758 315.462 275.939 315.74 283.191 318.067C288.481 319.858 290.747 319.291 295.452 315.409C303.515 308.734 316.058 305.675 325.665 307.976C332.75 309.707 341.274 315.556 345.347 321.757Z" fill="white"/>
</svg>
